<svg width="18" height="19" viewBox="0 0 18 19" fill="none" xmlns="http://www.w3.org/2000/svg">
<path d="M11.5 10.5L16.707 5.293C16.8946 5.10551 16.9999 4.85119 17 4.586V2C17 1.73478 16.8946 1.48043 16.7071 1.29289C16.5196 1.10536 16.2652 1 16 1H2C1.73478 1 1.48043 1.10536 1.29289 1.29289C1.10536 1.48043 1 1.73478 1 2V4.586C1 4.851 1.105 5.106 1.293 5.293L6.5 10.5" stroke="white" stroke-width="1.5" stroke-linecap="round" stroke-linejoin="round"/>
<path d="M6.5 10.5V16.749C6.5 17.562 7.264 18.159 8.053 17.962L10.553 17.337C10.8235 17.2694 11.0637 17.1133 11.2353 16.8935C11.4069 16.6737 11.5001 16.4028 11.5 16.124V10.5" stroke="white" stroke-width="1.5" stroke-linecap="round" stroke-linejoin="round"/>
</svg>
