<svg width="135" height="32" viewBox="0 0 135 32" fill="none" xmlns="http://www.w3.org/2000/svg">
<g clip-path="url(#clip0_343_7382)">
<path d="M50.6388 7.73779V24.7031H47.2409L39.616 13.5465V24.6826H36.2686V7.73779H39.6664L47.2915 18.8738V7.73779H50.6388Z" fill="white"/>
<path d="M57.3839 10.9341V14.7452H62.2583V17.9415H57.3839V24.7031H54.0366V7.73779H63.2291V10.9341H57.3839Z" fill="white"/>
<path d="M76.6793 10.9341H72.3613V24.7031H69.0139V10.9341H64.6855V7.73779H76.6793V10.9341Z" fill="white"/>
<path d="M76.8511 16.415H83.93V19.4885H76.8511V16.415Z" fill="white"/>
<path d="M98.7151 20.1032C98.7242 20.7238 98.6076 21.3397 98.3723 21.9128C98.1371 22.4859 97.7883 23.004 97.3476 23.4352C96.9069 23.8663 96.3835 24.2012 95.8099 24.4193C95.2363 24.6374 94.6246 24.734 94.0127 24.7031H87.0449V7.73783H93.4262C94.0012 7.7129 94.5754 7.80632 95.1138 8.01252C95.6522 8.21873 96.1438 8.53341 96.5588 8.93751C96.9737 9.34162 97.3034 9.8268 97.5281 10.3637C97.7527 10.9005 97.8676 11.478 97.8657 12.0611C97.8828 12.7798 97.7157 13.4908 97.3807 14.1246C97.0457 14.7584 96.5543 15.2934 95.9544 15.6775C96.8042 16.0433 97.5237 16.6629 98.0169 17.4536C98.5102 18.2444 98.7537 19.1687 98.7151 20.1032ZM90.2912 10.7907V14.5711H92.5565C92.7972 14.5711 93.0356 14.5227 93.2578 14.4287C93.48 14.3348 93.6815 14.1972 93.8508 14.0237C94.0201 13.8503 94.1537 13.6446 94.244 13.4185C94.3343 13.1924 94.3794 12.9504 94.3767 12.7065C94.3836 12.4615 94.3414 12.2176 94.2526 11.9896C94.1639 11.7616 94.0303 11.5542 93.8602 11.3799C93.6901 11.2056 93.4868 11.0681 93.2627 10.9756C93.0386 10.8832 92.7984 10.8377 92.5565 10.842L90.2912 10.7907ZM95.2666 19.5193C95.2765 19.239 95.2295 18.9596 95.1284 18.6985C95.0273 18.4374 94.8743 18.2001 94.679 18.0013C94.4837 17.8025 94.2502 17.6464 93.9929 17.5427C93.7357 17.4391 93.4602 17.39 93.1835 17.3986H90.2912V21.6604H93.1835C93.462 21.6692 93.7393 21.6195 93.998 21.5146C94.2566 21.4097 94.4911 21.2518 94.6867 21.0507C94.8823 20.8497 95.0347 20.6099 95.1346 20.3463C95.2344 20.0828 95.2793 19.8013 95.2666 19.5193Z" fill="white"/>
<path d="M105.976 21.7422V24.6619H100.728V7H103.883V21.7422H105.976Z" fill="white"/>
<path d="M107.038 18.4333C107.004 17.0932 107.365 15.7731 108.075 14.6419C108.785 13.5107 109.812 12.6196 111.024 12.0826C112.237 11.5456 113.58 11.387 114.882 11.6271C116.184 11.8672 117.385 12.4951 118.333 13.4305C119.281 14.366 119.932 15.5665 120.203 16.8786C120.474 18.1908 120.353 19.555 119.855 20.7969C119.356 22.0389 118.504 23.1021 117.406 23.8508C116.309 24.5995 115.015 24.9997 113.692 25.0001C112.825 25.0306 111.96 24.8829 111.151 24.5659C110.341 24.2489 109.603 23.7691 108.981 23.1555C108.36 22.542 107.867 21.8073 107.533 20.9957C107.199 20.1841 107.031 19.3125 107.038 18.4333ZM117.09 18.4333C117.084 17.7538 116.88 17.0913 116.503 16.5293C116.126 15.9673 115.593 15.5309 114.972 15.2751C114.35 15.0192 113.668 14.9554 113.011 15.0917C112.354 15.2279 111.751 15.5582 111.279 16.0408C110.807 16.5234 110.486 17.1368 110.357 17.8037C110.229 18.4705 110.298 19.1611 110.556 19.7883C110.814 20.4155 111.249 20.9513 111.808 21.3282C112.366 21.7051 113.021 21.9062 113.692 21.9062C114.144 21.9161 114.592 21.8329 115.011 21.6615C115.43 21.4901 115.81 21.2341 116.128 20.9092C116.445 20.5842 116.695 20.1972 116.86 19.7715C117.026 19.3459 117.104 18.8905 117.09 18.4333Z" fill="white"/>
<path d="M121.843 18.433C121.905 16.8056 122.544 15.2554 123.644 14.0674C124.743 12.8794 126.229 12.1333 127.828 11.9663C129.428 11.7993 131.032 12.2227 132.348 13.1585C133.664 14.0943 134.602 15.4798 134.99 17.0602H131.643C131.33 16.3268 130.777 15.7251 130.077 15.3566C129.377 14.9881 128.573 14.8753 127.801 15.0371C127.029 15.199 126.335 15.6256 125.837 16.2452C125.339 16.8647 125.067 17.6392 125.067 18.4381C125.067 19.2371 125.339 20.0116 125.837 20.6311C126.335 21.2506 127.029 21.6772 127.801 21.8391C128.573 22.0009 129.377 21.8881 130.077 21.5195C130.777 21.151 131.33 20.5494 131.643 19.816H134.99C134.601 21.397 133.663 22.7826 132.346 23.7182C131.029 24.6537 129.423 25.0763 127.824 24.908C126.224 24.7397 124.738 23.992 123.639 22.8023C122.541 21.6127 121.903 20.0611 121.843 18.433Z" fill="white"/>
</g>
<g clip-path="url(#clip1_343_7382)">
<path d="M13.9595 3.99886V8.00103L17.4511 6.00169V1.99951L13.9595 3.99886Z" fill="#2129DB"/>
<path d="M13.9593 3.99869L17.4509 1.99935L13.9593 0L10.4712 1.99935L13.9593 3.99869Z" fill="#00FFBB"/>
<path d="M10.4712 6.00169V1.99951L13.9593 3.99886V8.00103L10.4712 6.00169Z" fill="#0A1393"/>
<path d="M10.4712 6.00136V10.0001L13.9593 8.00071V3.99854L10.4712 6.00136Z" fill="#2129DB"/>
<path d="M10.4716 6.00169L13.9597 3.99886L10.4716 1.99951L6.97998 3.99886L10.4716 6.00169Z" fill="#00FFBB"/>
<path d="M6.97998 8.00071V3.99854L10.4716 6.00136V10.0001L6.97998 8.00071Z" fill="#0A1393"/>
<path d="M17.4512 6.00136V10.0001L20.9393 8.00071V3.99854L17.4512 6.00136Z" fill="#2129DB"/>
<path d="M17.4511 6.00169L20.9392 3.99886L17.4511 1.99951L13.9595 3.99886L17.4511 6.00169Z" fill="#2F37FF"/>
<path d="M13.9595 8.00071V3.99854L17.4511 6.00136V10.0001L13.9595 8.00071Z" fill="#0A1393"/>
<path d="M3.4917 21.9998V26.002L6.97982 24.0027V20.0005L3.4917 21.9998Z" fill="#006B7A"/>
<path d="M3.49163 21.9997L6.97975 20.0003L3.49163 18.001L0 20.0003L3.49163 21.9997Z" fill="#2F37FF"/>
<path d="M0 24.0027V20.0005L3.49163 21.9998V26.002L0 24.0027Z" fill="#00A57E"/>
<path d="M3.4917 18.0013V22L6.97982 20.0007V16.002L3.4917 18.0013Z" fill="#006B7A"/>
<path d="M3.49163 18.0011L6.97975 16.0018L3.49163 14.0024L0 16.0018L3.49163 18.0011Z" fill="#2F37FF"/>
<path d="M0 20.0007V16.002L3.49163 18.0013V22L0 20.0007Z" fill="#00A57E"/>
<path d="M3.4917 14.0023V18.001L6.97982 16.0017V11.9995L3.4917 14.0023Z" fill="#2129DB"/>
<path d="M3.49163 14.0022L6.97975 11.9993L3.49163 10L0 11.9993L3.49163 14.0022Z" fill="#2F37FF"/>
<path d="M0 16.0017V11.9995L3.49163 14.0023V18.001L0 16.0017Z" fill="#00A57E"/>
<path d="M17.4512 26.0018V30.0005L20.9393 28.0011V24.0024L17.4512 26.0018Z" fill="#2129DB"/>
<path d="M17.4511 26.0022L20.9392 24.0028L17.4511 22L13.9595 24.0028L17.4511 26.0022Z" fill="#2F37FF"/>
<path d="M13.9595 28.0011V24.0024L17.4511 26.0018V30.0005L13.9595 28.0011Z" fill="#0A1393"/>
<path d="M13.9595 24.0028V28.0015L17.4511 26.0022V22L13.9595 24.0028Z" fill="#2129DB"/>
<path d="M13.9593 24.0027L17.4509 21.9998L13.9593 20.0005L10.4712 21.9998L13.9593 24.0027Z" fill="#2F37FF"/>
<path d="M10.4712 26.0022V22L13.9593 24.0028V28.0015L10.4712 26.0022Z" fill="#0A1393"/>
<path d="M17.4512 14.0023V18.001L20.9393 16.0017V11.9995L17.4512 14.0023Z" fill="#2129DB"/>
<path d="M17.4511 14.0022L20.9392 11.9993L17.4511 10L13.9595 11.9993L17.4511 14.0022Z" fill="#2F37FF"/>
<path d="M13.9595 16.0017V11.9995L17.4511 14.0023V18.001L13.9595 16.0017Z" fill="#0A1393"/>
<path d="M6.97998 16.0018V20.0005L10.4716 18.0011V14.0024L6.97998 16.0018Z" fill="#2129DB"/>
<path d="M6.97982 16.0017L10.4714 14.0023L6.97982 11.9995L3.4917 14.0023L6.97982 16.0017Z" fill="#2F37FF"/>
<path d="M3.4917 18.0011V14.0024L6.97982 16.0018V20.0005L3.4917 18.0011Z" fill="#00A57E"/>
<path d="M10.4712 26.0018V30.0005L13.9593 28.0011V24.0024L10.4712 26.0018Z" fill="#2129DB"/>
<path d="M10.4716 26.0022L13.9597 24.0028L10.4716 22L6.97998 24.0028L10.4716 26.0022Z" fill="#2F37FF"/>
<path d="M6.97998 28.0011V24.0024L10.4716 26.0018V30.0005L6.97998 28.0011Z" fill="#00A57E"/>
<path d="M10.4712 21.9998V26.002L13.9593 24.0027V20.0005L10.4712 21.9998Z" fill="#2129DB"/>
<path d="M10.4716 21.9997L13.9597 20.0003L10.4716 18.001L6.97998 20.0003L10.4716 21.9997Z" fill="#2F37FF"/>
<path d="M6.97998 24.0027V20.0005L10.4716 21.9998V26.002L6.97998 24.0027Z" fill="#00A57E"/>
<path d="M10.4712 18.0013V22L13.9593 20.0007V16.002L10.4712 18.0013Z" fill="#2129DB"/>
<path d="M10.4716 18.0011L13.9597 16.0018L10.4716 14.0024L6.97998 16.0018L10.4716 18.0011Z" fill="#2F37FF"/>
<path d="M6.97998 20.0007V16.002L10.4716 18.0013V22L6.97998 20.0007Z" fill="#00A57E"/>
<path d="M6.97998 8.00081V11.9995L10.4716 10.0002V6.00146L6.97998 8.00081Z" fill="#006B7A"/>
<path d="M6.97982 8.00071L10.4714 6.00136L6.97982 3.99854L3.4917 6.00136L6.97982 8.00071Z" fill="#00FFBB"/>
<path d="M3.4917 10.0002V6.00146L6.97982 8.00081V11.9995L3.4917 10.0002Z" fill="#0A1393"/>
<path d="M13.9595 8.00081V11.9995L17.4511 10.0002V6.00146L13.9595 8.00081Z" fill="#2129DB"/>
<path d="M13.9593 8.00071L17.4509 6.00136L13.9593 3.99854L10.4712 6.00136L13.9593 8.00071Z" fill="#00FFBB"/>
<path d="M10.4712 10.0002V6.00146L13.9593 8.00081V11.9995L10.4712 10.0002Z" fill="#00A57E"/>
<path d="M20.9395 8.00081V11.9995L24.4311 10.0002V6.00146L20.9395 8.00081Z" fill="#2129DB"/>
<path d="M20.9393 8.00071L24.4309 6.00136L20.9393 3.99854L17.4512 6.00136L20.9393 8.00071Z" fill="#2F37FF"/>
<path d="M17.4512 10.0002V6.00146L20.9393 8.00081V11.9995L17.4512 10.0002Z" fill="#0A1393"/>
<path d="M17.4512 10.0003V14.0025L20.9393 11.9997V8.00098L17.4512 10.0003Z" fill="#2129DB"/>
<path d="M17.4511 10.0002L20.9392 8.00081L17.4511 6.00146L13.9595 8.00081L17.4511 10.0002Z" fill="#2F37FF"/>
<path d="M13.9595 11.9997V8.00098L17.4511 10.0003V14.0025L13.9595 11.9997Z" fill="#0A1393"/>
<path d="M3.4917 10.0003V14.0025L6.97982 11.9997V8.00098L3.4917 10.0003Z" fill="#2129DB"/>
<path d="M3.49163 10.0002L6.97975 8.00081L3.49163 6.00146L0 8.00081L3.49163 10.0002Z" fill="#2F37FF"/>
<path d="M0 11.9997V8.00098L3.49163 10.0003V14.0025L0 11.9997Z" fill="#0A1393"/>
<path d="M6.97998 11.9993V16.0015L10.4716 14.0022V10L6.97998 11.9993Z" fill="#2129DB"/>
<path d="M6.97982 11.9997L10.4714 10.0003L6.97982 8.00098L3.4917 10.0003L6.97982 11.9997Z" fill="#2F37FF"/>
<path d="M3.4917 14.0022V10L6.97982 11.9993V16.0015L3.4917 14.0022Z" fill="#0A1393"/>
<path d="M13.9595 11.9993V16.0015L17.4511 14.0022V10L13.9595 11.9993Z" fill="#2129DB"/>
<path d="M13.9593 11.9997L17.4509 10.0003L13.9593 8.00098L10.4712 10.0003L13.9593 11.9997Z" fill="#2F37FF"/>
<path d="M10.4712 14.0022V10L13.9593 11.9993V16.0015L10.4712 14.0022Z" fill="#0A1393"/>
<path d="M10.4712 14.0023V18.001L13.9593 16.0017V11.9995L10.4712 14.0023Z" fill="#2129DB"/>
<path d="M10.4716 14.0022L13.9597 11.9993L10.4716 10L6.97998 11.9993L10.4716 14.0022Z" fill="#2F37FF"/>
<path d="M6.97998 16.0017V11.9995L10.4716 14.0023V18.001L6.97998 16.0017Z" fill="#0A1393"/>
<path d="M24.4307 18.0013V22L27.9223 20.0007V16.002L24.4307 18.0013Z" fill="#2129DB"/>
<path d="M24.4311 18.0011L27.9227 16.0018L24.4311 14.0024L20.9395 16.0018L24.4311 18.0011Z" fill="#2F37FF"/>
<path d="M20.9395 20.0007V16.002L24.4311 18.0013V22L20.9395 20.0007Z" fill="#0A1393"/>
<path d="M24.4307 14.0023V18.001L27.9223 16.0017V11.9995L24.4307 14.0023Z" fill="#2129DB"/>
<path d="M24.4311 14.0022L27.9227 11.9993L24.4311 10L20.9395 11.9993L24.4311 14.0022Z" fill="#2F37FF"/>
<path d="M20.9395 16.0017V11.9995L24.4311 14.0023V18.001L20.9395 16.0017Z" fill="#0A1393"/>
<path d="M24.4307 10.0003V14.0025L27.9223 11.9997V8.00098L24.4307 10.0003Z" fill="url(#paint0_linear_343_7382)"/>
<path d="M24.4311 10.0002L27.9227 8.00081L24.4311 6.00146L20.9395 8.00081L24.4311 10.0002Z" fill="#00FFBB"/>
<path d="M20.9395 11.9997V8.00098L24.4311 10.0003V14.0025L20.9395 11.9997Z" fill="#0A1393"/>
<path d="M20.9395 24.0028V28.0015L24.4311 26.0022V22L20.9395 24.0028Z" fill="#2129DB"/>
<path d="M20.9393 24.0027L24.4309 21.9998L20.9393 20.0005L17.4512 21.9998L20.9393 24.0027Z" fill="#2F37FF"/>
<path d="M17.4512 26.0022V22L20.9393 24.0028V28.0015L17.4512 26.0022Z" fill="#0A1393"/>
<path d="M20.9395 20.0003V24.0025L24.4311 21.9997V18.001L20.9395 20.0003Z" fill="url(#paint1_linear_343_7382)"/>
<path d="M20.9393 20.0006L24.4309 18.0013L20.9393 16.002L17.4512 18.0013L20.9393 20.0006Z" fill="#006B7A"/>
<path d="M17.4512 21.9997V18.001L20.9393 20.0003V24.0025L17.4512 21.9997Z" fill="#0A1393"/>
<path d="M20.9395 11.9993V16.0015L24.4311 14.0022V10L20.9395 11.9993Z" fill="url(#paint2_linear_343_7382)"/>
<path d="M20.9393 11.9997L24.4309 10.0003L20.9393 8.00098L17.4512 10.0003L20.9393 11.9997Z" fill="#00FFBB"/>
<path d="M17.4512 14.0022V10L20.9393 11.9993V16.0015L17.4512 14.0022Z" fill="#0A1393"/>
<path d="M17.4512 26.0018V30.0005L20.9393 28.0011V24.0024L17.4512 26.0018Z" fill="url(#paint3_linear_343_7382)"/>
<path d="M17.4511 26.0022L20.9392 24.0028L17.4511 22L13.9595 24.0028L17.4511 26.0022Z" fill="#2F37FF"/>
<path d="M13.9595 28.0011V24.0024L17.4511 26.0018V30.0005L13.9595 28.0011Z" fill="#0A1393"/>
<path d="M17.4512 21.9998V26.002L20.9393 24.0027V20.0005L17.4512 21.9998Z" fill="url(#paint4_linear_343_7382)"/>
<path d="M17.4511 21.9997L20.9392 20.0003L17.4511 18.001L13.9595 20.0003L17.4511 21.9997Z" fill="#2F37FF"/>
<path d="M13.9595 24.0027V20.0005L17.4511 21.9998V26.002L13.9595 24.0027Z" fill="#0A1393"/>
<path d="M17.4512 18.0013V22L20.9393 20.0007V16.002L17.4512 18.0013Z" fill="url(#paint5_linear_343_7382)"/>
<path d="M17.4511 18.0011L20.9392 16.0018L17.4511 14.0024L13.9595 16.0018L17.4511 18.0011Z" fill="#2F37FF"/>
<path d="M13.9595 20.0007V16.002L17.4511 18.0013V22L13.9595 20.0007Z" fill="#00A57E"/>
<path d="M17.4512 14.0023V18.001L20.9393 16.0017V11.9995L17.4512 14.0023Z" fill="url(#paint6_linear_343_7382)"/>
<path d="M17.4511 14.0022L20.9392 11.9993L17.4511 10L13.9595 11.9993L17.4511 14.0022Z" fill="#00FFBB"/>
<path d="M13.9595 16.0017V11.9995L17.4511 14.0023V18.001L13.9595 16.0017Z" fill="#00A57E"/>
<path d="M13.9595 28.0013V32.0035L17.4511 30.0006V26.002L13.9595 28.0013Z" fill="#2129DB"/>
<path d="M13.9593 28.0011L17.4509 26.0018L13.9593 24.0024L10.4712 26.0018L13.9593 28.0011Z" fill="#2F37FF"/>
<path d="M10.4712 30.0006V26.002L13.9593 28.0013V32.0035L10.4712 30.0006Z" fill="#0A1393"/>
<path d="M13.9595 24.0028V28.0015L17.4511 26.0022V22L13.9595 24.0028Z" fill="#2129DB"/>
<path d="M13.9593 24.0027L17.4509 21.9998L13.9593 20.0005L10.4712 21.9998L13.9593 24.0027Z" fill="#2F37FF"/>
<path d="M10.4712 26.0022V22L13.9593 24.0028V28.0015L10.4712 26.0022Z" fill="#0A1393"/>
<path d="M13.9595 20.0003V24.0025L17.4511 21.9997V18.001L13.9595 20.0003Z" fill="#2129DB"/>
<path d="M13.9593 20.0006L17.4509 18.0013L13.9593 16.002L10.4712 18.0013L13.9593 20.0006Z" fill="#2F37FF"/>
<path d="M10.4712 21.9997V18.001L13.9593 20.0003V24.0025L10.4712 21.9997Z" fill="#0A1393"/>
</g>
<defs>
<linearGradient id="paint0_linear_343_7382" x1="26.6134" y1="10.5785" x2="16.74" y2="20.2202" gradientUnits="userSpaceOnUse">
<stop stop-color="#00FFBB"/>
<stop offset="1" stop-color="#00C1FF"/>
</linearGradient>
<linearGradient id="paint1_linear_343_7382" x1="29.958" y1="14.0058" x2="20.0847" y2="23.6474" gradientUnits="userSpaceOnUse">
<stop stop-color="#00FFBB"/>
<stop offset="1" stop-color="#00C1FF"/>
</linearGradient>
<linearGradient id="paint2_linear_343_7382" x1="25.9295" y1="9.87809" x2="16.0562" y2="19.5198" gradientUnits="userSpaceOnUse">
<stop stop-color="#00FFBB"/>
<stop offset="1" stop-color="#00C1FF"/>
</linearGradient>
<linearGradient id="paint3_linear_343_7382" x1="31.2879" y1="15.3676" x2="21.4145" y2="25.0093" gradientUnits="userSpaceOnUse">
<stop stop-color="#00FFBB"/>
<stop offset="1" stop-color="#00C1FF"/>
</linearGradient>
<linearGradient id="paint4_linear_343_7382" x1="29.2736" y1="13.3058" x2="19.4002" y2="22.9475" gradientUnits="userSpaceOnUse">
<stop stop-color="#00FFBB"/>
<stop offset="1" stop-color="#00C1FF"/>
</linearGradient>
<linearGradient id="paint5_linear_343_7382" x1="27.2593" y1="11.2404" x2="17.386" y2="20.8821" gradientUnits="userSpaceOnUse">
<stop stop-color="#00FFBB"/>
<stop offset="1" stop-color="#00C1FF"/>
</linearGradient>
<linearGradient id="paint6_linear_343_7382" x1="25.2451" y1="9.17813" x2="15.3717" y2="18.8198" gradientUnits="userSpaceOnUse">
<stop stop-color="#00FFBB"/>
<stop offset="1" stop-color="#00C1FF"/>
</linearGradient>
<clipPath id="clip0_343_7382">
<rect width="98.7313" height="18" fill="white" transform="translate(36.2686 7)"/>
</clipPath>
<clipPath id="clip1_343_7382">
<rect width="27.9225" height="32" fill="white"/>
</clipPath>
</defs>
</svg>
