<svg width="17" height="14" viewBox="0 0 17 14" fill="none" xmlns="http://www.w3.org/2000/svg">
<path d="M12.793 6.032V6C12.793 4.67392 12.2882 3.40215 11.3896 2.46447C10.491 1.52678 9.27219 1 8.00136 1C6.73053 1 5.51175 1.52678 4.61314 2.46447C3.71453 3.40215 3.20969 4.67392 3.20969 6V8.504C3.20962 8.66259 3.16727 8.81804 3.08739 8.95296C3.00751 9.08788 2.89324 9.19696 2.75736 9.268L2.27532 9.519C1.91695 9.70556 1.62949 10.013 1.45958 10.3914C1.28967 10.7698 1.24726 11.1971 1.33925 11.6038C1.43123 12.0105 1.6522 12.3729 1.96632 12.6322C2.28044 12.8914 2.66929 13.0323 3.06978 13.032H12.9329C13.1727 13.1572 13.4365 13.2241 13.7045 13.2278C13.9726 13.2315 14.238 13.1719 14.4808 13.0534C14.7237 12.9348 14.9376 12.7605 15.1067 12.5434C15.2759 12.3264 15.3957 12.0722 15.4573 11.7999C15.5189 11.5277 15.5206 11.2444 15.4624 10.9713C15.4042 10.6983 15.2875 10.4425 15.1211 10.2232C14.9546 10.0038 14.7428 9.82665 14.5015 9.70488C14.2601 9.5831 13.9955 9.5199 13.7274 9.52L13.2454 9.269C13.1095 9.1977 12.9952 9.08842 12.9154 8.95335C12.8355 8.81828 12.7931 8.66271 12.793 8.504V6.032V6.032Z" stroke="white" stroke-width="1.5" stroke-linecap="round" stroke-linejoin="round"/>
</svg>
