<svg width="269" height="371" viewBox="0 0 269 371" fill="none" xmlns="http://www.w3.org/2000/svg">
<path d="M255.67 124.25C243.49 112.07 202.77 124.25 193.11 89.8198C201.843 89.0879 210.448 87.2533 218.72 84.3598C231.32 79.7498 236.88 53.4298 228.38 44.8898C222.06 38.5498 179.48 35.6098 135.1 35.7198C90.7297 35.6098 48.0997 38.5498 41.8297 44.8898C33.3297 53.4298 38.8897 79.7498 51.4897 84.3598C59.7615 87.2542 68.3667 89.0888 77.0997 89.8198C67.4397 124.25 26.7097 112.07 14.5397 124.25C2.36972 136.43 7.51973 236 11.6597 277C15.7997 318 26.2897 345.53 45.1897 351.82C53.5197 354.6 70.8997 358.39 91.8997 361.24V363.51C106.238 365.147 120.683 365.646 135.1 365C149.514 365.638 163.956 365.133 178.29 363.49V361.22C199.29 358.37 216.67 354.58 225 351.8C243.89 345.51 254.39 318.03 258.53 276.98C262.67 235.93 267.85 136.43 255.67 124.25Z" fill="#BAD2E6"/>
<path d="M164.55 17.83C161.9 12.6817 157.636 8.54375 152.41 6.05C144.97 2.54 136.41 2.70001 128.18 2.93001C121.18 3.13001 113.37 3.64001 108.46 8.68001C103.7 13.56 103.24 21.08 103.06 27.9L106.56 35.08L166.98 34.57C168.023 28.8744 167.169 22.9941 164.55 17.83Z" fill="#8C572F"/>
<path d="M160.4 87.7793L108.54 88.6493C106.68 91.6493 107.29 95.7593 109.42 98.5693C111.704 101.312 114.898 103.14 118.42 103.719C121.907 104.28 125.449 104.421 128.97 104.139L151.69 103.219C154.64 103.109 157.88 102.869 160 100.809C160.783 99.9588 161.377 98.9527 161.744 97.8567C162.111 96.7607 162.242 95.5996 162.13 94.4493C161.882 92.1534 161.299 89.9062 160.4 87.7793Z" fill="#8C572F"/>
<path d="M142 7.79991C135.65 3.92991 121.22 6.59995 114.88 9.27995C108.54 11.9599 105.79 17.0199 103.08 23.5299C102.08 25.8599 103.94 27.9199 106.08 28.4699H105.89C106.611 28.7246 107.398 28.7246 108.12 28.4699L108.37 28.3899L108.54 28.3299C108.863 28.1998 109.166 28.0247 109.44 27.8099C109.585 27.6995 109.718 27.5757 109.84 27.4399C113.93 22.8299 118.16 19.6599 124.15 17.9399C130.14 16.2199 137.65 17.2699 142.68 13.1599C144.45 11.7599 143.71 8.84991 142 7.79991Z" fill="#D5B381"/>
<path d="M166.06 24.16C166.003 23.2089 165.688 22.2914 165.149 21.5057C164.61 20.72 163.867 20.0958 163 19.7001C163.062 18.4978 162.693 17.3127 161.96 16.3578C161.227 15.4029 160.178 14.7407 159 14.4901C158.441 14.3474 157.848 14.4272 157.346 14.7125C156.845 14.9979 156.473 15.4665 156.31 16.0201C155.26 19.0201 154.77 20.8101 151.18 21.0701C147.87 21.3101 144.88 20.0701 141.58 21.0201C136.73 22.4601 131.58 28.6701 134 33.6901C134.72 35.1801 136.5 35.5401 138 35.3001C139.136 35.0918 140.158 34.4811 140.88 33.5801C149.89 35.2201 167.27 38.8 166.06 24.16Z" fill="#592710"/>
<path d="M158.34 88.0695C154.34 87.4995 151.34 88.3795 147.45 89.1995C143.088 90.009 138.666 90.4505 134.23 90.5195C130.61 90.6595 126.97 90.8194 123.36 90.6594C119.44 90.4894 115.69 89.0194 111.8 89.1294C109.04 89.1994 106.33 92.6494 108.29 95.2394C109.03 96.1973 109.902 97.0457 110.88 97.7595C110.705 98.7082 110.879 99.6881 111.369 100.519C111.86 101.349 112.634 101.975 113.55 102.279C128.91 108.869 145.94 107.639 159.6 97.6495C162.72 95.3595 163.31 88.7895 158.34 88.0695Z" fill="#592710"/>
<path d="M164.21 109.13C168.42 105.87 171.21 101.05 176.72 99.9099C181.72 98.9099 187.11 100.78 191.99 99.2599C192.756 99.026 193.44 98.5765 193.958 97.9651C194.477 97.3537 194.808 96.606 194.914 95.8114C195.019 95.0167 194.894 94.2085 194.553 93.483C194.212 92.7576 193.669 92.1456 192.99 91.7199C190.519 90.2276 187.729 89.3433 184.85 89.1399C184.679 88.9895 184.472 88.8861 184.25 88.8399C180.68 88.1299 176.97 89.1199 173.35 89.3099C169.73 89.4999 166.01 89.3699 162.35 89.9199C160.67 90.1599 160.9 92.6899 162.35 93.0999L163.02 93.2599C162.94 93.4599 162.86 93.6699 162.8 93.8699C162.615 94.6491 162.615 95.4607 162.8 96.2399C162.817 96.3226 162.844 96.4031 162.88 96.4799C160.36 98.9499 158.06 101.61 154.88 103.36C149.41 106.36 143.07 107.15 136.93 107.15C131.073 107.225 125.223 106.736 119.46 105.69C113.93 104.6 111.67 102.54 108.89 97.8599C108.75 97.6199 108.6 97.3999 108.45 97.1599C108.577 96.7733 108.628 96.3658 108.6 95.9599C108.571 94.9892 108.239 94.0518 107.65 93.2799C107.472 93.0592 107.278 92.8519 107.07 92.6599C107.239 92.4569 107.362 92.2193 107.43 91.9637C107.497 91.7081 107.508 91.4408 107.461 91.1806C107.415 90.9204 107.312 90.6735 107.159 90.4575C107.007 90.2414 106.809 90.0613 106.58 89.9299C103.58 88.3999 100.16 89.4299 96.8297 89.2799C93.3097 89.1299 89.6897 88.2099 86.2097 88.7699C85.9111 88.8118 85.6394 88.9654 85.4497 89.1999C84.5716 89.1268 83.6995 88.9932 82.8397 88.7999C76.2797 87.3099 73.4797 97.3699 80.0497 98.8999C85.1697 100.08 90.4197 98.8299 95.4497 99.8999C100.48 100.97 101.45 106.9 104.99 110.15C112.26 116.77 124.59 116.76 133.81 117.15C144.46 117.51 155.59 115.83 164.21 109.13Z" fill="#6795B8"/>
<path d="M180.27 161.329C174.27 162.529 169.53 166.099 164.05 168.519C160.413 170.102 156.65 171.376 152.8 172.329C147.48 173.689 141.8 174.109 136.8 176.559C134.31 177.789 135.37 181.079 137.5 181.909C143.76 184.369 151.97 183.229 158.87 181.329C159.177 182.295 159.775 183.142 160.582 183.755C161.39 184.367 162.367 184.714 163.38 184.749C178.13 185.728 192.77 187.963 207.14 191.429C208.36 191.75 209.656 191.589 210.76 190.979C211.844 192.302 213.075 193.496 214.43 194.539C215.011 194.948 215.721 195.132 216.427 195.057C217.133 194.981 217.788 194.652 218.27 194.129L220.43 197.589C222.64 201.129 227.62 198.739 226.91 194.859C223.13 173.829 202 156.999 180.27 161.329Z" fill="#6795B8"/>
<path d="M209.38 329.049C203.98 328.459 198.02 332.649 193.32 334.929C181.306 340.649 168.186 343.67 154.88 343.78C148.59 343.78 141.76 341.909 135.62 343.239C131.84 344.049 131.71 349.15 134.62 351.03C140.29 354.73 149.22 354.349 155.75 354.239C162.88 354.117 169.979 353.252 176.93 351.659C183.844 350.055 190.571 347.729 197 344.719C202.35 342.239 210.2 338.399 211.68 332.129C211.771 331.772 211.781 331.399 211.71 331.038C211.638 330.676 211.487 330.335 211.266 330.04C211.045 329.744 210.762 329.502 210.435 329.331C210.109 329.16 209.748 329.063 209.38 329.049Z" fill="#6795B8"/>
<path d="M170.46 73.7997C177.91 75.5497 185.9 75.0097 193.46 74.2897C197.4 73.9197 207.71 73.6297 207.73 67.7397C207.75 61.8497 199.09 63.2498 195.44 63.6298C187.53 64.4298 179.54 63.9197 171.68 64.7897C166.91 65.3197 165 72.5197 170.46 73.7997Z" fill="#6795B8"/>
<path d="M182.63 40.8794C178.28 38.1194 173.01 38.4894 168.04 37.8794C162.48 37.1694 156.64 37.5093 151.04 37.4793C139.6 37.406 128.16 37.5227 116.72 37.8294C105.62 38.1294 94.533 38.6094 83.4597 39.2694C77.5797 39.6094 71.6997 40.0394 65.8197 40.5094C60.5397 40.9394 55.1997 41.0594 50.4497 43.5894C47.4497 45.1894 48.4497 49.4994 51.3497 50.4494C56.3497 52.0794 61.6696 51.2093 66.8596 50.8493C72.3863 50.4627 77.9197 50.106 83.4597 49.7794C94.8797 49.1127 106.313 48.626 117.76 48.3194C128.853 48.0327 139.946 47.9227 151.04 47.9893C156.44 47.9893 161.95 48.4293 167.34 48.1093C172.5 47.7993 177.98 48.3293 182.63 45.8093C183.056 45.5548 183.41 45.1939 183.655 44.7618C183.901 44.3297 184.03 43.8412 184.03 43.3443C184.03 42.8474 183.901 42.359 183.655 41.9269C183.41 41.4948 183.056 41.1339 182.63 40.8794Z" fill="white"/>
<path d="M192.16 47.3992C196.63 48.3992 202.07 47.9292 205.81 50.9392C209.55 53.9492 211.96 58.4692 215.92 61.5292C217.74 62.9292 220.2 64.2192 220.04 66.8392C219.89 69.1192 217.42 71.6992 215.93 73.1392C212.53 76.4492 207.18 77.1992 204.17 80.5692C203.757 80.9994 203.526 81.5727 203.526 82.1692C203.526 82.7656 203.757 83.339 204.17 83.7692C209.17 88.2492 217.92 84.3192 222.47 80.7692C228.23 76.3192 232.47 68.2992 229.47 61.1492C234.99 57.8492 231.03 50.4892 228.03 47.0092C224.73 43.1792 219.65 40.1192 214.49 40.7692C213.869 40.6116 213.228 40.5541 212.59 40.5992C211.781 40.6484 211.022 41.0064 210.47 41.5992C207.721 39.9815 204.64 39.0111 201.461 38.7616C198.281 38.5121 195.087 38.99 192.12 40.1592C191.358 40.4152 190.692 40.8946 190.206 41.535C189.721 42.1753 189.44 42.9468 189.4 43.7492C189.35 43.9899 189.37 44.24 189.46 44.4692L189.53 44.7292C189.692 45.3676 190.021 45.9515 190.483 46.4207C190.945 46.8899 191.524 47.2277 192.16 47.3992Z" fill="white"/>
<path d="M243.86 320.37C239.28 317.54 235.93 325.72 234.32 328.59C231.66 333.32 226.32 338.22 225.99 343.8C226 344.42 226.251 345.011 226.689 345.45C227.128 345.888 227.72 346.139 228.34 346.15C233.34 346.34 237.05 341.79 239.79 338.15C243.14 333.67 245.29 329.23 245.73 323.66C245.739 322.994 245.57 322.339 245.242 321.761C244.913 321.182 244.436 320.702 243.86 320.37Z" fill="white"/>
<path d="M262.18 177.699C261.58 167.039 261 156.169 259.51 145.599C258.34 137.319 257.51 127.599 249.87 122.469C243.02 117.919 234.78 119.969 227.49 117.859L223.12 116.119C222.329 115.792 221.457 115.712 220.619 115.89C219.782 116.069 219.018 116.497 218.43 117.119C213.35 115.649 208.35 113.899 203.43 112.019C202.565 111.666 201.6 111.645 200.72 111.959C199.385 110.022 198.23 107.967 197.27 105.819C195.22 101.189 189.17 104.819 189.78 108.979C192.41 126.979 210.3 134.899 223.99 143.649C232.2 148.899 238.58 155.259 241.99 164.579C245.24 173.579 246.43 183.429 247.32 192.919C249.16 212.609 248.69 232.479 247.24 252.179C246.51 262.179 245.5 272.069 244.32 281.989C243.76 286.769 243.32 291.579 243.13 296.389C242.92 300.989 243.56 305.729 243.22 310.249C243.01 313.049 247.51 313.649 248.12 310.909C248.87 307.549 250.47 304.439 251.25 301.029C252.18 296.959 253.11 292.919 253.81 288.799C255.07 281.359 255.74 273.799 256.47 266.269C258.139 250.043 258.96 233.741 258.93 217.429C258.93 215.899 258.93 214.359 258.87 212.819C259.292 212.629 259.65 212.322 259.902 211.933C260.154 211.545 260.288 211.092 260.29 210.629C260.35 209.269 260.4 207.909 260.46 206.539C260.605 204.749 260.876 202.971 261.27 201.219C261.916 198.926 262.38 196.585 262.66 194.219C263 188.719 262.48 183.109 262.18 177.699Z" fill="white"/>
<path d="M80.4697 104.15C79.9197 99.9995 73.8997 98.3495 72.6197 103.09C71.4649 107.497 68.8401 111.377 65.1797 114.09C65.058 113.427 64.6952 112.834 64.1614 112.424C63.6276 112.014 62.9607 111.816 62.2897 111.869C53.4597 112.869 45.0497 116.629 36.4797 118.799C29.4797 120.579 21.8497 121.469 16.5297 126.929C11.3797 132.219 9.90968 139.929 8.83968 146.929C7.20206 156.571 6.56868 166.357 6.94968 176.129C6.96011 177.071 7.25117 177.988 7.7856 178.762C8.32004 179.537 9.07353 180.135 9.94968 180.479C8.93091 189.512 8.48336 198.6 8.60968 207.689C8.71968 242.259 11.2597 278.399 21.3597 311.619C25.7597 326.059 32.7697 346.529 49.0097 351.239C51.7497 352.039 53.3897 348.65 51.6597 346.7C30.5697 322.87 25.1497 288.789 21.8697 258.229C20.1497 242.229 19.2397 226.229 19.0997 210.129C19.022 197.298 20.1031 184.486 22.3297 171.849C22.6034 170.43 23.1618 169.081 23.971 167.883C24.7802 166.685 25.8236 165.663 27.0383 164.879C28.253 164.095 29.6139 163.565 31.0388 163.321C32.4638 163.077 33.9234 163.124 35.3297 163.46H35.4297C43.4297 165.29 53.1697 163.669 59.9397 158.859C66.9397 153.859 68.5397 144.859 66.5597 136.859L66.4697 136.51C65.7759 133.916 65.8822 131.173 66.7744 128.641C67.6666 126.109 69.3033 123.905 71.4697 122.319C77.3597 117.999 81.5497 112.16 80.4697 104.15Z" fill="white"/>
<path d="M88.3399 145.749C86.9115 145.18 85.3458 145.049 83.8426 145.373C82.3394 145.697 80.9668 146.462 79.8999 147.569C79.576 147.886 79.269 148.22 78.98 148.569C77.545 149.83 76.3697 151.359 75.5199 153.069C73.6299 156.399 74.6199 160.779 78.6199 161.939C83.8999 163.469 90.8099 158.939 92.0799 153.769C92.4893 152.206 92.3396 150.549 91.6567 149.085C90.9738 147.62 89.8006 146.44 88.3399 145.749Z" fill="white"/>
<path d="M219.05 319.78C205.2 334.84 163.42 343.78 115.4 341.08C67.3797 338.38 49.9197 328.08 43.7097 308.25C37.5697 288.61 28.3897 232.51 36.3097 203.51C36.3897 203.23 36.4597 202.96 36.5397 202.69C56.5397 186.42 127 183.05 157.29 184.46C187.58 185.87 224.77 194.24 232.65 203.46L232.73 203.54C240.48 212.74 232.88 304.73 219.05 319.78Z" fill="#37B3E7"/>
<path d="M233.62 206.74C233.399 205.969 233.006 205.258 232.471 204.661C231.935 204.064 231.271 203.597 230.529 203.294C229.786 202.992 228.984 202.862 228.184 202.915C227.384 202.968 226.606 203.202 225.91 203.6C211.91 212.71 197.22 216.93 181.11 220.6C180.466 220.729 179.861 221.004 179.34 221.405C178.82 221.806 178.399 222.32 178.11 222.91C177.253 222.987 176.428 223.267 175.702 223.727C174.975 224.187 174.369 224.813 173.933 225.554C173.497 226.295 173.244 227.13 173.195 227.988C173.145 228.846 173.301 229.704 173.65 230.49C183.59 252.31 177.53 277.4 166.65 297.65C161.65 306.97 155.1 315.86 146.13 321.71C141.682 324.644 136.754 326.773 131.57 328C126.75 329.12 121.51 328.89 117.01 331.09C116.639 331.309 116.323 331.61 116.086 331.969C115.849 332.329 115.697 332.738 115.642 333.165C115.587 333.593 115.63 334.027 115.768 334.435C115.907 334.843 116.136 335.214 116.44 335.52C121.2 339.79 128.05 339.87 134.72 338.22C134.94 339.086 135.43 339.859 136.118 340.429C136.807 340.998 137.658 341.335 138.55 341.39C155.94 341.98 172.99 338.8 189.63 333.78C203.73 329.53 218.63 324.5 224.63 309.78C227.63 302.4 228.9 294.24 230.51 286.48C232.37 277.48 234 268.48 235.15 259.39C237.39 241.82 237.45 224.12 233.62 206.74Z" fill="#37B3E7"/>
<path d="M232.65 203.43C201.06 237.63 64.5401 234.04 36.3101 203.51C36.3901 203.23 36.4601 202.96 36.5401 202.69C56.5401 186.42 127 183.05 157.29 184.46C187.58 185.87 224.77 194.24 232.65 203.43Z" fill="white"/>
<path d="M106.62 302.39C106.12 295.917 105.703 289.443 105.37 282.97C104.77 270.88 106.1 257.79 103.5 245.97C101.04 234.72 68.7698 229.23 64.8698 236.77C61.9998 242.32 63.6997 250.02 64.3297 255.89C65.0631 262.797 65.9131 269.69 66.8798 276.57C67.8198 283.33 68.8764 290.07 70.0497 296.79C71.1597 303.12 71.0498 312.68 75.1698 317.71C79.5798 323.07 104.81 326.88 107.22 319.93C109.09 314.54 107.06 308 106.62 302.39Z" fill="#91D9F8"/>
<path d="M266.89 148.64C266.07 140.81 265.6 130.51 260.89 123.81C253.72 113.59 237.49 113.81 226.5 111.86C219.77 110.65 212.86 109.13 207 105.46C202.13 102.4 199.11 97.9099 197.16 92.7999L198.86 92.6599C205.64 92.1699 212.86 91.4799 219.37 89.2999C231.37 85.2999 237.17 70.7999 237.31 58.9899C237.45 47.1799 231.13 39.0799 219.79 36.3799C207.02 33.3799 193.46 32.9299 180.4 32.2699C177.29 32.1199 174.17 32.0099 171.07 31.8999C171.22 22.5699 170.87 13.1599 163.28 6.58992C155.69 0.0199184 146.28 0.259901 134.61 0.259901C122.94 0.259901 113.46 0.0599184 105.93 6.58992C98.3998 13.1199 97.9998 22.5899 98.1498 31.8999C95.0398 32.0099 91.9299 32.1199 88.8099 32.2699C75.7598 32.9299 62.1999 33.3399 49.4299 36.3799C38.0798 39.0799 31.7599 47.0699 31.9099 58.9899C32.0599 70.9099 37.8299 85.2499 49.8399 89.2999C56.3399 91.4799 63.5798 92.1699 70.3598 92.6599L72.0599 92.7999C70.1099 97.9099 67.0599 102.4 62.2199 105.46C56.3599 109.13 49.4499 110.65 42.7199 111.86C31.7199 113.81 15.4999 113.59 8.32986 123.81C3.63986 130.51 3.16986 140.81 2.32986 148.64C1.12191 161.27 0.56451 173.953 0.659861 186.64C0.592054 217.455 2.7107 248.235 6.99986 278.75C8.7579 292.269 11.4307 305.653 14.9999 318.81C17.6499 328.11 20.8799 338.06 26.9999 345.7C36.2699 357.24 53.5298 361.7 67.2998 364.6C89.2998 369.26 109.95 370.6 134.56 370.6C159.17 370.6 179.79 369.29 201.82 364.6C215.59 361.69 232.82 357.24 242.11 345.7C248.25 338.06 251.48 328.11 254.11 318.81C257.674 305.652 260.347 292.268 262.11 278.75C266.394 248.221 268.506 217.427 268.43 186.6C268.567 173.929 268.053 161.259 266.89 148.64ZM112.89 13.8399C118.61 9.29992 127.04 10.0799 134.66 10.0799C142.28 10.0799 150.71 9.29992 156.43 13.8399C161.79 18.0699 162.34 25.1599 161.93 31.6399C152.84 31.4399 145.02 31.3799 134.66 31.3799C124.3 31.3799 116.48 31.4399 107.39 31.6399C106.94 25.1599 107.5 18.0699 112.86 13.8399H112.89ZM254.52 260.64C253.076 274.466 250.934 288.21 248.1 301.82C245.86 312.27 243.33 323.11 238.55 332.72C236.6 336.66 234.94 339.48 231.82 342.1C225.14 347.76 216.13 350.66 207.82 352.9C184.15 359.32 160.66 360.5 134.65 360.5C108.64 360.5 85.1399 359.32 61.4799 352.9C53.1799 350.66 44.1699 347.76 37.4799 342.1C34.3499 339.48 32.6999 336.66 30.7399 332.72C25.9699 323.11 23.4299 312.27 21.1999 301.82C18.3611 288.211 16.2183 274.467 14.7799 260.64C11.4501 231.164 10.1803 201.492 10.9799 171.84C11.2999 161.32 11.7499 150.66 13.5599 140.29C14.9799 132.12 16.0499 127.63 24.4699 125.29C35.7799 122.14 47.7699 122.29 58.8699 118.17C70.8699 113.74 79.1199 105.25 81.6199 93.1699C84.6486 93.1215 87.5928 92.1633 90.0699 90.4199C90.2434 90.2487 90.3812 90.0448 90.4753 89.8199C90.5693 89.595 90.6178 89.3536 90.6178 89.1099C90.6178 88.8661 90.5693 88.6248 90.4753 88.3999C90.3812 88.175 90.2434 87.9711 90.0699 87.7999C85.1299 83.7999 76.4199 84.3099 70.3899 83.5799C64.3599 82.8499 57.0199 82.5799 51.4599 79.9299C42.6599 75.6899 38.8499 60.2299 42.4599 51.6899C45.4599 44.5199 56.7999 44.3199 63.3399 43.5099C86.9199 40.5999 110.96 40.7099 134.68 40.7099C158.4 40.7099 182.44 40.5999 206.02 43.5099C212.56 44.3199 223.88 44.5099 226.9 51.6899C230.46 60.2299 226.65 75.6899 217.9 79.9299C212.33 82.6099 204.98 82.8599 198.97 83.5799C192.96 84.2999 184.22 83.8099 179.29 87.7999C179.116 87.9711 178.979 88.175 178.884 88.3999C178.79 88.6248 178.742 88.8661 178.742 89.1099C178.742 89.3536 178.79 89.595 178.884 89.8199C178.979 90.0448 179.116 90.2487 179.29 90.4199C181.763 92.1631 184.704 93.1214 187.73 93.1699C190.24 105.29 198.51 113.78 210.48 118.17C221.59 122.27 233.58 122.17 244.88 125.29C253.31 127.64 254.38 132.13 255.79 140.29C257.6 150.66 258.06 161.29 258.38 171.84C259.15 201.494 257.85 231.166 254.49 260.64H254.52Z" fill="#04070F"/>
<path d="M231.55 198.789C228.89 196.839 225.86 195.689 222.88 194.349C218.44 192.349 214.65 190.049 209.88 188.759C185.361 182.079 160.041 178.795 134.63 178.999C109.216 178.811 83.8961 182.112 59.3797 188.809C54.6097 190.099 50.8097 192.409 46.3797 194.399C43.3797 195.739 40.3797 196.889 37.7097 198.839C31.9397 203.049 32.0997 210.319 30.9697 216.839C27.0297 239.569 28.6997 262.609 32.4797 285.269C35.1397 301.269 38.3797 321.139 53.2597 330.419C63.5797 336.839 76.0597 340.049 87.8497 342.419C118.748 348.378 150.501 348.378 181.4 342.419C193.19 340.079 205.68 336.869 216 330.419C230.88 321.139 234.12 301.269 236.77 285.269C240.56 262.609 242.22 239.569 238.29 216.839C237.16 210.269 237.32 202.999 231.55 198.789ZM230.86 242.489C230.42 252.889 229.79 263.269 228.45 273.599C227.307 283.197 225.421 292.693 222.81 301.999C221.16 307.689 219.21 314.549 214.87 318.719C206.96 326.329 193.87 329.299 183.58 331.649C167.511 335.213 151.088 336.938 134.63 336.789C118.171 336.938 101.749 335.213 85.6797 331.649C75.3797 329.299 62.2997 326.329 54.3797 318.719C50.0497 314.549 48.0897 307.719 46.4497 301.999C43.8392 292.685 41.9502 283.184 40.7997 273.579C39.4697 263.249 38.7997 252.869 38.3997 242.469C37.9897 232.469 37.0397 222.469 37.3997 212.559C37.5197 209.559 37.3997 205.909 39.6697 203.739C41.5097 202.009 44.2197 200.939 46.5197 199.999C50.2897 198.449 54.2997 198.549 58.2497 197.659C62.9597 196.599 67.6397 195.489 72.3797 194.659C113.466 186.752 155.683 186.752 196.77 194.659C201.52 195.539 206.2 196.659 210.91 197.659C214.85 198.549 218.91 198.449 222.64 199.999C224.93 200.939 227.64 201.999 229.48 203.739C231.79 205.909 231.64 209.579 231.76 212.559C232.21 222.539 231.26 232.539 230.86 242.489Z" fill="#04070F"/>
<path d="M183.271 193.458C182.328 192.568 181.087 191.925 179.702 191.61C178.316 191.294 176.848 191.32 175.48 191.684L133.87 202.811L148.344 169.064C148.988 167.647 148.953 166.081 148.244 164.684C147.536 163.287 146.207 162.162 144.527 161.536C142.846 160.91 140.938 160.829 139.187 161.31C137.437 161.791 135.974 162.798 135.094 164.128L81.9503 240.646C81.2085 241.719 80.8886 242.954 81.0344 244.181C81.1801 245.409 81.7844 246.57 82.7648 247.506C83.7452 248.442 85.054 249.108 86.5129 249.412C87.9719 249.717 89.5099 249.645 90.9173 249.208L136.623 234.976L118.854 281.257C118.321 282.693 118.464 284.24 119.255 285.594C120.047 286.947 121.428 288.008 123.128 288.568C124.828 289.127 126.721 289.144 128.436 288.615C130.15 288.087 131.56 287.051 132.387 285.712L184.165 200.111C184.84 199.055 185.115 197.858 184.956 196.673C184.797 195.488 184.21 194.369 183.271 193.458V193.458Z" fill="#003C80"/>
<path d="M141.566 166.094L88.4458 242.632C88.1706 242.98 88.0396 243.391 88.0723 243.805C88.1049 244.219 88.2995 244.613 88.6271 244.929C88.9547 245.245 89.3978 245.466 89.8909 245.559C90.384 245.653 90.9006 245.613 91.3643 245.447L141.942 229.712C142.367 229.533 142.847 229.464 143.321 229.514C143.794 229.564 144.237 229.731 144.592 229.993C144.947 230.254 145.196 230.598 145.307 230.978C145.418 231.358 145.386 231.757 145.214 232.122L125.867 282.395C125.63 282.878 125.637 283.419 125.886 283.898C126.136 284.377 126.607 284.756 127.197 284.95C127.787 285.144 128.447 285.139 129.032 284.934C129.617 284.73 130.078 284.344 130.316 283.86L182.094 198.24C182.328 197.895 182.427 197.498 182.377 197.105C182.327 196.712 182.131 196.341 181.815 196.042C181.499 195.743 181.079 195.531 180.611 195.434C180.143 195.338 179.65 195.362 179.199 195.502L132.763 207.921C132.335 208.053 131.87 208.08 131.424 207.999C130.977 207.918 130.569 207.732 130.25 207.464C129.93 207.196 129.713 206.858 129.624 206.49C129.536 206.123 129.58 205.742 129.751 205.395L145.92 167.714C146.182 167.241 146.204 166.702 145.981 166.216C145.758 165.729 145.308 165.335 144.731 165.121C144.154 164.906 143.496 164.888 142.902 165.07C142.308 165.253 141.828 165.621 141.566 166.094Z" fill="#91D9F8"/>
<path d="M91.3656 245.447L141.943 229.711C142.245 229.611 142.569 229.563 142.894 229.571C143.22 229.579 143.54 229.642 143.834 229.756C144.128 229.87 144.39 230.033 144.604 230.234C144.817 230.436 144.977 230.671 145.074 230.926C152.676 223.984 171.998 206.069 169.692 205.105C166.844 203.929 113.207 230.174 109.747 225.025C106.287 219.876 120.55 199.436 120.55 199.436C120.55 199.436 118.667 200.92 115.843 203.022L88.3531 242.631C88.0522 242.985 87.9046 243.411 87.9338 243.841C87.963 244.271 88.1672 244.681 88.514 245.005C88.8608 245.329 89.33 245.549 89.8469 245.629C90.3638 245.709 90.8985 245.645 91.3656 245.447Z" fill="#37B3E7"/>
<path d="M160.441 216.425C154.819 221.338 148.623 225.788 141.942 229.712C142.366 229.533 142.847 229.464 143.32 229.514C143.794 229.564 144.237 229.731 144.592 229.993C144.947 230.254 145.196 230.598 145.307 230.978C145.418 231.358 145.386 231.757 145.213 232.122L126.385 280.833C126.118 281.874 125.906 282.8 125.75 283.61C125.884 283.916 126.106 284.19 126.397 284.412C126.688 284.633 127.039 284.795 127.421 284.882C134.928 273.312 163.665 217.871 169.784 205.646C167.147 209.501 164.015 213.115 160.441 216.425Z" fill="white"/>
<path d="M149.026 227.263C144.809 228.434 140.676 229.799 136.646 231.351L141.941 229.712C142.366 229.533 142.847 229.464 143.32 229.514C143.793 229.564 144.237 229.731 144.592 229.993C144.946 230.254 145.196 230.598 145.307 230.978C145.418 231.359 145.385 231.758 145.213 232.122L125.867 282.395C125.707 282.793 125.711 283.223 125.876 283.62C126.042 284.017 126.361 284.358 126.785 284.593C129.585 273.775 151.262 227.263 149.026 227.263Z" fill="#006AB6"/>
<path d="M89.0584 245.119C96.119 233.067 139.401 173.422 141.448 169.913C143.802 166.056 145.92 167.734 145.92 167.734C146.185 167.261 146.211 166.721 145.99 166.232C145.769 165.744 145.321 165.348 144.743 165.13C144.166 164.913 143.507 164.893 142.911 165.073C142.315 165.254 141.831 165.622 141.566 166.095L88.4464 242.632C88.1638 243.037 88.0701 243.512 88.1826 243.97C88.2952 244.427 88.6063 244.836 89.0584 245.119Z" fill="#37B3E7"/>
<path d="M179.198 195.502L132.763 207.921C132.335 208.053 131.869 208.08 131.423 207.999C130.977 207.918 130.569 207.732 130.249 207.464C129.93 207.196 129.712 206.858 129.624 206.49C129.535 206.123 129.579 205.742 129.75 205.395C129.75 205.395 126.102 209.599 126.926 211.604C127.75 213.61 178.327 196.177 182.14 196.601C181.914 196.145 181.483 195.777 180.936 195.572C180.389 195.368 179.767 195.343 179.198 195.502V195.502Z" fill="white"/>
<path d="M99.8597 91.0794C101.25 91.4194 102.63 91.7094 104 91.9794C102.4 105.649 122.05 109.999 134.63 109.999C147.21 109.999 166.85 105.609 165.26 91.9394C166.63 91.6694 168.01 91.3794 169.4 91.0394C169.819 90.8985 170.183 90.6298 170.441 90.2709C170.699 89.9121 170.837 89.4813 170.837 89.0394C170.837 88.5974 170.699 88.1667 170.441 87.8079C170.183 87.449 169.819 87.1802 169.4 87.0394C163.7 85.6494 144.48 84.3594 134.63 84.3594C124.78 84.3594 105.56 85.6494 99.8597 87.0394C99.4258 87.1703 99.0457 87.4375 98.7755 87.8013C98.5053 88.1651 98.3594 88.6062 98.3594 89.0594C98.3594 89.5126 98.5053 89.9537 98.7755 90.3175C99.0457 90.6813 99.4258 90.9485 99.8597 91.0794ZM134.63 93.9294C144.48 93.9294 156.21 93.1694 158.41 92.9294C157.475 95.0419 156.113 96.9383 154.41 98.4994C148.83 103.119 142.06 102.599 134.6 102.599C127.14 102.599 120.37 103.119 114.79 98.4994C113.087 96.9383 111.725 95.0419 110.79 92.9294C113.05 93.1694 124.78 93.9294 134.63 93.9294Z" fill="#04070F"/>
</svg>
