<svg width="30" height="30" viewBox="0 0 30 30" fill="none" xmlns="http://www.w3.org/2000/svg">
<path d="M25.0604 14.7024L11.9354 28.7649C11.7963 28.9133 11.6127 29.0125 11.4123 29.0474C11.2119 29.0824 11.0056 29.0512 10.8245 28.9586C10.6434 28.866 10.4973 28.717 10.4083 28.534C10.3193 28.3511 10.2922 28.1442 10.3311 27.9446L12.0491 19.3512L5.29557 16.8153C5.15053 16.761 5.02119 16.6717 4.9191 16.5552C4.81701 16.4388 4.74535 16.2989 4.71053 16.148C4.67571 15.9971 4.67881 15.8399 4.71955 15.6905C4.76029 15.5411 4.83741 15.4042 4.94401 15.2918L18.069 1.22934C18.2081 1.0809 18.3917 0.981733 18.5921 0.946795C18.7925 0.911856 18.9988 0.943044 19.1799 1.03565C19.361 1.12826 19.5071 1.27726 19.5961 1.46018C19.6851 1.64309 19.7122 1.84999 19.6733 2.04965L17.9506 10.6524L24.7042 13.1848C24.8481 13.2394 24.9764 13.3287 25.0777 13.4446C25.179 13.5606 25.2502 13.6998 25.2849 13.8498C25.3197 13.9998 25.317 14.156 25.277 14.3047C25.237 14.4535 25.161 14.59 25.0557 14.7024H25.0604Z" fill="#00F8F8"/>
</svg>
