<svg width="402" height="253" viewBox="0 0 402 253" fill="none" xmlns="http://www.w3.org/2000/svg">
<g filter="url(#filter0_di_9_71)">
<path d="M106.648 119.673C105.756 118.032 106.688 115.993 108.513 115.593L214.351 92.3885C215.816 92.0674 217.274 92.9547 217.662 94.4032L224.395 119.53C224.81 121.079 223.845 122.661 222.277 122.999L122.449 144.546C121.231 144.808 119.985 144.237 119.391 143.142L106.648 119.673Z" fill="#8B80E8"/>
</g>
<g filter="url(#filter1_di_9_71)">
<path d="M78.8166 105.293C77.9252 103.651 78.8568 101.613 80.6816 101.213L186.52 78.0082C187.985 77.687 189.443 78.5743 189.831 80.0228L196.564 105.15C196.979 106.699 196.013 108.28 194.445 108.619L94.6174 130.165C93.3995 130.428 92.1541 129.856 91.5595 128.761L78.8166 105.293Z" fill="#A3A2FE"/>
</g>
<g filter="url(#filter2_di_9_71)">
<path d="M49.2805 84.5456C48.389 82.904 49.3207 80.8659 51.1454 80.4658L156.984 57.261C158.448 56.9398 159.907 57.8271 160.295 59.2756L167.028 84.4023C167.443 85.9516 166.477 87.533 164.909 87.8714L65.0813 109.418C63.8633 109.681 62.6179 109.109 62.0234 108.014L49.2805 84.5456Z" fill="#C4C5FF"/>
</g>
<g filter="url(#filter3_di_9_71)">
<path d="M295.352 119.673C296.243 118.032 295.312 115.993 293.487 115.593L187.649 92.3885C186.184 92.0674 184.725 92.9547 184.337 94.4031L177.605 119.53C177.19 121.079 178.155 122.661 179.723 122.999L279.551 144.546C280.769 144.808 282.014 144.237 282.609 143.142L295.352 119.673Z" fill="#8B80E8"/>
</g>
<g filter="url(#filter4_di_9_71)">
<path d="M323.183 105.293C324.074 103.651 323.143 101.613 321.318 101.213L215.48 78.008C214.015 77.6869 212.556 78.5742 212.168 80.0227L205.436 105.149C205.021 106.699 205.986 108.28 207.554 108.618L307.382 130.165C308.6 130.428 309.845 129.856 310.44 128.761L323.183 105.293Z" fill="#A3A2FE"/>
</g>
<g filter="url(#filter5_di_9_71)">
<path d="M352.719 84.5455C353.61 82.9038 352.679 80.8658 350.854 80.4657L245.016 57.2608C243.551 56.9397 242.093 57.827 241.705 59.2755L234.972 84.4022C234.557 85.9515 235.522 87.5329 237.09 87.8712L336.918 109.418C338.136 109.681 339.382 109.109 339.976 108.014L352.719 84.5455Z" fill="#C4C5FF"/>
</g>
<g filter="url(#filter6_d_9_71)">
<mask id="mask0_9_71" style="mask-type:alpha" maskUnits="userSpaceOnUse" x="163" y="12" width="78" height="78">
<path d="M200.005 12.9841C201.101 11.8883 202.878 11.8883 203.973 12.9841L221.989 31L240.005 49.0159C241.101 50.1117 241.101 51.8883 240.005 52.9841L221.989 71L203.973 89.0159C202.878 90.1117 201.101 90.1117 200.005 89.0159L181.989 71L163.973 52.9841C162.878 51.8883 162.878 50.1117 163.973 49.0159L181.989 31L200.005 12.9841Z" fill="#C4C4C4"/>
</mask>
<g mask="url(#mask0_9_71)">
<path d="M201.989 91V11L161.989 51L201.989 91Z" fill="#7EF7FF"/>
<path d="M201.989 11V91L241.989 51L201.989 11Z" fill="#38C9D1"/>
<path d="M281.989 91L241.989 51L201.989 91H281.989Z" fill="#7EF7FF"/>
<path d="M121.989 91H201.989L161.989 51L121.989 91Z" fill="#7EF7FF"/>
</g>
</g>
<g filter="url(#filter7_d_9_71)">
<mask id="mask1_9_71" style="mask-type:alpha" maskUnits="userSpaceOnUse" x="203" y="52" width="78" height="78">
<path d="M280.079 88.9422C281.175 90.038 281.175 91.8147 280.079 92.9105L262.063 110.926L244.047 128.942C242.951 130.038 241.175 130.038 240.079 128.942L222.063 110.926L204.047 92.9105C202.951 91.8147 202.951 90.038 204.047 88.9422L222.063 70.9263L240.079 52.9105C241.175 51.8147 242.951 51.8147 244.047 52.9105L262.063 70.9263L280.079 88.9422Z" fill="#C4C4C4"/>
</mask>
<g mask="url(#mask1_9_71)">
<path d="M202.063 90.9259L282.063 90.9259L242.063 50.9259L202.063 90.9259Z" fill="#7EF7FF"/>
<path d="M282.063 90.9259L202.063 90.9259L242.063 130.926L282.063 90.9259Z" fill="#38C9D1"/>
<path d="M202.063 170.926L242.063 130.926L202.063 90.9259L202.063 170.926Z" fill="#7EF7FF"/>
<path d="M202.063 10.9259L202.063 90.9259L242.063 50.9259L202.063 10.9259Z" fill="#7EF7FF"/>
</g>
</g>
<g filter="url(#filter8_d_9_71)">
<mask id="mask2_9_71" style="mask-type:alpha" maskUnits="userSpaceOnUse" x="163" y="92" width="78" height="78">
<path d="M204.121 169.016C203.025 170.112 201.248 170.112 200.153 169.016L182.137 151L164.121 132.984C163.025 131.888 163.025 130.112 164.121 129.016L182.137 111L200.153 92.9841C201.248 91.8883 203.025 91.8883 204.121 92.9841L222.137 111L240.153 129.016C241.248 130.112 241.248 131.888 240.153 132.984L222.137 151L204.121 169.016Z" fill="#C4C4C4"/>
</mask>
<g mask="url(#mask2_9_71)">
<path d="M202.137 91L202.137 171L242.137 131L202.137 91Z" fill="#7EF7FF"/>
<path d="M202.137 171L202.137 91L162.137 131L202.137 171Z" fill="#38C9D1"/>
<path d="M122.137 91L162.137 131L202.137 91L122.137 91Z" fill="#7EF7FF"/>
<path d="M282.137 91L202.137 91L242.137 131L282.137 91Z" fill="#7EF7FF"/>
</g>
</g>
<g filter="url(#filter9_d_9_71)">
<mask id="mask3_9_71" style="mask-type:alpha" maskUnits="userSpaceOnUse" x="123" y="52" width="78" height="78">
<path d="M124.047 93.0578C122.951 91.962 122.951 90.1853 124.047 89.0895L142.063 71.0737L160.079 53.0578C161.175 51.962 162.951 51.962 164.047 53.0578L182.063 71.0737L200.079 89.0895C201.175 90.1853 201.175 91.962 200.079 93.0578L182.063 111.074L164.047 129.09C162.951 130.185 161.175 130.185 160.079 129.09L142.063 111.074L124.047 93.0578Z" fill="#C4C4C4"/>
</mask>
<g mask="url(#mask3_9_71)">
<path d="M202.063 91.0741L122.063 91.0741L162.063 131.074L202.063 91.0741Z" fill="#7EF7FF"/>
<path d="M122.063 91.0741L202.063 91.0741L162.063 51.0741L122.063 91.0741Z" fill="#38C9D1"/>
<path d="M202.063 11.0741L162.063 51.0741L202.063 91.0741L202.063 11.0741Z" fill="#7EF7FF"/>
<path d="M202.063 171.074L202.063 91.0741L162.063 131.074L202.063 171.074Z" fill="#7EF7FF"/>
</g>
</g>
<g filter="url(#filter10_d_9_71)">
<circle cx="202.063" cy="91" r="67.3431" fill="url(#paint0_linear_9_71)"/>
<circle cx="202.063" cy="90.9998" r="64.5372" fill="url(#paint1_linear_9_71)"/>
<circle cx="202.063" cy="91.0002" r="54.7163" fill="url(#paint2_linear_9_71)"/>
<g filter="url(#filter11_i_9_71)">
<circle cx="202.063" cy="91.0007" r="51.9103" fill="url(#paint3_radial_9_71)"/>
<circle cx="202.063" cy="91.0007" r="51.9103" fill="url(#paint4_radial_9_71)"/>
</g>
<path d="M202.063 56.3942L225.436 91.0003L202.063 125.606L178.689 91.0003L202.063 56.3942Z" fill="#0C24DA" fill-opacity="0.29"/>
<path d="M202.062 62.1624L182.814 91.0008H193.813L202.062 78.0235V62.1624Z" fill="#D3FCFF"/>
<path d="M221.311 91.0008L202.062 62.1624V78.0235L210.312 91.0008H221.311Z" fill="#7EF7FF"/>
<path d="M202.062 119.839L221.311 91.0008H210.312L202.062 103.978V119.839Z" fill="#38C9D1"/>
<path d="M182.814 91.0008L202.062 119.839V103.978L193.813 91.0008H182.814Z" fill="#7EF7FF"/>
<path d="M210.312 91.0008L202.062 78.0235L193.813 91.0008L202.062 103.978L210.312 91.0008Z" fill="white"/>
</g>
<ellipse cx="201" cy="171" rx="200.626" ry="24.5522" fill="url(#paint5_radial_9_71)"/>
<ellipse cx="201" cy="171" rx="129.074" ry="4.91044" fill="url(#paint6_radial_9_71)"/>
<g filter="url(#filter12_d_9_71)">
<mask id="path-39-outside-1_9_71" maskUnits="userSpaceOnUse" x="140.374" y="155" width="125" height="43" fill="black">
<rect fill="white" x="140.374" y="155" width="125" height="43"/>
<path d="M141.866 196V157.12H150.314C153.194 157.12 155.466 157.568 157.13 158.464C158.826 159.328 160.026 160.64 160.73 162.4C161.466 164.16 161.834 166.352 161.834 168.976V183.28C161.834 186.032 161.466 188.352 160.73 190.24C160.026 192.128 158.858 193.568 157.226 194.56C155.626 195.52 153.466 196 150.746 196H141.866ZM147.29 192.112H150.362C152.346 192.112 153.754 191.728 154.586 190.96C155.418 190.192 155.914 189.072 156.074 187.6C156.266 186.128 156.362 184.352 156.362 182.272V169.648C156.362 167.632 156.234 166 155.978 164.752C155.722 163.504 155.162 162.592 154.298 162.016C153.434 161.44 152.074 161.152 150.218 161.152H147.29V192.112ZM167.179 196V157.12H182.251V161.152H172.603V174.016H180.427V177.856H172.603V192.112H182.347V196H167.179ZM186.726 196V157.12H201.75V161.008H192.15V173.968H199.59V177.808H192.15V196H186.726ZM205.476 196V157.12H220.548V161.152H210.9V174.016H218.724V177.856H210.9V192.112H220.644V196H205.476ZM222.911 196L231.167 157.12H236.399L244.703 196H239.567L237.791 186.208H229.871L227.999 196H222.911ZM230.591 182.32H237.071L233.807 164.8L230.591 182.32ZM251.373 196V161.152H244.797V157.12H263.181V161.152H256.797V196H251.373Z"/>
</mask>
<path d="M141.866 196V157.12H150.314C153.194 157.12 155.466 157.568 157.13 158.464C158.826 159.328 160.026 160.64 160.73 162.4C161.466 164.16 161.834 166.352 161.834 168.976V183.28C161.834 186.032 161.466 188.352 160.73 190.24C160.026 192.128 158.858 193.568 157.226 194.56C155.626 195.52 153.466 196 150.746 196H141.866ZM147.29 192.112H150.362C152.346 192.112 153.754 191.728 154.586 190.96C155.418 190.192 155.914 189.072 156.074 187.6C156.266 186.128 156.362 184.352 156.362 182.272V169.648C156.362 167.632 156.234 166 155.978 164.752C155.722 163.504 155.162 162.592 154.298 162.016C153.434 161.44 152.074 161.152 150.218 161.152H147.29V192.112ZM167.179 196V157.12H182.251V161.152H172.603V174.016H180.427V177.856H172.603V192.112H182.347V196H167.179ZM186.726 196V157.12H201.75V161.008H192.15V173.968H199.59V177.808H192.15V196H186.726ZM205.476 196V157.12H220.548V161.152H210.9V174.016H218.724V177.856H210.9V192.112H220.644V196H205.476ZM222.911 196L231.167 157.12H236.399L244.703 196H239.567L237.791 186.208H229.871L227.999 196H222.911ZM230.591 182.32H237.071L233.807 164.8L230.591 182.32ZM251.373 196V161.152H244.797V157.12H263.181V161.152H256.797V196H251.373Z" fill="white"/>
<path d="M141.866 196H140.463C140.463 196.775 141.091 197.403 141.866 197.403V196ZM141.866 157.12V155.717C141.091 155.717 140.463 156.345 140.463 157.12H141.866ZM157.13 158.464L156.465 159.699C156.475 159.704 156.484 159.709 156.493 159.714L157.13 158.464ZM160.73 162.4L159.428 162.921C159.43 162.928 159.433 162.935 159.436 162.941L160.73 162.4ZM160.73 190.24L159.423 189.73C159.421 189.737 159.418 189.743 159.416 189.75L160.73 190.24ZM157.226 194.56L157.948 195.763L157.955 195.759L157.226 194.56ZM147.29 192.112H145.887C145.887 192.887 146.515 193.515 147.29 193.515V192.112ZM156.074 187.6L154.683 187.419C154.682 187.428 154.681 187.438 154.68 187.448L156.074 187.6ZM155.978 164.752L157.353 164.47L157.353 164.47L155.978 164.752ZM154.298 162.016L153.52 163.183L153.52 163.183L154.298 162.016ZM147.29 161.152V159.749C146.515 159.749 145.887 160.377 145.887 161.152H147.29ZM143.269 196V157.12H140.463V196H143.269ZM141.866 158.523H150.314V155.717H141.866V158.523ZM150.314 158.523C153.073 158.523 155.085 158.956 156.465 159.699L157.795 157.229C155.847 156.18 153.315 155.717 150.314 155.717V158.523ZM156.493 159.714C157.888 160.424 158.85 161.478 159.428 162.921L162.033 161.879C161.202 159.802 159.765 158.232 157.767 157.214L156.493 159.714ZM159.436 162.941C160.079 164.478 160.431 166.473 160.431 168.976H163.237C163.237 166.231 162.854 163.842 162.025 161.859L159.436 162.941ZM160.431 168.976V183.28H163.237V168.976H160.431ZM160.431 183.28C160.431 185.916 160.078 188.052 159.423 189.73L162.037 190.75C162.855 188.652 163.237 186.148 163.237 183.28H160.431ZM159.416 189.75C158.815 191.36 157.845 192.542 156.498 193.361L157.955 195.759C159.872 194.594 161.237 192.896 162.045 190.73L159.416 189.75ZM156.504 193.357C155.2 194.139 153.321 194.597 150.746 194.597V197.403C153.611 197.403 156.052 196.901 157.948 195.763L156.504 193.357ZM150.746 194.597H141.866V197.403H150.746V194.597ZM147.29 193.515H150.362V190.709H147.29V193.515ZM150.362 193.515C152.456 193.515 154.311 193.123 155.538 191.991L153.635 189.929C153.197 190.333 152.236 190.709 150.362 190.709V193.515ZM155.538 191.991C156.687 190.93 157.284 189.455 157.469 187.752L154.68 187.448C154.545 188.689 154.149 189.454 153.635 189.929L155.538 191.991ZM157.465 187.781C157.668 186.231 157.765 184.391 157.765 182.272H154.959C154.959 184.313 154.865 186.025 154.683 187.419L157.465 187.781ZM157.765 182.272V169.648H154.959V182.272H157.765ZM157.765 169.648C157.765 167.585 157.635 165.848 157.353 164.47L154.604 165.034C154.833 166.152 154.959 167.679 154.959 169.648H157.765ZM157.353 164.47C157.04 162.947 156.315 161.674 155.077 160.849L153.52 163.183C154.01 163.51 154.404 164.061 154.604 165.034L157.353 164.47ZM155.077 160.849C153.863 160.04 152.161 159.749 150.218 159.749V162.555C151.987 162.555 153.006 162.84 153.52 163.183L155.077 160.849ZM150.218 159.749H147.29V162.555H150.218V159.749ZM145.887 161.152V192.112H148.693V161.152H145.887ZM167.179 196H165.776C165.776 196.775 166.404 197.403 167.179 197.403V196ZM167.179 157.12V155.717C166.404 155.717 165.776 156.345 165.776 157.12H167.179ZM182.251 157.12H183.654C183.654 156.345 183.026 155.717 182.251 155.717V157.12ZM182.251 161.152V162.555C183.026 162.555 183.654 161.927 183.654 161.152H182.251ZM172.603 161.152V159.749C171.828 159.749 171.2 160.377 171.2 161.152H172.603ZM172.603 174.016H171.2C171.2 174.791 171.828 175.419 172.603 175.419V174.016ZM180.427 174.016H181.83C181.83 173.241 181.202 172.613 180.427 172.613V174.016ZM180.427 177.856V179.259C181.202 179.259 181.83 178.631 181.83 177.856H180.427ZM172.603 177.856V176.453C171.828 176.453 171.2 177.081 171.2 177.856H172.603ZM172.603 192.112H171.2C171.2 192.887 171.828 193.515 172.603 193.515V192.112ZM182.347 192.112H183.75C183.75 191.337 183.122 190.709 182.347 190.709V192.112ZM182.347 196V197.403C183.122 197.403 183.75 196.775 183.75 196H182.347ZM168.582 196V157.12H165.776V196H168.582ZM167.179 158.523H182.251V155.717H167.179V158.523ZM180.848 157.12V161.152H183.654V157.12H180.848ZM182.251 159.749H172.603V162.555H182.251V159.749ZM171.2 161.152V174.016H174.006V161.152H171.2ZM172.603 175.419H180.427V172.613H172.603V175.419ZM179.024 174.016V177.856H181.83V174.016H179.024ZM180.427 176.453H172.603V179.259H180.427V176.453ZM171.2 177.856V192.112H174.006V177.856H171.2ZM172.603 193.515H182.347V190.709H172.603V193.515ZM180.944 192.112V196H183.75V192.112H180.944ZM182.347 194.597H167.179V197.403H182.347V194.597ZM186.726 196H185.323C185.323 196.775 185.951 197.403 186.726 197.403V196ZM186.726 157.12V155.717C185.951 155.717 185.323 156.345 185.323 157.12H186.726ZM201.75 157.12H203.153C203.153 156.345 202.525 155.717 201.75 155.717V157.12ZM201.75 161.008V162.411C202.525 162.411 203.153 161.783 203.153 161.008H201.75ZM192.15 161.008V159.605C191.375 159.605 190.747 160.233 190.747 161.008H192.15ZM192.15 173.968H190.747C190.747 174.743 191.375 175.371 192.15 175.371V173.968ZM199.59 173.968H200.993C200.993 173.193 200.365 172.565 199.59 172.565V173.968ZM199.59 177.808V179.211C200.365 179.211 200.993 178.583 200.993 177.808H199.59ZM192.15 177.808V176.405C191.375 176.405 190.747 177.033 190.747 177.808H192.15ZM192.15 196V197.403C192.925 197.403 193.553 196.775 193.553 196H192.15ZM188.129 196V157.12H185.323V196H188.129ZM186.726 158.523H201.75V155.717H186.726V158.523ZM200.347 157.12V161.008H203.153V157.12H200.347ZM201.75 159.605H192.15V162.411H201.75V159.605ZM190.747 161.008V173.968H193.553V161.008H190.747ZM192.15 175.371H199.59V172.565H192.15V175.371ZM198.187 173.968V177.808H200.993V173.968H198.187ZM199.59 176.405H192.15V179.211H199.59V176.405ZM190.747 177.808V196H193.553V177.808H190.747ZM192.15 194.597H186.726V197.403H192.15V194.597ZM205.476 196H204.073C204.073 196.775 204.701 197.403 205.476 197.403V196ZM205.476 157.12V155.717C204.701 155.717 204.073 156.345 204.073 157.12H205.476ZM220.548 157.12H221.951C221.951 156.345 221.323 155.717 220.548 155.717V157.12ZM220.548 161.152V162.555C221.323 162.555 221.951 161.927 221.951 161.152H220.548ZM210.9 161.152V159.749C210.125 159.749 209.497 160.377 209.497 161.152H210.9ZM210.9 174.016H209.497C209.497 174.791 210.125 175.419 210.9 175.419V174.016ZM218.724 174.016H220.127C220.127 173.241 219.499 172.613 218.724 172.613V174.016ZM218.724 177.856V179.259C219.499 179.259 220.127 178.631 220.127 177.856H218.724ZM210.9 177.856V176.453C210.125 176.453 209.497 177.081 209.497 177.856H210.9ZM210.9 192.112H209.497C209.497 192.887 210.125 193.515 210.9 193.515V192.112ZM220.644 192.112H222.047C222.047 191.337 221.419 190.709 220.644 190.709V192.112ZM220.644 196V197.403C221.419 197.403 222.047 196.775 222.047 196H220.644ZM206.879 196V157.12H204.073V196H206.879ZM205.476 158.523H220.548V155.717H205.476V158.523ZM219.145 157.12V161.152H221.951V157.12H219.145ZM220.548 159.749H210.9V162.555H220.548V159.749ZM209.497 161.152V174.016H212.303V161.152H209.497ZM210.9 175.419H218.724V172.613H210.9V175.419ZM217.321 174.016V177.856H220.127V174.016H217.321ZM218.724 176.453H210.9V179.259H218.724V176.453ZM209.497 177.856V192.112H212.303V177.856H209.497ZM210.9 193.515H220.644V190.709H210.9V193.515ZM219.241 192.112V196H222.047V192.112H219.241ZM220.644 194.597H205.476V197.403H220.644V194.597ZM222.911 196L221.538 195.709C221.45 196.123 221.554 196.554 221.82 196.883C222.087 197.212 222.487 197.403 222.911 197.403V196ZM231.167 157.12V155.717C230.504 155.717 229.932 156.18 229.794 156.829L231.167 157.12ZM236.399 157.12L237.771 156.827C237.632 156.18 237.06 155.717 236.399 155.717V157.12ZM244.703 196V197.403C245.126 197.403 245.527 197.212 245.793 196.882C246.06 196.553 246.163 196.121 246.075 195.707L244.703 196ZM239.567 196L238.186 196.25C238.307 196.918 238.888 197.403 239.567 197.403V196ZM237.791 186.208L239.171 185.958C239.05 185.29 238.469 184.805 237.791 184.805V186.208ZM229.871 186.208V184.805C229.197 184.805 228.619 185.283 228.493 185.945L229.871 186.208ZM227.999 196V197.403C228.672 197.403 229.25 196.925 229.377 196.263L227.999 196ZM230.591 182.32L229.211 182.067C229.135 182.476 229.246 182.898 229.513 183.218C229.779 183.538 230.174 183.723 230.591 183.723V182.32ZM237.071 182.32V183.723C237.488 183.723 237.883 183.537 238.15 183.217C238.416 182.896 238.526 182.473 238.45 182.063L237.071 182.32ZM233.807 164.8L235.186 164.543C235.062 163.878 234.481 163.396 233.805 163.397C233.128 163.398 232.549 163.881 232.427 164.547L233.807 164.8ZM224.283 196.291L232.539 157.411L229.794 156.829L221.538 195.709L224.283 196.291ZM231.167 158.523H236.399V155.717H231.167V158.523ZM235.026 157.413L243.33 196.293L246.075 195.707L237.771 156.827L235.026 157.413ZM244.703 194.597H239.567V197.403H244.703V194.597ZM240.947 195.75L239.171 185.958L236.41 186.458L238.186 196.25L240.947 195.75ZM237.791 184.805H229.871V187.611H237.791V184.805ZM228.493 185.945L226.621 195.737L229.377 196.263L231.249 186.471L228.493 185.945ZM227.999 194.597H222.911V197.403H227.999V194.597ZM230.591 183.723H237.071V180.917H230.591V183.723ZM238.45 182.063L235.186 164.543L232.427 165.057L235.691 182.577L238.45 182.063ZM232.427 164.547L229.211 182.067L231.97 182.573L235.186 165.053L232.427 164.547ZM251.373 196H249.97C249.97 196.775 250.598 197.403 251.373 197.403V196ZM251.373 161.152H252.776C252.776 160.377 252.148 159.749 251.373 159.749V161.152ZM244.797 161.152H243.394C243.394 161.927 244.022 162.555 244.797 162.555V161.152ZM244.797 157.12V155.717C244.022 155.717 243.394 156.345 243.394 157.12H244.797ZM263.181 157.12H264.584C264.584 156.345 263.956 155.717 263.181 155.717V157.12ZM263.181 161.152V162.555C263.956 162.555 264.584 161.927 264.584 161.152H263.181ZM256.797 161.152V159.749C256.022 159.749 255.394 160.377 255.394 161.152H256.797ZM256.797 196V197.403C257.572 197.403 258.2 196.775 258.2 196H256.797ZM252.776 196V161.152H249.97V196H252.776ZM251.373 159.749H244.797V162.555H251.373V159.749ZM246.2 161.152V157.12H243.394V161.152H246.2ZM244.797 158.523H263.181V155.717H244.797V158.523ZM261.778 157.12V161.152H264.584V157.12H261.778ZM263.181 159.749H256.797V162.555H263.181V159.749ZM255.394 161.152V196H258.2V161.152H255.394ZM256.797 194.597H251.373V197.403H256.797V194.597Z" fill="#5647FF" fill-opacity="0.6" mask="url(#path-39-outside-1_9_71)"/>
</g>
<defs>
<filter id="filter0_di_9_71" x="100.694" y="90.9199" width="129.409" height="64.9129" filterUnits="userSpaceOnUse" color-interpolation-filters="sRGB">
<feFlood flood-opacity="0" result="BackgroundImageFix"/>
<feColorMatrix in="SourceAlpha" type="matrix" values="0 0 0 0 0 0 0 0 0 0 0 0 0 0 0 0 0 0 127 0" result="hardAlpha"/>
<feOffset dy="5.61193"/>
<feGaussianBlur stdDeviation="2.80596"/>
<feColorMatrix type="matrix" values="0 0 0 0 0 0 0 0 0 0 0 0 0 0 0 0 0 0 0.08 0"/>
<feBlend mode="normal" in2="BackgroundImageFix" result="effect1_dropShadow_9_71"/>
<feBlend mode="normal" in="SourceGraphic" in2="effect1_dropShadow_9_71" result="shape"/>
<feColorMatrix in="SourceAlpha" type="matrix" values="0 0 0 0 0 0 0 0 0 0 0 0 0 0 0 0 0 0 127 0" result="hardAlpha"/>
<feOffset dx="5.61193" dy="-11.2239"/>
<feGaussianBlur stdDeviation="0.701491"/>
<feComposite in2="hardAlpha" operator="arithmetic" k2="-1" k3="1"/>
<feColorMatrix type="matrix" values="0 0 0 0 0 0 0 0 0 0 0 0 0 0 0 0 0 0 0.11 0"/>
<feBlend mode="overlay" in2="shape" result="effect2_innerShadow_9_71"/>
</filter>
<filter id="filter1_di_9_71" x="72.8627" y="76.5396" width="129.409" height="64.9129" filterUnits="userSpaceOnUse" color-interpolation-filters="sRGB">
<feFlood flood-opacity="0" result="BackgroundImageFix"/>
<feColorMatrix in="SourceAlpha" type="matrix" values="0 0 0 0 0 0 0 0 0 0 0 0 0 0 0 0 0 0 127 0" result="hardAlpha"/>
<feOffset dy="5.61193"/>
<feGaussianBlur stdDeviation="2.80596"/>
<feColorMatrix type="matrix" values="0 0 0 0 0 0 0 0 0 0 0 0 0 0 0 0 0 0 0.08 0"/>
<feBlend mode="normal" in2="BackgroundImageFix" result="effect1_dropShadow_9_71"/>
<feBlend mode="normal" in="SourceGraphic" in2="effect1_dropShadow_9_71" result="shape"/>
<feColorMatrix in="SourceAlpha" type="matrix" values="0 0 0 0 0 0 0 0 0 0 0 0 0 0 0 0 0 0 127 0" result="hardAlpha"/>
<feOffset dx="5.61193" dy="-11.2239"/>
<feGaussianBlur stdDeviation="0.701491"/>
<feComposite in2="hardAlpha" operator="arithmetic" k2="-1" k3="1"/>
<feColorMatrix type="matrix" values="0 0 0 0 0 0 0 0 0 0 0 0 0 0 0 0 0 0 0.19 0"/>
<feBlend mode="overlay" in2="shape" result="effect2_innerShadow_9_71"/>
</filter>
<filter id="filter2_di_9_71" x="43.3265" y="55.7924" width="129.409" height="64.9129" filterUnits="userSpaceOnUse" color-interpolation-filters="sRGB">
<feFlood flood-opacity="0" result="BackgroundImageFix"/>
<feColorMatrix in="SourceAlpha" type="matrix" values="0 0 0 0 0 0 0 0 0 0 0 0 0 0 0 0 0 0 127 0" result="hardAlpha"/>
<feOffset dy="5.61193"/>
<feGaussianBlur stdDeviation="2.80596"/>
<feColorMatrix type="matrix" values="0 0 0 0 0 0 0 0 0 0 0 0 0 0 0 0 0 0 0.08 0"/>
<feBlend mode="normal" in2="BackgroundImageFix" result="effect1_dropShadow_9_71"/>
<feBlend mode="normal" in="SourceGraphic" in2="effect1_dropShadow_9_71" result="shape"/>
<feColorMatrix in="SourceAlpha" type="matrix" values="0 0 0 0 0 0 0 0 0 0 0 0 0 0 0 0 0 0 127 0" result="hardAlpha"/>
<feOffset dx="5.61193" dy="-11.2239"/>
<feGaussianBlur stdDeviation="0.701491"/>
<feComposite in2="hardAlpha" operator="arithmetic" k2="-1" k3="1"/>
<feColorMatrix type="matrix" values="0 0 0 0 0 0 0 0 0 0 0 0 0 0 0 0 0 0 0.42 0"/>
<feBlend mode="overlay" in2="shape" result="effect2_innerShadow_9_71"/>
</filter>
<filter id="filter3_di_9_71" x="171.896" y="90.9199" width="129.409" height="64.9129" filterUnits="userSpaceOnUse" color-interpolation-filters="sRGB">
<feFlood flood-opacity="0" result="BackgroundImageFix"/>
<feColorMatrix in="SourceAlpha" type="matrix" values="0 0 0 0 0 0 0 0 0 0 0 0 0 0 0 0 0 0 127 0" result="hardAlpha"/>
<feOffset dy="5.61193"/>
<feGaussianBlur stdDeviation="2.80596"/>
<feColorMatrix type="matrix" values="0 0 0 0 0 0 0 0 0 0 0 0 0 0 0 0 0 0 0.08 0"/>
<feBlend mode="normal" in2="BackgroundImageFix" result="effect1_dropShadow_9_71"/>
<feBlend mode="normal" in="SourceGraphic" in2="effect1_dropShadow_9_71" result="shape"/>
<feColorMatrix in="SourceAlpha" type="matrix" values="0 0 0 0 0 0 0 0 0 0 0 0 0 0 0 0 0 0 127 0" result="hardAlpha"/>
<feOffset dx="-5.61193" dy="-11.2239"/>
<feGaussianBlur stdDeviation="0.701491"/>
<feComposite in2="hardAlpha" operator="arithmetic" k2="-1" k3="1"/>
<feColorMatrix type="matrix" values="0 0 0 0 0 0 0 0 0 0 0 0 0 0 0 0 0 0 0.11 0"/>
<feBlend mode="overlay" in2="shape" result="effect2_innerShadow_9_71"/>
</filter>
<filter id="filter4_di_9_71" x="199.727" y="76.5394" width="129.409" height="64.9129" filterUnits="userSpaceOnUse" color-interpolation-filters="sRGB">
<feFlood flood-opacity="0" result="BackgroundImageFix"/>
<feColorMatrix in="SourceAlpha" type="matrix" values="0 0 0 0 0 0 0 0 0 0 0 0 0 0 0 0 0 0 127 0" result="hardAlpha"/>
<feOffset dy="5.61193"/>
<feGaussianBlur stdDeviation="2.80596"/>
<feColorMatrix type="matrix" values="0 0 0 0 0 0 0 0 0 0 0 0 0 0 0 0 0 0 0.08 0"/>
<feBlend mode="normal" in2="BackgroundImageFix" result="effect1_dropShadow_9_71"/>
<feBlend mode="normal" in="SourceGraphic" in2="effect1_dropShadow_9_71" result="shape"/>
<feColorMatrix in="SourceAlpha" type="matrix" values="0 0 0 0 0 0 0 0 0 0 0 0 0 0 0 0 0 0 127 0" result="hardAlpha"/>
<feOffset dx="-5.61193" dy="-11.2239"/>
<feGaussianBlur stdDeviation="0.701491"/>
<feComposite in2="hardAlpha" operator="arithmetic" k2="-1" k3="1"/>
<feColorMatrix type="matrix" values="0 0 0 0 0 0 0 0 0 0 0 0 0 0 0 0 0 0 0.19 0"/>
<feBlend mode="overlay" in2="shape" result="effect2_innerShadow_9_71"/>
</filter>
<filter id="filter5_di_9_71" x="229.264" y="55.7922" width="129.409" height="64.9129" filterUnits="userSpaceOnUse" color-interpolation-filters="sRGB">
<feFlood flood-opacity="0" result="BackgroundImageFix"/>
<feColorMatrix in="SourceAlpha" type="matrix" values="0 0 0 0 0 0 0 0 0 0 0 0 0 0 0 0 0 0 127 0" result="hardAlpha"/>
<feOffset dy="5.61193"/>
<feGaussianBlur stdDeviation="2.80596"/>
<feColorMatrix type="matrix" values="0 0 0 0 0 0 0 0 0 0 0 0 0 0 0 0 0 0 0.08 0"/>
<feBlend mode="normal" in2="BackgroundImageFix" result="effect1_dropShadow_9_71"/>
<feBlend mode="normal" in="SourceGraphic" in2="effect1_dropShadow_9_71" result="shape"/>
<feColorMatrix in="SourceAlpha" type="matrix" values="0 0 0 0 0 0 0 0 0 0 0 0 0 0 0 0 0 0 127 0" result="hardAlpha"/>
<feOffset dx="-5.61193" dy="-11.2239"/>
<feGaussianBlur stdDeviation="0.701491"/>
<feComposite in2="hardAlpha" operator="arithmetic" k2="-1" k3="1"/>
<feColorMatrix type="matrix" values="0 0 0 0 0 0 0 0 0 0 0 0 0 0 0 0 0 0 0.42 0"/>
<feBlend mode="overlay" in2="shape" result="effect2_innerShadow_9_71"/>
</filter>
<filter id="filter6_d_9_71" x="151.928" y="0.938411" width="100.123" height="100.123" filterUnits="userSpaceOnUse" color-interpolation-filters="sRGB">
<feFlood flood-opacity="0" result="BackgroundImageFix"/>
<feColorMatrix in="SourceAlpha" type="matrix" values="0 0 0 0 0 0 0 0 0 0 0 0 0 0 0 0 0 0 127 0" result="hardAlpha"/>
<feOffset/>
<feGaussianBlur stdDeviation="5.61193"/>
<feColorMatrix type="matrix" values="0 0 0 0 0 0 0 0 0 0 0 0 0 0 0 0 0 0 0.2 0"/>
<feBlend mode="normal" in2="BackgroundImageFix" result="effect1_dropShadow_9_71"/>
<feBlend mode="normal" in="SourceGraphic" in2="effect1_dropShadow_9_71" result="shape"/>
</filter>
<filter id="filter7_d_9_71" x="192.001" y="40.8648" width="100.123" height="100.123" filterUnits="userSpaceOnUse" color-interpolation-filters="sRGB">
<feFlood flood-opacity="0" result="BackgroundImageFix"/>
<feColorMatrix in="SourceAlpha" type="matrix" values="0 0 0 0 0 0 0 0 0 0 0 0 0 0 0 0 0 0 127 0" result="hardAlpha"/>
<feOffset/>
<feGaussianBlur stdDeviation="5.61193"/>
<feColorMatrix type="matrix" values="0 0 0 0 0 0 0 0 0 0 0 0 0 0 0 0 0 0 0.2 0"/>
<feBlend mode="normal" in2="BackgroundImageFix" result="effect1_dropShadow_9_71"/>
<feBlend mode="normal" in="SourceGraphic" in2="effect1_dropShadow_9_71" result="shape"/>
</filter>
<filter id="filter8_d_9_71" x="152.075" y="80.9384" width="100.123" height="100.123" filterUnits="userSpaceOnUse" color-interpolation-filters="sRGB">
<feFlood flood-opacity="0" result="BackgroundImageFix"/>
<feColorMatrix in="SourceAlpha" type="matrix" values="0 0 0 0 0 0 0 0 0 0 0 0 0 0 0 0 0 0 127 0" result="hardAlpha"/>
<feOffset/>
<feGaussianBlur stdDeviation="5.61193"/>
<feColorMatrix type="matrix" values="0 0 0 0 0 0 0 0 0 0 0 0 0 0 0 0 0 0 0.2 0"/>
<feBlend mode="normal" in2="BackgroundImageFix" result="effect1_dropShadow_9_71"/>
<feBlend mode="normal" in="SourceGraphic" in2="effect1_dropShadow_9_71" result="shape"/>
</filter>
<filter id="filter9_d_9_71" x="112.001" y="41.0121" width="100.123" height="100.123" filterUnits="userSpaceOnUse" color-interpolation-filters="sRGB">
<feFlood flood-opacity="0" result="BackgroundImageFix"/>
<feColorMatrix in="SourceAlpha" type="matrix" values="0 0 0 0 0 0 0 0 0 0 0 0 0 0 0 0 0 0 127 0" result="hardAlpha"/>
<feOffset/>
<feGaussianBlur stdDeviation="5.61193"/>
<feColorMatrix type="matrix" values="0 0 0 0 0 0 0 0 0 0 0 0 0 0 0 0 0 0 0.2 0"/>
<feBlend mode="normal" in2="BackgroundImageFix" result="effect1_dropShadow_9_71"/>
<feBlend mode="normal" in="SourceGraphic" in2="effect1_dropShadow_9_71" result="shape"/>
</filter>
<filter id="filter10_d_9_71" x="118.72" y="7.65687" width="166.686" height="166.686" filterUnits="userSpaceOnUse" color-interpolation-filters="sRGB">
<feFlood flood-opacity="0" result="BackgroundImageFix"/>
<feColorMatrix in="SourceAlpha" type="matrix" values="0 0 0 0 0 0 0 0 0 0 0 0 0 0 0 0 0 0 127 0" result="hardAlpha"/>
<feOffset/>
<feGaussianBlur stdDeviation="8"/>
<feColorMatrix type="matrix" values="0 0 0 0 0 0 0 0 0 0 0 0 0 0 0 0 0 0 0.15 0"/>
<feBlend mode="normal" in2="BackgroundImageFix" result="effect1_dropShadow_9_71"/>
<feBlend mode="normal" in="SourceGraphic" in2="effect1_dropShadow_9_71" result="shape"/>
</filter>
<filter id="filter11_i_9_71" x="150.153" y="39.0904" width="103.821" height="106.627" filterUnits="userSpaceOnUse" color-interpolation-filters="sRGB">
<feFlood flood-opacity="0" result="BackgroundImageFix"/>
<feBlend mode="normal" in="SourceGraphic" in2="BackgroundImageFix" result="shape"/>
<feColorMatrix in="SourceAlpha" type="matrix" values="0 0 0 0 0 0 0 0 0 0 0 0 0 0 0 0 0 0 127 0" result="hardAlpha"/>
<feOffset dy="2.80596"/>
<feGaussianBlur stdDeviation="4.20895"/>
<feComposite in2="hardAlpha" operator="arithmetic" k2="-1" k3="1"/>
<feColorMatrix type="matrix" values="0 0 0 0 0 0 0 0 0 0 0 0 0 0 0 0 0 0 0.34 0"/>
<feBlend mode="overlay" in2="shape" result="effect1_innerShadow_9_71"/>
</filter>
<filter id="filter12_d_9_71" x="85.7469" y="101.001" width="233.553" height="151.119" filterUnits="userSpaceOnUse" color-interpolation-filters="sRGB">
<feFlood flood-opacity="0" result="BackgroundImageFix"/>
<feColorMatrix in="SourceAlpha" type="matrix" values="0 0 0 0 0 0 0 0 0 0 0 0 0 0 0 0 0 0 127 0" result="hardAlpha"/>
<feOffset/>
<feGaussianBlur stdDeviation="28.0596"/>
<feColorMatrix type="matrix" values="0 0 0 0 0.360784 0 0 0 0 0.615686 0 0 0 0 1 0 0 0 1 0"/>
<feBlend mode="normal" in2="BackgroundImageFix" result="effect1_dropShadow_9_71"/>
<feBlend mode="normal" in="SourceGraphic" in2="effect1_dropShadow_9_71" result="shape"/>
</filter>
<linearGradient id="paint0_linear_9_71" x1="202.063" y1="23.6569" x2="202.063" y2="158.343" gradientUnits="userSpaceOnUse">
<stop stop-color="#CECDFF"/>
<stop offset="1" stop-color="#817FEA"/>
</linearGradient>
<linearGradient id="paint1_linear_9_71" x1="202.063" y1="26.4627" x2="202.063" y2="155.537" gradientUnits="userSpaceOnUse">
<stop stop-color="#B9B8FF"/>
<stop offset="1" stop-color="#9F9DF3"/>
</linearGradient>
<linearGradient id="paint2_linear_9_71" x1="202.063" y1="36.2839" x2="202.063" y2="145.716" gradientUnits="userSpaceOnUse">
<stop stop-color="#A59DF5"/>
<stop offset="1" stop-color="#C3BDFF"/>
</linearGradient>
<radialGradient id="paint3_radial_9_71" cx="0" cy="0" r="1" gradientUnits="userSpaceOnUse" gradientTransform="translate(185.685 66.4915) rotate(53.514) scale(78.2229 99.5459)">
<stop stop-color="#5DC6FB"/>
<stop offset="1" stop-color="#3B39F5"/>
</radialGradient>
<radialGradient id="paint4_radial_9_71" cx="0" cy="0" r="1" gradientUnits="userSpaceOnUse" gradientTransform="translate(181.099 61.9056) rotate(51.3402) scale(12.5844 25.1951)">
<stop stop-color="white" stop-opacity="0.6"/>
<stop offset="1" stop-color="white" stop-opacity="0"/>
</radialGradient>
<radialGradient id="paint5_radial_9_71" cx="0" cy="0" r="1" gradientUnits="userSpaceOnUse" gradientTransform="translate(201 171) rotate(90) scale(24.5522 200.626)">
<stop stop-color="#5C9DFF" stop-opacity="0.3"/>
<stop offset="1" stop-color="#5C9DFF" stop-opacity="0"/>
</radialGradient>
<radialGradient id="paint6_radial_9_71" cx="0" cy="0" r="1" gradientUnits="userSpaceOnUse" gradientTransform="translate(201 171) rotate(90) scale(4.91044 129.074)">
<stop stop-color="#5C9DFF" stop-opacity="0.25"/>
<stop offset="1" stop-color="#5C9DFF" stop-opacity="0"/>
</radialGradient>
</defs>
</svg>
