<svg width="36" height="36" viewBox="0 0 36 36" fill="none" xmlns="http://www.w3.org/2000/svg">
<g filter="url(#filter0_i_413_9393)">
<circle cx="18" cy="18" r="16" fill="#6EFA00"/>
</g>
<circle cx="18" cy="18" r="16.75" stroke="black" stroke-width="1.5"/>
<g clip-path="url(#clip0_413_9393)">
<path d="M21.1178 23.456C21.1225 23.504 21.1437 23.5489 21.1779 23.5831L22.9786 25.3838C23.1832 25.5885 23.5328 25.4939 23.6064 25.214L24.1151 23.2794L26.0497 22.7707C26.3296 22.6971 26.4242 22.3476 26.2195 22.1429L24.4188 20.3422C24.3846 20.308 24.3397 20.2868 24.2916 20.2821L21.7546 20.0351L14.8308 13.1112L15.758 12.5467C16.0323 12.3797 15.9834 11.9675 15.6775 11.8693L11.686 10.5883C11.6116 10.5644 11.5302 10.5841 11.475 10.6393C11.4198 10.6945 11.4001 10.776 11.4239 10.8503L12.705 14.8419C12.8032 15.1477 13.2153 15.1966 13.3824 14.9223L13.9469 13.9951L20.8707 20.9189L21.1178 23.456Z" fill="white" stroke="black" stroke-width="0.416667" stroke-linejoin="round"/>
<mask id="path-4-outside-1_413_9393" maskUnits="userSpaceOnUse" x="6.71277" y="7.53647" width="21.2132" height="21.2132" fill="black">
<rect fill="white" x="6.71277" y="7.53647" width="21.2132" height="21.2132"/>
<path fill-rule="evenodd" clip-rule="evenodd" d="M15.1459 20.6691L16.6191 21.5529L23.6475 14.5245C23.6751 14.4969 23.6921 14.4606 23.6956 14.4217L23.9667 11.4401C23.9761 11.3365 23.8892 11.2497 23.7856 11.2591L20.804 11.5301C20.7652 11.5336 20.7288 11.5507 20.7012 11.5782L13.6728 18.6067L14.5567 20.0798L18.3448 16.2916C18.372 16.2645 18.4077 16.2475 18.4459 16.2437L19.0424 16.1834L18.9761 16.8389L15.1459 20.6691ZM16.6201 22.1421L14.3128 20.9885C14.2806 20.9723 14.2544 20.9462 14.2383 20.9139L13.0846 18.6066L12.4954 18.0173L11.9061 18.6066L12.79 20.669L12.79 21.8475L11.0222 23.6153L10.1383 23.9099L10.4066 24.7147C10.4232 24.7645 10.4623 24.8035 10.512 24.8201L11.3168 25.0884L11.6115 24.2045L13.3792 22.4368L14.5578 22.4368L16.6201 23.3206L17.2094 22.7314L16.6201 22.1421Z"/>
</mask>
<path fill-rule="evenodd" clip-rule="evenodd" d="M15.1459 20.6691L16.6191 21.5529L23.6475 14.5245C23.6751 14.4969 23.6921 14.4606 23.6956 14.4217L23.9667 11.4401C23.9761 11.3365 23.8892 11.2497 23.7856 11.2591L20.804 11.5301C20.7652 11.5336 20.7288 11.5507 20.7012 11.5782L13.6728 18.6067L14.5567 20.0798L18.3448 16.2916C18.372 16.2645 18.4077 16.2475 18.4459 16.2437L19.0424 16.1834L18.9761 16.8389L15.1459 20.6691ZM16.6201 22.1421L14.3128 20.9885C14.2806 20.9723 14.2544 20.9462 14.2383 20.9139L13.0846 18.6066L12.4954 18.0173L11.9061 18.6066L12.79 20.669L12.79 21.8475L11.0222 23.6153L10.1383 23.9099L10.4066 24.7147C10.4232 24.7645 10.4623 24.8035 10.512 24.8201L11.3168 25.0884L11.6115 24.2045L13.3792 22.4368L14.5578 22.4368L16.6201 23.3206L17.2094 22.7314L16.6201 22.1421Z" fill="white"/>
<path d="M16.6191 21.5529L16.4047 21.9102C16.5686 22.0086 16.7785 21.9828 16.9137 21.8476L16.6191 21.5529ZM15.1459 20.6691L14.8513 20.3744C14.7606 20.4652 14.7167 20.5926 14.7324 20.72C14.7481 20.8473 14.8215 20.9603 14.9316 21.0264L15.1459 20.6691ZM23.6475 14.5245L23.3529 14.2299L23.6475 14.5245ZM23.6956 14.4217L23.2807 14.384L23.2807 14.384L23.6956 14.4217ZM23.9667 11.4401L24.3816 11.4779L24.3816 11.4779L23.9667 11.4401ZM23.7856 11.2591L23.7479 10.8441L23.7479 10.8441L23.7856 11.2591ZM20.804 11.5301L20.7663 11.1151L20.7663 11.1151L20.804 11.5301ZM20.7012 11.5782L20.9959 11.8729L20.7012 11.5782ZM13.6728 18.6067L13.3782 18.312C13.243 18.4472 13.2171 18.6571 13.3155 18.821L13.6728 18.6067ZM14.5567 20.0798L14.1994 20.2942C14.2654 20.4042 14.3784 20.4777 14.5058 20.4934C14.6331 20.509 14.7606 20.4652 14.8513 20.3744L14.5567 20.0798ZM18.4459 16.2437L18.404 15.8291L18.404 15.8291L18.4459 16.2437ZM19.0424 16.1834L19.4569 16.2253C19.4695 16.1008 19.4255 15.9772 19.337 15.8887C19.2485 15.8003 19.125 15.7562 19.0005 15.7688L19.0424 16.1834ZM18.9761 16.8389L19.2707 17.1335C19.3386 17.0656 19.381 16.9764 19.3906 16.8808L18.9761 16.8389ZM14.3128 20.9885L14.1265 21.3611L14.1265 21.3611L14.3128 20.9885ZM16.6201 22.1421L16.9148 21.8475C16.8831 21.8158 16.8465 21.7895 16.8065 21.7695L16.6201 22.1421ZM14.2383 20.9139L13.8656 21.1003L13.8656 21.1003L14.2383 20.9139ZM13.0846 18.6066L13.4573 18.4203C13.4373 18.3802 13.4109 18.3436 13.3792 18.312L13.0846 18.6066ZM12.4954 18.0173L12.79 17.7227C12.7118 17.6446 12.6059 17.6007 12.4954 17.6007C12.3848 17.6007 12.2789 17.6446 12.2007 17.7227L12.4954 18.0173ZM11.9061 18.6066L11.6115 18.312C11.491 18.4324 11.456 18.6141 11.5231 18.7707L11.9061 18.6066ZM12.79 20.669L13.2067 20.669C13.2066 20.6126 13.1952 20.5567 13.173 20.5049L12.79 20.669ZM12.79 21.8475L13.0846 22.1421C13.1628 22.064 13.2067 21.958 13.2067 21.8475L12.79 21.8475ZM11.0222 23.6153L11.154 24.0106C11.2153 23.9901 11.2711 23.9556 11.3168 23.9099L11.0222 23.6153ZM10.1383 23.9099L10.0066 23.5146C9.90173 23.5496 9.81507 23.6247 9.76565 23.7236C9.71624 23.8224 9.7081 23.9368 9.74305 24.0417L10.1383 23.9099ZM10.4066 24.7147L10.0113 24.8465L10.0113 24.8465L10.4066 24.7147ZM10.512 24.8201L10.3803 25.2154L10.3803 25.2154L10.512 24.8201ZM11.3168 25.0884L11.1851 25.4837C11.2899 25.5186 11.4043 25.5105 11.5032 25.4611C11.602 25.4117 11.6772 25.325 11.7121 25.2202L11.3168 25.0884ZM11.6115 24.2045L11.3168 23.9099C11.2711 23.9556 11.2366 24.0114 11.2162 24.0728L11.6115 24.2045ZM13.3792 22.4368L13.3792 22.0201C13.2687 22.0201 13.1628 22.064 13.0846 22.1421L13.3792 22.4368ZM14.5578 22.4368L14.7219 22.0538C14.67 22.0316 14.6142 22.0201 14.5578 22.0201L14.5578 22.4368ZM16.6201 23.3206L16.456 23.7036C16.6126 23.7707 16.7943 23.7357 16.9148 23.6153L16.6201 23.3206ZM17.2094 22.7314L17.504 23.026C17.6667 22.8633 17.6667 22.5995 17.504 22.4368L17.2094 22.7314ZM16.8334 21.1957L15.3603 20.3118L14.9316 21.0264L16.4047 21.9102L16.8334 21.1957ZM23.3529 14.2299L16.3244 21.2583L16.9137 21.8476L23.9421 14.8191L23.3529 14.2299ZM23.2807 14.384C23.286 14.3258 23.3115 14.2712 23.3529 14.2299L23.9421 14.8191C24.0386 14.7226 24.0982 14.5954 24.1106 14.4595L23.2807 14.384ZM23.5517 11.4024L23.2807 14.384L24.1106 14.4595L24.3816 11.4779L23.5517 11.4024ZM23.8233 11.674C23.6678 11.6882 23.5376 11.5579 23.5517 11.4024L24.3816 11.4779C24.4146 11.1151 24.1107 10.8111 23.7479 10.8441L23.8233 11.674ZM20.8417 11.9451L23.8233 11.674L23.7479 10.8441L20.7663 11.1151L20.8417 11.9451ZM20.9959 11.8729C20.9545 11.9142 20.9 11.9398 20.8417 11.9451L20.7663 11.1151C20.6304 11.1275 20.5031 11.1871 20.4066 11.2836L20.9959 11.8729ZM13.9674 18.9013L20.9959 11.8729L20.4066 11.2836L13.3782 18.312L13.9674 18.9013ZM14.914 19.8654L14.0301 18.3923L13.3155 18.821L14.1994 20.2942L14.914 19.8654ZM18.0502 15.997L14.262 19.7852L14.8513 20.3744L18.6395 16.5863L18.0502 15.997ZM18.404 15.8291C18.2703 15.8426 18.1453 15.902 18.0502 15.997L18.6395 16.5863C18.5987 16.627 18.5452 16.6524 18.4878 16.6582L18.404 15.8291ZM19.0005 15.7688L18.404 15.8291L18.4878 16.6582L19.0843 16.5979L19.0005 15.7688ZM19.3906 16.8808L19.4569 16.2253L18.6278 16.1414L18.5615 16.797L19.3906 16.8808ZM15.4406 20.9637L19.2707 17.1335L18.6815 16.5443L14.8513 20.3744L15.4406 20.9637ZM14.1265 21.3611L16.4338 22.5148L16.8065 21.7695L14.4992 20.6158L14.1265 21.3611ZM13.8656 21.1003C13.922 21.2132 14.0136 21.3047 14.1265 21.3611L14.4992 20.6158C14.5475 20.64 14.5868 20.6792 14.611 20.7276L13.8656 21.1003ZM12.7119 18.7929L13.8656 21.1003L14.611 20.7276L13.4573 18.4203L12.7119 18.7929ZM12.2007 18.312L12.79 18.9012L13.3792 18.312L12.79 17.7227L12.2007 18.312ZM12.2007 18.9012L12.79 18.312L12.2007 17.7227L11.6115 18.312L12.2007 18.9012ZM13.173 20.5049L12.2891 18.4425L11.5231 18.7707L12.407 20.8331L13.173 20.5049ZM13.2067 21.8475L13.2067 20.669L12.3733 20.669L12.3733 21.8475L13.2067 21.8475ZM11.3168 23.9099L13.0846 22.1421L12.4954 21.5529L10.7276 23.3206L11.3168 23.9099ZM10.2701 24.3052L11.154 24.0106L10.8905 23.22L10.0066 23.5146L10.2701 24.3052ZM10.8019 24.583L10.5336 23.7781L9.74305 24.0417L10.0113 24.8465L10.8019 24.583ZM10.6438 24.4248C10.7184 24.4497 10.777 24.5083 10.8019 24.583L10.0113 24.8465C10.0694 25.0207 10.2061 25.1574 10.3803 25.2154L10.6438 24.4248ZM11.4486 24.6931L10.6438 24.4248L10.3803 25.2154L11.1851 25.4837L11.4486 24.6931ZM11.2162 24.0728L10.9216 24.9566L11.7121 25.2202L12.0068 24.3363L11.2162 24.0728ZM13.0846 22.1421L11.3168 23.9099L11.9061 24.4992L13.6739 22.7314L13.0846 22.1421ZM14.5578 22.0201L13.3792 22.0201L13.3792 22.8534L14.5577 22.8534L14.5578 22.0201ZM16.7843 22.9377L14.7219 22.0538L14.3936 22.8197L16.456 23.7036L16.7843 22.9377ZM16.9148 22.4368L16.3255 23.026L16.9148 23.6153L17.504 23.026L16.9148 22.4368ZM16.3255 22.4368L16.9148 23.026L17.504 22.4368L16.9148 21.8475L16.3255 22.4368Z" fill="black" mask="url(#path-4-outside-1_413_9393)"/>
</g>
<defs>
<filter id="filter0_i_413_9393" x="0.5" y="0.5" width="35" height="35.5" filterUnits="userSpaceOnUse" color-interpolation-filters="sRGB">
<feFlood flood-opacity="0" result="BackgroundImageFix"/>
<feBlend mode="normal" in="SourceGraphic" in2="BackgroundImageFix" result="shape"/>
<feColorMatrix in="SourceAlpha" type="matrix" values="0 0 0 0 0 0 0 0 0 0 0 0 0 0 0 0 0 0 127 0" result="hardAlpha"/>
<feMorphology radius="2" operator="erode" in="SourceAlpha" result="effect1_innerShadow_413_9393"/>
<feOffset dy="0.5"/>
<feGaussianBlur stdDeviation="0.5"/>
<feComposite in2="hardAlpha" operator="arithmetic" k2="-1" k3="1"/>
<feColorMatrix type="matrix" values="0 0 0 0 0 0 0 0 0 0 0 0 0 0 0 0 0 0 0.45 0"/>
<feBlend mode="normal" in2="shape" result="effect1_innerShadow_413_9393"/>
</filter>
<clipPath id="clip0_413_9393">
<rect width="20" height="20" fill="white" transform="translate(8 8)"/>
</clipPath>
</defs>
</svg>
