<svg width="50" height="50" viewBox="0 0 50 50" fill="none" xmlns="http://www.w3.org/2000/svg">
<path d="M41.7675 24.5039L19.8925 47.9414C19.6607 48.1888 19.3547 48.3541 19.0207 48.4123C18.6867 48.4705 18.3429 48.4185 18.041 48.2642C17.7392 48.1099 17.4957 47.8615 17.3474 47.5567C17.199 47.2518 17.1539 46.907 17.2187 46.5742L20.082 32.2519L8.82611 28.0254C8.58438 27.935 8.36881 27.7861 8.19866 27.592C8.02851 27.3979 7.90908 27.1647 7.85105 26.9133C7.79301 26.6618 7.79818 26.3998 7.86608 26.1508C7.93398 25.9018 8.06251 25.6735 8.24018 25.4863L30.1152 2.04881C30.347 1.80142 30.653 1.63614 30.987 1.57791C31.321 1.51968 31.6648 1.57166 31.9667 1.726C32.2685 1.88035 32.512 2.12869 32.6603 2.43354C32.8087 2.7384 32.8538 3.08323 32.789 3.416L29.9179 17.7539L41.1738 21.9746C41.4137 22.0656 41.6276 22.2144 41.7964 22.4077C41.9652 22.6009 42.0838 22.8329 42.1417 23.0829C42.1997 23.3329 42.1951 23.5933 42.1285 23.8412C42.0618 24.089 41.9352 24.3166 41.7597 24.5039H41.7675Z" fill="#00F8F8"/>
</svg>
