<svg width="336" height="396" viewBox="0 0 336 396" fill="none" xmlns="http://www.w3.org/2000/svg">
<path d="M197.36 18.7196C194.71 13.5713 190.446 9.4334 185.22 6.93965C177.79 3.42965 169.22 3.58966 161 3.81966C154 4.01966 146.18 4.52965 141.28 9.55965C136.38 14.5896 136.05 21.9696 135.88 28.7896L139.38 35.9696L199.8 35.4497C200.843 29.7563 199.986 23.8778 197.36 18.7196Z" fill="#8C572F"/>
<path d="M193.22 88.6699L141.36 89.5399C139.5 92.5399 140.1 96.64 142.23 99.45C144.51 102.199 147.706 104.031 151.23 104.61C154.714 105.17 158.252 105.311 161.77 105.03L184.49 104.11C187.49 103.99 190.68 103.76 192.8 101.7C193.582 100.849 194.176 99.843 194.543 98.7471C194.91 97.6512 195.042 96.4902 194.93 95.34C194.685 93.0457 194.109 90.799 193.22 88.6699Z" fill="#8C572F"/>
<path d="M174.8 8.68957C168.44 4.81957 154.02 7.48955 147.67 10.1696C141.32 12.8496 138.58 17.9096 135.87 24.4196C134.87 26.7496 136.74 28.8096 138.87 29.3596H138.69C139.411 29.615 140.199 29.615 140.92 29.3596L141.17 29.2696H141.34C141.663 29.142 141.964 28.963 142.23 28.7396C142.377 28.6354 142.511 28.5146 142.63 28.3796C146.72 23.7696 150.95 20.5996 156.95 18.8796C162.95 17.1596 170.44 18.2095 175.47 14.0995C177.27 12.6495 176.53 9.73957 174.8 8.68957Z" fill="#D5B381"/>
<path d="M198.87 25.0493C198.814 24.0979 198.499 23.1798 197.96 22.394C197.421 21.6081 196.677 20.9842 195.81 20.5893C195.87 19.3875 195.501 18.2034 194.768 17.2489C194.035 16.2945 192.987 15.6318 191.81 15.3793C191.252 15.2396 190.662 15.3208 190.162 15.6059C189.663 15.891 189.293 16.3579 189.13 16.9093C188.13 19.9093 187.58 21.6993 183.99 21.9593C180.68 22.1993 177.7 20.9593 174.39 21.9093C169.54 23.3493 164.39 29.5593 166.82 34.5793C167.54 36.0693 169.31 36.4293 170.82 36.1893C171.958 35.9807 172.984 35.3703 173.71 34.4693C182.71 36.1093 200.09 39.6893 198.87 25.0493Z" fill="#592710"/>
<path d="M191.16 89.0001C187.16 88.4301 184.16 89.3101 180.26 90.1301C175.898 90.9396 171.476 91.3812 167.04 91.4501C163.42 91.5901 159.79 91.7501 156.17 91.5901C152.25 91.4201 148.5 89.9501 144.61 90.0601C141.85 90.1301 139.14 93.5801 141.11 96.1701C141.844 97.13 142.713 97.9788 143.69 98.6901C143.526 99.6391 143.706 100.615 144.197 101.444C144.688 102.272 145.459 102.898 146.37 103.21C161.73 109.8 178.75 108.56 192.37 98.5801C195.54 96.2501 196.12 89.6801 191.16 89.0001Z" fill="#592710"/>
<path d="M133.61 125.68C138.03 126.95 142.53 128.03 146.87 129.6C153.32 131.93 159.87 134.18 166.74 134.78C173.45 135.37 179.81 133.78 185.99 131.28C189.17 130 192.29 128.57 195.47 127.28C198.1 126.28 200.85 125.6 203.53 124.76C206.26 125.04 209.15 123.46 208.84 120.23C208.885 119.683 208.824 119.133 208.66 118.61C208.02 112.93 208.02 107.3 212.59 103.03C216.7 99.1999 222.48 99.9699 226.53 96.5999C227.05 96.0642 227.341 95.3467 227.341 94.5999C227.341 93.853 227.05 93.1355 226.53 92.5999C223.97 89.9299 220.22 89.7499 216.46 90.7499C216.242 90.4397 215.935 90.2026 215.58 90.0699C212.47 88.8199 208.58 89.4499 205.31 89.5599C201.914 89.7489 198.529 90.1094 195.17 90.6399C194.17 90.7799 194.17 91.8099 194.68 92.4299C194.137 92.8781 193.69 93.4317 193.367 94.0573C193.044 94.6829 192.851 95.3676 192.8 96.0699C192.699 97.1017 192.522 98.1245 192.27 99.1299C191.377 99.3549 190.587 99.8768 190.03 100.61C189.57 101.2 189.03 101.76 188.58 102.31C188.311 102.364 188.047 102.437 187.79 102.53L185.54 103.33C174.69 106.89 163.38 106.14 152.1 104.84C151.328 104.739 150.543 104.85 149.83 105.16C146.429 102.555 143.498 99.3893 141.16 95.7999C144.36 92.9999 141.31 87.3899 137.3 89.7999C136.58 90.2299 135.87 90.6098 135.15 90.9698C132.55 88.3998 123.88 89.8399 120.6 90.3099C116.65 89.2299 112.6 89.4799 109.51 92.2099C109.242 92.4807 109.04 92.8089 108.918 93.1696C108.795 93.5302 108.757 93.9139 108.805 94.2916C108.854 94.6693 108.987 95.0311 109.196 95.3495C109.404 95.668 109.683 95.9349 110.01 96.1299C115.01 98.5799 120.55 97.9699 124.51 102.57C128.47 107.17 128.15 112.64 127.29 118.1C126.746 118.329 126.281 118.713 125.954 119.205C125.628 119.697 125.454 120.274 125.454 120.865C125.454 121.455 125.628 122.033 125.954 122.524C126.281 123.016 126.746 123.401 127.29 123.63C127.862 124.734 128.846 125.568 130.029 125.951C131.212 126.335 132.498 126.237 133.61 125.68Z" fill="#6795B8"/>
<path d="M280.52 204C277.325 197.44 273.328 191.303 268.62 185.73C264.37 180.65 258.04 174.36 251.1 178.95C245.7 182.51 244.25 190.76 241.03 196.03C237.123 202.441 231.959 207.996 225.85 212.36C219.642 216.778 212.501 219.71 204.98 220.93C197.07 222.23 189.06 221.38 181.24 223.21C177.69 224.04 178.24 228.81 181.24 229.89C190.07 233.05 200.59 232.89 210.24 230.62C210.883 231.66 211.905 232.409 213.09 232.71C216.335 233.428 219.69 233.493 222.96 232.9C223.394 233.626 223.996 234.239 224.714 234.688C225.432 235.136 226.246 235.408 227.09 235.48C244.027 237.27 260.708 240.959 276.82 246.48C277.84 246.828 278.951 246.796 279.95 246.39L280.16 248.15C280.66 252.46 287.25 254.28 288.38 249.27C291.7 234.22 287.06 217.56 280.52 204Z" fill="#6795B8"/>
<path d="M251.59 313.71C246.9 315.64 244.05 320.48 240.84 324.28C237.009 328.841 232.947 333.204 228.67 337.35C221.931 343.841 214.562 349.643 206.67 354.67C206.167 354.354 205.584 354.191 204.99 354.2C199.3 354.2 193.77 357.73 188.45 359.46C182.497 361.398 176.298 362.472 170.04 362.65C163.67 362.84 157.67 361.79 151.45 360.65C150.11 360.4 145.99 359.65 143.45 360.49C139.74 358.02 135.64 355.26 131.52 355.66C131.092 355.671 130.672 355.778 130.291 355.974C129.91 356.169 129.578 356.447 129.319 356.788C129.06 357.128 128.881 357.523 128.794 357.942C128.708 358.361 128.717 358.795 128.82 359.21C129.89 365.21 137.61 369.32 142.44 372.14C148.196 375.614 154.519 378.044 161.12 379.32C175.43 381.81 188.76 376.47 201.25 369.94C212.751 363.912 223.423 356.419 233 347.65C238.061 343.08 242.743 338.107 247 332.78C250.45 328.43 255.82 322.71 255.79 316.87C255.73 315 253.61 312.87 251.59 313.71Z" fill="#6795B8"/>
<path d="M199.09 72.9992C204.3 76.2492 211.09 75.6392 217.09 75.6292C223.09 75.6192 230.09 76.3392 235.01 72.6292C236.91 71.1892 237.32 68.3292 235.01 66.9692C229.66 63.8092 223.01 65.0492 217.09 65.1592C211.17 65.2692 204.6 64.4293 199.09 67.2793C196.81 68.4393 197.08 71.7192 199.09 72.9992Z" fill="#6795B8"/>
<path d="M51.5202 252.999C71.0702 229.929 130.35 233.129 173.29 233.129C216.23 233.129 270.06 232.489 286.4 258.449C302.74 284.409 211.42 360.999 166.56 360.999C121.7 360.999 36.1402 284.699 51.5202 252.999Z" fill="#F0357D"/>
<path d="M278.9 250.159C278.874 249.053 278.497 247.984 277.825 247.106C277.153 246.227 276.22 245.584 275.16 245.269C274.988 244.628 274.689 244.027 274.283 243.502C273.876 242.977 273.369 242.539 272.791 242.212C272.213 241.885 271.575 241.677 270.916 241.599C270.256 241.521 269.588 241.576 268.95 241.759L263.44 243.159C262.972 242.09 262.146 241.217 261.103 240.693C260.06 240.169 258.867 240.026 257.73 240.289C257.323 239.048 256.466 238.006 255.326 237.369C254.187 236.731 252.849 236.546 251.58 236.849C248.3 237.582 245.026 238.326 241.76 239.079C241.377 238.257 240.739 237.58 239.941 237.149C239.143 236.719 238.227 236.557 237.33 236.689C235.71 236.889 234.09 237.099 232.47 237.319C232.094 236.488 231.463 235.799 230.667 235.353C229.872 234.906 228.955 234.726 228.05 234.839C225.19 235.169 222.35 235.559 219.5 235.969C218.886 235.345 218.127 234.883 217.292 234.623C216.456 234.363 215.569 234.314 214.71 234.479C212.61 234.839 210.51 235.219 208.41 235.599C207.989 234.883 207.363 234.309 206.612 233.952C205.861 233.596 205.021 233.473 204.2 233.599C200.28 234.069 196.37 234.599 192.48 235.249C192.046 234.007 191.183 232.96 190.047 232.296C188.911 231.633 187.575 231.396 186.28 231.629C180.5 232.529 174.763 233.593 169.07 234.819C167.992 234.387 166.804 234.309 165.68 234.599L163.55 235.099C163.46 232.539 161.85 230.249 158.55 230.669L157.16 230.869C153.006 231.443 148.89 232.139 144.81 232.959C137.172 232.852 129.558 233.839 122.2 235.889C111.471 235.924 100.765 236.877 90.1996 238.739C84.3335 239.723 78.5354 241.076 72.8396 242.789C67.8396 244.349 62.5396 245.789 58.4596 249.159C57.7831 248.82 57.0234 248.683 56.271 248.764C55.5187 248.845 54.8057 249.141 54.2172 249.617C53.6287 250.093 53.1895 250.728 52.9523 251.446C52.7151 252.165 52.6899 252.937 52.8796 253.669C52.5524 254.109 52.3158 254.61 52.1836 255.142C52.0514 255.674 52.0263 256.227 52.1096 256.769C54.3596 272.509 73.8996 273.239 86.1896 274.089C104.19 275.329 122.28 276.279 140.35 276.809C175.777 278.01 211.246 277.068 246.56 273.989C260.2 272.739 282.94 271.149 286.99 254.489C288.21 249.329 282.26 247.079 278.9 250.159Z" fill="#FC9ABF"/>
<path d="M123.93 290.67C120.93 283.15 86.5396 286.21 90.4996 293.77C96.0996 304.48 117.24 324.31 133.5 333.18C140.88 337.18 146.71 330.06 143.81 326.03C135.749 315.109 129.072 303.232 123.93 290.67Z" fill="#FC9ABF"/>
<path d="M249.63 304.749C240.56 308.619 233.34 315.589 223.93 318.989C214.26 322.489 203.93 322.929 193.93 324.549C184.195 325.986 174.976 329.844 167.12 335.769C163.12 338.769 159.2 342.109 154.66 344.279C149.77 346.629 144.97 346.469 139.66 346.509C136.52 346.509 134.66 350.599 137.04 352.839C138.472 354.184 140.165 355.22 142.015 355.884C143.864 356.548 145.829 356.825 147.79 356.699C147.57 358.869 148.88 361.149 151.55 360.969C155.167 360.676 158.717 359.833 162.08 358.469C162.893 359.489 164.009 360.225 165.267 360.57C166.525 360.915 167.86 360.852 169.08 360.389C171.66 359.256 174.213 358.079 176.74 356.859L176.95 357.049C177.89 359.529 180.29 361.479 183.13 360.349C187.13 358.756 191.02 357.033 194.8 355.179C207.52 349.299 219.8 342.489 229.69 332.319C231.91 330.406 234.097 328.429 236.25 326.389C236.87 325.814 237.328 325.086 237.58 324.279C244.58 320.529 250.91 315.449 253.78 307.959C254.81 305.349 251.62 303.899 249.63 304.749Z" fill="#A8144D"/>
<path d="M233.55 51.8302C239.06 53.3402 244.8 56.0901 247.85 61.1701C250.85 66.0701 250.29 72.3501 245.48 75.8101C241.24 78.8601 235.96 79.4401 231.87 82.8101C230.29 84.1101 231.4 86.3502 232.96 86.9501C239.78 89.5401 248.69 86.8601 253.96 82.0601C257.073 79.1938 259.119 75.3533 259.76 71.1701C261.062 71.5266 262.452 71.3534 263.627 70.6882C264.802 70.0231 265.665 68.9201 266.03 67.6201C268.82 58.5201 265.13 47.6202 257.11 42.3302C256.678 42.0268 256.19 41.8119 255.674 41.6979C255.159 41.5839 254.626 41.5731 254.106 41.666C253.587 41.759 253.091 41.9539 252.647 42.2395C252.203 42.5251 251.82 42.8958 251.52 43.3302C247.81 41.9602 243.77 41.5301 240.52 43.1001C233.7 40.4101 223.1 37.4801 217.34 42.4901C216.15 43.4901 216.49 45.2301 217.34 46.3101C220.9 50.8301 228.38 50.4302 233.55 51.8302Z" fill="white"/>
<path d="M205.39 46.5295C205.968 45.9249 206.29 45.1207 206.29 44.2845C206.29 43.4482 205.968 42.6442 205.39 42.0395C201.87 38.4495 197.27 39.2395 192.61 39.3795L177.86 39.8395L145.21 40.8395L113.62 41.8395C103.06 42.1695 92.4501 41.9795 82.2801 45.1295C79.5601 45.9695 79.2801 50.1295 82.2801 50.8895C92.2801 53.3195 102.36 52.6195 112.56 52.3095L145.21 51.3095L176.81 50.3095L192.61 49.8195C197.21 49.7095 202.12 50.3095 205.39 46.5295Z" fill="white"/>
<path d="M305.6 272.44C301.19 275.44 298.54 280.57 295.6 284.94C292.19 289.94 289.05 295.2 285.67 300.26C282.49 305.02 279.19 309.71 275.82 314.35C272.9 318.35 267.7 323.62 268.27 328.9C268.4 330.19 269.34 331.62 270.84 331.48C276.11 331 279.62 325.94 282.7 322.06C286.54 317.22 290.16 312.23 293.64 307.13C297.12 302.03 300.34 296.99 303.32 291.69C306.13 286.69 309.76 280.69 309.89 274.89C309.93 272.84 307.39 271.21 305.6 272.44Z" fill="white"/>
<path d="M326.48 191.269C326.142 190.693 325.621 190.246 325 189.999C324.28 187.719 323.39 185.529 322.63 183.579C320.409 177.695 317.513 172.087 314 166.869C310.725 162.312 307.043 158.061 303 154.169C303.465 153.231 303.637 152.174 303.494 151.136C303.352 150.099 302.901 149.128 302.2 148.349C293.3 137.729 279.31 131.209 266.2 127.529C258.891 125.574 251.442 124.183 243.92 123.369C236.38 122.459 227.92 120.769 220.71 123.819C220.261 124.008 219.873 124.315 219.585 124.708C219.298 125.101 219.123 125.565 219.08 126.049C213.54 125.709 204.24 124.779 201.26 129.879C201.106 130.138 201.024 130.433 201.024 130.734C201.024 131.035 201.106 131.331 201.26 131.589C204.61 136.009 212.56 134.979 217.54 135.589C224.905 136.453 232.191 137.894 239.33 139.899C246.18 141.822 252.831 144.397 259.19 147.589C262.296 149.169 265.333 150.889 268.3 152.749C271.51 154.749 274.61 157.629 278.41 158.319C278.5 158.324 278.59 158.324 278.68 158.319C282.76 163.649 287.91 168.179 292.23 173.319C294.623 176.166 296.88 179.116 299 182.169C300.43 184.239 301.53 186.229 303.4 187.409C304.4 192.669 308.13 197.769 309.86 202.729C312.112 209.095 313.566 215.716 314.19 222.439C314.794 228.866 314.626 235.342 313.69 241.729C312.75 247.889 309.77 254.529 310.89 260.729C311.4 263.569 314.89 263.729 316.71 262.269C319.42 260.069 321.02 256.619 322.07 252.929C322.489 253.043 322.932 253.032 323.346 252.899C323.759 252.766 324.125 252.516 324.4 252.179C330.91 244.749 330.32 231.939 330.57 222.599C330.86 212.999 331.5 199.889 326.48 191.269Z" fill="white"/>
<path d="M121.42 146C119.513 145.694 117.59 145.5 115.66 145.42C114.677 145.448 113.719 145.114 112.967 144.48C112.215 143.847 111.723 142.959 111.585 141.985C111.446 141.012 111.671 140.022 112.216 139.204C112.761 138.386 113.588 137.797 114.54 137.55C121.35 135.23 128.16 133.29 132.54 132.67C135.73 132.22 135.26 127.44 132.54 126.67C126.198 124.95 119.619 124.275 113.06 124.67C112.905 124.029 112.594 123.436 112.154 122.944C111.714 122.452 111.16 122.076 110.54 121.85C101.8 118.39 90.0699 121.66 81.4299 124.24C71.4268 127.384 61.8173 131.666 52.7899 137C44.4882 141.592 36.5959 146.888 29.1998 152.83C23.2898 157.73 14.4499 165.83 14.3499 174.06C14.3209 174.901 14.5475 175.731 14.9999 176.44C12.8825 179.653 11.0935 183.07 9.65991 186.64C6.57773 194.424 4.55953 202.587 3.65991 210.91C2.69579 219.564 2.8908 228.308 4.23987 236.91C5.39987 244.59 7.30991 254.12 13.5299 259.33C13.8471 259.613 14.2246 259.819 14.6335 259.933C15.0425 260.048 15.4722 260.067 15.8899 259.99C19.135 270.705 23.5763 281.02 29.1299 290.74C33.2856 298.059 37.8876 305.116 42.9099 311.87C47.8199 318.51 52.6399 325.46 59.4099 330.25C62.9499 332.75 66.3398 328.04 64.8198 324.83C61.6498 318.11 56.3599 312.57 51.9799 306.57C47.5999 300.57 43.3698 294.32 39.5898 287.87C31.9198 274.76 26.0299 260.68 23.1699 245.72C22.1699 240.42 20.8499 233.4 21.5599 226.46C21.6254 225.818 21.9171 225.22 22.3832 224.773C22.8493 224.326 23.4592 224.059 24.1038 224.021C24.7484 223.982 25.3857 224.174 25.9016 224.563C26.4176 224.951 26.7785 225.51 26.9199 226.14C26.9154 226.19 26.9154 226.24 26.9199 226.29C27.0832 226.851 27.3885 227.36 27.8063 227.768C28.224 228.175 28.74 228.469 29.3043 228.618C29.8686 228.768 30.4621 228.77 31.0272 228.623C31.5923 228.476 32.11 228.186 32.5299 227.78C35.7299 224.41 36.8799 219.19 38.6499 214.97C39.1099 213.9 39.7799 212.49 40.5499 210.97C41.7312 208.536 43.5923 206.497 45.9083 205.098C48.2243 203.7 50.8958 203.002 53.5999 203.09C58.2499 203.31 65.0999 200.73 74.8699 193.3C81.9799 187.91 85.2499 181.98 86.3799 176.72C87.2303 172.596 89.1747 168.777 92.0092 165.662C94.8436 162.548 98.4637 160.254 102.49 159.02C109.49 156.92 116.88 154.7 121.38 153.23C124.58 152.11 125.27 146.66 121.42 146Z" fill="white"/>
<path d="M87.2399 344C82.2399 339.76 76.6399 333.19 69.7799 332.51C67.7799 332.31 66.7799 334.51 67.0299 336.11C68.0299 343.03 76.3199 348.55 81.3399 352.64C86.3599 356.73 92.9399 363.92 99.7199 363.73C100.267 363.723 100.805 363.592 101.293 363.347C101.782 363.101 102.208 362.748 102.539 362.313C102.871 361.879 103.099 361.374 103.207 360.838C103.314 360.302 103.298 359.749 103.16 359.22C101.09 352.56 92.3299 348.28 87.2399 344Z" fill="white"/>
<path d="M122.57 191.409C120.84 186.669 115.77 186.169 111.7 188.079C102.06 192.609 94.9499 202.259 90.2699 211.519C87.9899 216.029 84.8699 221.729 84.6599 226.859C84.4799 231.359 88.0299 236.589 92.8999 234.299C92.9435 234.279 92.9839 234.252 93.0199 234.219C93.2917 234.286 93.57 234.323 93.8498 234.329C98.9398 235.689 106.41 235.509 111.43 232.759C111.615 233.175 111.891 233.545 112.237 233.84C112.583 234.136 112.99 234.351 113.43 234.469C118.2 235.619 121.91 231.739 123.26 227.469C125.13 221.469 122.39 215.359 122.46 209.309C122.51 203.689 124.55 196.839 122.57 191.409Z" fill="white"/>
<path d="M27.8299 238.469C27.4199 243.409 28.3399 249.64 31.8299 253.39C33.3299 255.02 36.76 254.389 37.13 251.989C37.86 247.339 36.55 241.989 35.56 237.429C34.57 232.869 28.1799 234.299 27.8299 238.469Z" fill="white"/>
<path d="M143.36 144.46C139.54 144.21 133.65 143.76 131 147.06C130.522 147.557 130.255 148.22 130.255 148.91C130.255 149.599 130.522 150.262 131 150.76C134.18 153.63 139.34 152.76 143.36 152.86C146.07 152.86 152.17 153.41 152.27 149.22C152.37 145.03 146.21 144.64 143.36 144.46Z" fill="white"/>
<path d="M167.92 110.67C181.1 110.67 199.84 106.13 198.25 92.5696C199.62 92.3196 200.99 92.0196 202.4 91.6796C202.814 91.5339 203.173 91.2633 203.427 90.9051C203.68 90.5468 203.817 90.1186 203.817 89.6796C203.817 89.2405 203.68 88.8123 203.427 88.454C203.173 88.0958 202.814 87.8252 202.4 87.6796C196.07 86.1496 177.89 85.5596 167.92 85.5596C157.92 85.5596 139.77 86.1496 133.44 87.6796C133.026 87.8252 132.667 88.0958 132.413 88.454C132.159 88.8123 132.023 89.2405 132.023 89.6796C132.023 90.1186 132.159 90.5468 132.413 90.9051C132.667 91.2633 133.026 91.5339 133.44 91.6796C134.84 92.0196 136.22 92.3196 137.58 92.5696C136 106.13 154.74 110.67 167.92 110.67ZM148.4 99.1296C146.7 97.5621 145.338 95.6631 144.4 93.5496C146.88 93.7896 158.88 94.0796 167.89 94.0796C176.89 94.0796 188.89 93.7896 191.38 93.5496C190.437 95.6606 189.076 97.5588 187.38 99.1296C181.88 103.68 175.09 103.19 167.87 103.19C160.69 103.19 153.9 103.68 148.4 99.1296Z" fill="#04070F"/>
<path d="M334.4 201.86C330.82 177.43 316.88 153.7 298.17 137.74C285.571 126.995 270.316 119.832 254 117C246.212 115.624 238.306 115.037 230.4 115.25C230.4 112.03 229.72 108.69 230.08 105.47C230.56 101.31 232.67 97.2397 233.51 93.1397C239.82 92.6597 246.41 91.9097 252.38 89.9097C264.38 85.9097 270.16 71.3997 270.32 59.5997C270.48 47.7997 264.14 39.6997 252.79 36.9897C240.02 33.9397 226.46 33.5297 213.4 32.8797C210.287 32.7264 207.177 32.6031 204.07 32.5097C204.23 23.1697 203.87 13.7597 196.28 7.18973C188.85 0.749727 179.14 0.8497 167.91 0.8497C156.68 0.8497 146.97 0.749727 139.53 7.18973C132.09 13.6297 131.59 23.1897 131.75 32.5097C128.63 32.6097 125.52 32.7331 122.42 32.8797C109.35 33.5297 95.7902 33.9397 83.0202 36.9897C71.6802 39.6997 65.3502 47.6797 65.5002 59.5997C65.6502 71.5197 71.4201 85.8597 83.4401 89.9097C89.4401 91.9097 96.0002 92.6597 102.3 93.1397C103.14 97.2397 105.3 101.31 105.73 105.47C106.1 108.69 105.46 112.03 105.42 115.25C97.5147 115.037 89.6078 115.623 81.8201 117C65.5042 119.836 50.2496 127.002 37.6502 137.75C18.9502 153.75 5.00022 177.44 1.42022 201.87C-0.779783 216.95 1.42016 232.5 4.61016 247.27C8.21718 263.906 14.4484 279.862 23.0701 294.54C40.1501 323.6 64.5302 348.54 92.3902 367.39C114.33 382.25 139.39 395.58 167.91 395.58C196.43 395.58 221.49 382.25 243.43 367.39C271.29 348.54 295.67 323.6 312.74 294.54C321.369 279.864 327.604 263.908 331.21 247.27C334.43 232.49 336.61 216.94 334.4 201.86ZM146.4 14.4297C152.04 9.95972 159.16 10.6997 167.88 10.6997C176.6 10.6997 183.71 9.95972 189.35 14.4297C194.71 18.6697 195.27 25.7597 194.84 32.2397C185.84 32.0397 178.75 31.9797 167.84 31.9797C156.93 31.9797 149.84 32.0397 140.84 32.2397C140.53 25.7597 141.08 18.6697 146.44 14.4297H146.4ZM308.4 281.86C293.179 309.739 272.066 333.968 246.53 352.86C224.29 369.39 196.42 385.47 167.91 385.47C139.4 385.47 111.53 369.39 89.2802 352.86C63.745 333.97 42.6349 309.741 27.4202 281.86C13.9202 256.86 3.53022 226.56 9.67022 197.86C12.2267 186.079 17.0896 174.92 23.9788 165.028C30.868 155.135 39.6472 146.704 49.8102 140.22C61.5688 132.647 74.8747 127.805 88.7502 126.05C106.34 123.94 122.88 128.05 140.22 129.92C143.43 130.26 144.51 125.37 141.84 123.92C133.647 119.735 124.77 117.053 115.63 116C116.38 111.83 115.63 106.92 115.01 103.31C114.532 100.035 113.666 96.8294 112.43 93.7597C116.56 93.7597 120.71 93.2597 123.64 90.9397C123.989 90.5909 124.185 90.1179 124.185 89.6247C124.185 89.1315 123.989 88.6585 123.64 88.3097C118.7 84.3097 109.98 84.8197 103.96 84.0997C97.9401 83.3797 90.5902 83.0997 85.0202 80.4597C76.2302 76.2097 72.4202 60.7497 76.0202 52.2097C79.0202 45.0397 90.3502 44.8298 96.8902 44.0298C120.37 41.1298 142.46 41.2297 167.94 41.2297C193.42 41.2297 215.5 41.1298 238.94 44.0298C245.48 44.8298 256.81 45.0297 259.81 52.2097C263.39 60.7497 259.58 76.2097 250.81 80.4597C245.25 83.1297 237.9 83.3697 231.87 84.0997C225.84 84.8297 217.14 84.3197 212.2 88.3097C211.851 88.6585 211.656 89.1315 211.656 89.6247C211.656 90.1179 211.851 90.5909 212.2 90.9397C215.13 93.2597 219.27 93.7997 223.41 93.7597C222.171 96.8291 221.302 100.035 220.82 103.31C220.22 106.92 219.46 111.83 220.2 116C211.059 117.079 202.185 119.788 194 124C191.34 125.42 192.42 130.31 195.62 130C212.96 128.11 229.51 124 247.1 126.13C260.955 127.868 274.246 132.682 286 140.22C296.162 146.704 304.94 155.135 311.827 165.028C318.715 174.921 323.576 186.079 326.13 197.86C332.3 226.56 321.9 256.83 308.41 281.86H308.4Z" fill="#04070F"/>
<path d="M288.76 164.999C281.93 158.329 273.76 151.3 264.76 147.83C254.65 143.93 244.76 143.639 234.29 145.989C232.61 146.369 233.14 148.689 234.68 148.819C243.722 149.709 252.617 151.724 261.16 154.819C270.52 158.149 279.07 161.379 286.1 168.679C292.5 175.329 298.04 183.82 300.28 192.84C302.46 201.58 302.86 210.58 305.07 219.28C305.53 221.13 307.94 220.84 308.53 219.28C312.02 210.08 309.67 199.279 305.68 190.559C301.38 181.129 296.28 172.349 288.76 164.999Z" fill="#04070F"/>
<path d="M249.11 232.38C222.49 227.21 196.66 227.32 167.92 227.32C139.18 227.32 113.35 227.21 86.7199 232.38C72.7199 235.09 47.0899 241.68 44.7799 258.99C42.7799 273.99 55.3699 290.16 63.8799 301.19C77.5699 318.92 95.3599 334.249 113.88 346.669C122.728 352.679 132.175 357.756 142.07 361.82C158.606 368.593 177.143 368.593 193.68 361.82C203.575 357.756 213.022 352.679 221.87 346.669C240.44 334.249 258.22 318.92 271.87 301.19C280.39 290.19 292.98 273.99 290.97 258.99C288.75 241.68 263.08 235.09 249.11 232.38ZM279.87 271.82C276.81 279.05 272.23 285.55 267.27 291.58C254.32 307.568 239.337 321.795 222.7 333.9C213.645 340.571 203.927 346.291 193.7 350.969C185.23 354.719 178.51 356.919 167.92 356.919C157.33 356.919 150.61 354.719 142.13 350.969C131.902 346.291 122.184 340.571 113.13 333.9C96.4975 321.789 81.5147 307.563 68.56 291.58C63.56 285.58 59.0299 279.05 55.9599 271.82C54.1499 267.56 52.3799 261.769 54.0699 257.979C56.7199 251.979 64.91 248.45 70.93 246.39C80.93 243.01 91.54 241.39 101.93 240.13C123.79 237.49 143.27 237.13 167.93 237.13C192.59 237.13 212.04 237.47 233.93 240.13C244.34 241.39 255 243.01 264.93 246.39C270.93 248.45 279.13 252.029 281.78 257.979C283.45 261.769 281.68 267.56 279.87 271.82Z" fill="#04070F"/>
<path d="M74.6198 154.88C83.1655 151.785 92.0644 149.769 101.11 148.88C102.64 148.75 103.17 146.43 101.49 146.05C91.0398 143.7 81.1398 143.99 71.0298 147.89C62.0298 151.36 53.9098 158.39 47.0298 165.06C39.5098 172.4 34.4098 181.18 30.0298 190.67C26.0298 199.4 23.6898 210.19 27.1698 219.39C27.7598 220.95 30.1698 221.24 30.6398 219.39C32.8498 210.69 33.2398 201.69 35.4198 192.95C37.6698 183.95 43.1998 175.44 49.5998 168.79C56.7198 161.44 65.2698 158.21 74.6198 154.88Z" fill="#04070F"/>
</svg>
