<svg width="15" height="21" viewBox="0 0 15 21" fill="none" xmlns="http://www.w3.org/2000/svg">
<path fill-rule="evenodd" clip-rule="evenodd" d="M14.4591 13.5724C14.3029 17.6949 11.2309 20.9844 7.46267 20.9844C3.59449 20.9844 0.458745 17.4021 0.458745 13.2432C0.458745 12.6873 0.449729 11.5764 1.20384 9.70205C1.65515 8.58032 1.93821 7.87563 2.09796 7.23146C2.18573 6.87743 2.35644 6.31496 2.84306 7.23146C3.13 7.77186 3.1411 8.54911 3.1411 8.54911C3.1411 8.54911 4.20867 7.64364 4.92933 5.91382C5.98581 3.37792 5.14288 1.86205 4.85482 0.807934C4.75513 0.443275 4.69254 -0.21209 5.37639 0.0667574C6.07321 0.350957 7.91539 1.77624 8.87835 3.27852C10.2527 5.42258 10.7411 7.47852 10.7411 7.47852C10.7411 7.47852 11.1812 6.87488 11.3372 6.24323C11.5134 5.52997 11.516 4.82355 12.0822 5.58449C12.6207 6.30812 13.4204 7.66802 13.8705 8.96088C14.6878 11.3087 14.4591 13.5724 14.4591 13.5724Z" fill="url(#paint0_linear_44_414)"/>
<path fill-rule="evenodd" clip-rule="evenodd" d="M7.46277 20.9845C4.78794 20.9845 2.61963 18.588 2.61963 15.6316C2.61963 13.8478 3.27003 12.7647 4.62364 11.296C5.49034 10.3557 6.30153 9.20066 6.64629 8.41419C6.71417 8.25937 6.86863 7.45255 7.46418 8.39723C7.7766 8.89266 8.26635 9.77375 8.58041 10.5257C9.1218 11.8222 9.251 13.0787 9.251 13.0787C9.251 13.0787 9.78159 12.7331 10.1451 11.8434C10.2623 11.5566 10.4993 10.471 11.1617 11.5564C11.6477 12.353 12.3154 13.7851 12.3059 15.6316C12.3059 18.588 10.1375 20.9845 7.46277 20.9845Z" fill="#FC9502"/>
<path fill-rule="evenodd" clip-rule="evenodd" d="M7.53711 15.1375C8.22632 15.1375 8.22632 16.5481 9.10181 18.4316C9.68478 19.6857 8.81279 20.9845 7.53711 20.9845C6.26143 20.9845 5.59985 19.8415 5.59985 18.4316C5.59985 17.0217 6.84789 15.1375 7.53711 15.1375Z" fill="#FCE202"/>
<defs>
<linearGradient id="paint0_linear_44_414" x1="7.47317" y1="20.9999" x2="7.47317" y2="0.015369" gradientUnits="userSpaceOnUse">
<stop stop-color="#FF4C0D"/>
<stop offset="1" stop-color="#FC9502"/>
</linearGradient>
</defs>
</svg>
