<svg width="17" height="19" viewBox="0 0 17 19" fill="none" xmlns="http://www.w3.org/2000/svg">
<path d="M0.432749 13.6514C0.354077 13.4464 0.278374 13.2413 0.204156 13.0362C-0.355454 11.476 0.346655 10.0683 0.973062 8.69019L1.8815 6.69519C2.06408 6.29323 2.34462 5.95526 2.689 5.71901L5.3015 3.92745L7.88283 0.977608C8.04306 0.793828 8.24755 0.664596 8.47212 0.605186L10.2296 0.135967C11.0802 -0.0887986 11.4453 -0.0527048 11.7199 0.37878C12.6714 1.87175 13.3082 3.10058 14.1558 4.58862C14.6174 5.39909 15.6832 7.2612 15.75 7.38425C15.9549 7.76487 15.8717 8.08315 15.8643 8.51956C15.8465 9.52526 16.0068 10.5359 16.3393 11.4727C16.4388 11.7516 16.5531 12.0272 16.605 12.3209C16.6525 12.585 16.5887 14.2634 16.5397 14.831C16.4996 15.2921 15.514 17.0131 15.1607 17.2214C14.7718 17.4511 11.8892 18.6225 11.2524 18.8227C10.6156 19.0228 7.85462 18.3256 6.42072 18.0828C5.53455 17.9335 4.64689 17.7825 3.76072 17.6332C2.99181 17.5036 2.22736 17.6021 1.79689 16.744C1.29072 15.74 0.836499 14.708 0.432749 13.6514Z" fill="url(#paint0_linear_47_433)"/>
<path d="M3.75914 17.6315C4.64531 17.7808 5.53297 17.9317 6.41914 18.081C6.88078 18.1598 7.48047 18.2845 8.10242 18.4124C7.68383 17.8645 7.0589 17.2148 6.64031 16.6668C6.54976 16.5487 6.45773 16.4256 6.42508 16.2747C6.39093 16.1139 6.42953 15.9482 6.46961 15.7891C6.59726 15.2673 6.62992 14.7013 6.75758 14.1796C5.9664 14.383 4.14359 14.7702 3.99367 14.7227C3.82742 14.6702 3.69234 14.5373 3.5632 14.4077C2.62359 13.4594 1.88883 12.5029 1.17039 11.3463C1.08578 11.2101 0.999685 11.069 0.968513 10.9066C0.938826 10.754 0.961091 10.5965 0.983357 10.4439C1.03679 10.0633 1.15554 9.00836 1.25054 8.07812L0.971482 8.69008C0.34656 10.0682 -0.355549 11.4759 0.205544 13.0361C0.279763 13.2428 0.355466 13.4479 0.434138 13.6513C0.836798 14.7076 1.2912 15.7389 1.79531 16.7406C2.22429 17.6003 2.99023 17.5019 3.75914 17.6315Z" fill="url(#paint1_linear_47_433)"/>
<path d="M11.7318 0.396944C11.5492 0.159054 11.193 0.204991 10.8189 0.582335L9.47406 2.06874C9.39094 2.16062 9.34641 2.28694 9.35383 2.41655L9.49781 5.45171C9.50227 5.55343 9.53641 5.64858 9.59578 5.72569C10.0738 6.34257 11.763 9.30718 12.2528 9.30718C12.7412 9.30718 13.5947 7.2039 14.0296 7.21538C14.1038 7.21702 14.4913 7.24327 14.8698 7.37124C15.223 7.48937 15.3611 6.95288 15.2884 6.57226C14.9232 5.93241 14.4319 5.07437 14.1558 4.58874C13.3112 3.10726 12.6759 1.88171 11.7318 0.396944Z" fill="url(#paint2_linear_47_433)"/>
<path d="M5.4736 6.37198C5.9679 6.28995 7.61704 5.97987 7.92728 5.84534C8.5329 5.5812 9.06728 4.45573 9.42056 3.85034C9.42056 3.85034 9.54228 5.82401 9.42056 6.59511C9.33595 7.13159 9.01681 9.93706 8.69618 10.6097L6.75759 14.1797L3.90907 11.0314C3.66712 10.7639 3.51274 10.6228 3.42517 10.2439C3.22478 9.37761 2.8611 8.09956 2.85962 7.34651C2.85814 6.59347 4.69431 6.49995 5.4736 6.37198Z" fill="url(#paint3_linear_47_433)"/>
<path d="M9.07628 2.16708C8.88628 1.91606 8.83284 1.56005 8.89815 1.24177C8.95308 0.975986 9.45183 0.462471 9.61362 0.300049L8.47214 0.605205C8.24781 0.665287 8.04348 0.794419 7.88284 0.977627L5.30151 3.92747C5.30151 3.92747 7.8012 2.77575 9.07628 2.16708Z" fill="url(#paint4_linear_47_433)"/>
<path d="M16.3378 11.4727C16.0886 10.7694 15.9355 10.029 15.8836 9.27588C15.0316 9.92064 14.5551 10.7574 13.1835 10.9624C12.8199 11.0166 12.2573 11.0921 11.9025 11.1954C11.4632 11.3234 11.0564 11.6827 10.3974 11.7499C9.92831 11.7992 8.74526 11.7614 8.92339 12.0535C9.10151 12.3455 10.1628 12.9345 10.4271 13.1724C10.8026 13.5054 11.1292 13.8975 11.4424 14.3011C11.6057 14.5128 11.8506 15.0263 12.1356 15.1657C12.2083 15.2018 12.2855 15.2117 12.3627 15.1854C12.4978 15.1411 12.6061 15.0328 12.7115 14.9295C13.7334 13.9289 14.882 13.0987 16.1211 12.4653C16.2532 12.398 16.3957 12.3225 16.461 12.1781C16.4892 12.1142 16.5011 12.0272 16.5026 11.9337C16.4507 11.7795 16.3928 11.6269 16.3378 11.4727Z" fill="url(#paint5_linear_47_433)"/>
<path d="M16.6036 12.3209C16.5843 12.2142 16.5561 12.1092 16.5234 12.0059C16.4982 12.1027 16.4433 12.2093 16.3245 12.3094C15.9831 12.5981 14.6665 13.0427 13.2177 14.4455C12.2722 15.3609 12.2707 15.484 12.0673 16.493C11.7348 18.1451 11.2064 18.7455 11.1055 18.8473C11.1604 18.8407 11.2094 18.8325 11.2495 18.8194C11.8877 18.6209 14.7689 17.4478 15.1578 17.2181C15.5111 17.0098 16.4967 15.2888 16.5368 14.8277C16.5873 14.2634 16.6511 12.585 16.6036 12.3209Z" fill="url(#paint6_linear_47_433)"/>
<defs>
<linearGradient id="paint0_linear_47_433" x1="12.1127" y1="2.21628" x2="4.00024" y2="20.8645" gradientUnits="userSpaceOnUse">
<stop stop-color="#9E958E"/>
<stop offset="0.46" stop-color="#8E8884"/>
<stop offset="1" stop-color="#757575"/>
</linearGradient>
<linearGradient id="paint1_linear_47_433" x1="0.422115" y1="18.4743" x2="6.74298" y2="12.1152" gradientUnits="userSpaceOnUse">
<stop stop-color="#37474F"/>
<stop offset="0.612" stop-color="#42565F" stop-opacity="0.192"/>
<stop offset="0.757" stop-color="#455A64" stop-opacity="0"/>
</linearGradient>
<linearGradient id="paint2_linear_47_433" x1="13.8846" y1="9.70782" x2="9.55417" y2="1.01674" gradientUnits="userSpaceOnUse">
<stop stop-color="#9E958E"/>
<stop offset="0.442" stop-color="#AEA298"/>
<stop offset="1" stop-color="#C9B8A9"/>
</linearGradient>
<linearGradient id="paint3_linear_47_433" x1="4.67382" y1="15.9163" x2="6.47404" y2="7.08027" gradientUnits="userSpaceOnUse">
<stop stop-color="#4C5C64"/>
<stop offset="1" stop-color="#455A64" stop-opacity="0"/>
</linearGradient>
<linearGradient id="paint4_linear_47_433" x1="5.30181" y1="2.11392" x2="9.61392" y2="2.11392" gradientUnits="userSpaceOnUse">
<stop stop-color="#4C5C64"/>
<stop offset="1" stop-color="#455A64" stop-opacity="0"/>
</linearGradient>
<linearGradient id="paint5_linear_47_433" x1="12.06" y1="11.3327" x2="17.2976" y2="13.2859" gradientUnits="userSpaceOnUse">
<stop stop-color="#9E958E"/>
<stop offset="0.25" stop-color="#AEA298"/>
<stop offset="0.566" stop-color="#C9B8A9"/>
</linearGradient>
<linearGradient id="paint6_linear_47_433" x1="14.6407" y1="19.0026" x2="13.3809" y2="14.5068" gradientUnits="userSpaceOnUse">
<stop stop-color="#37474F"/>
<stop offset="0.808" stop-color="#42565F" stop-opacity="0.192"/>
<stop offset="1" stop-color="#455A64" stop-opacity="0"/>
</linearGradient>
</defs>
</svg>
