<svg width="26" height="26" viewBox="0 0 26 26" fill="none" xmlns="http://www.w3.org/2000/svg">
<path d="M19.9621 5.74338C19.9621 5.74338 23.1571 23.4585 8.1645 17.541C2.247 2.54837 19.9621 5.74338 19.9621 5.74338Z" fill="#23A24D"/>
<path d="M20.2323 8.61655C20.1761 6.94933 19.9607 5.75168 19.9607 5.75168C19.9607 5.75168 2.24554 2.55667 8.16307 17.5493C9.00653 17.8822 9.78947 18.1366 10.5216 18.3273C8.20386 9.42776 15.8453 8.46853 20.2323 8.61655Z" fill="#00834B"/>
<path d="M19.858 14.6956C20.27 13.5516 20.5212 12.1949 20.6045 10.6636C20.7459 8.06546 20.3602 5.88814 20.3437 5.79671L20.2772 5.42805L19.9085 5.36156C19.8558 5.35202 18.5976 5.12818 16.8521 5.07928L17.075 5.85455C18.2106 5.88641 19.1459 5.99705 19.6388 6.06645C19.7411 6.79381 19.9331 8.48703 19.8299 10.3838C19.7047 12.6842 19.1064 15.7546 16.9668 17.3171C15.1228 18.6637 12.4075 18.7052 8.88946 17.4442L10.3508 15.9828L13.4354 16.478L13.3124 15.7123L10.9936 15.34L12.4683 13.8653L15.5529 14.3605L15.43 13.5948L13.1111 13.2225L14.5859 11.7478L17.6704 12.243L17.5475 11.4773L15.2286 11.105L16.9487 9.3849L16.3203 8.75649L14.6002 10.4766L14.228 8.15777L13.4623 8.03485L13.9575 11.1194L12.4828 12.5941L12.1105 10.2753L11.3448 10.1524L11.84 13.237L10.3653 14.7117L9.99306 12.3929L9.22736 12.2699L9.72254 15.3545L8.26116 16.8159C7.12823 13.6547 7.04561 11.137 8.01874 9.3256C9.48992 6.58718 13.107 5.92565 15.8824 5.85295L15.6215 5.07764C12.7021 5.15416 8.88998 5.86346 7.308 8.80835C6.19838 10.8738 6.33879 13.7484 7.72308 17.354L7.24537 17.8318L7.87379 18.4602L8.35164 17.9823C12.3534 19.5188 15.4445 19.5233 17.5404 17.9926C18.558 17.2493 19.3378 16.1401 19.858 14.6956Z" fill="black"/>
<path d="M7.42016 18.9138L6.79175 18.2854L5.12786 19.9493L5.75628 20.5777L7.42016 18.9138Z" fill="black"/>
<path d="M17.0486 7.82028L16.2122 6.98389L15.7572 7.43888L16.5936 8.27527L17.0486 7.82028Z" fill="white"/>
<path d="M18.9084 8.47018L18.072 7.63379L17.617 8.08878L18.4534 8.92517L18.9084 8.47018Z" fill="white"/>
<path d="M18.0898 14.3061L17.2534 13.4697L16.7984 13.9247L17.6348 14.7611L18.0898 14.3061Z" fill="white"/>
<path d="M15.5544 16.0058L14.718 15.1694L14.263 15.6244L15.0994 16.4608L15.5544 16.0058Z" fill="black"/>
<path d="M9.81515 10.8715L8.97876 10.0352L8.52377 10.4901L9.36016 11.3265L9.81515 10.8715Z" fill="white"/>
<path d="M12.6538 8.86984L11.8174 8.03345L11.3624 8.48844L12.1988 9.32483L12.6538 8.86984Z" fill="black"/>
</svg>
