<svg width="19" height="27" viewBox="0 0 19 27" fill="none" xmlns="http://www.w3.org/2000/svg">
<path d="M18.0488 9.84424C17.8451 9.39099 17.515 9.00613 17.098 8.73579C16.681 8.46545 16.1949 8.32111 15.698 8.32007H13.3601L15.078 4.10924C15.2315 3.7226 15.2893 3.30461 15.2466 2.89083C15.2039 2.47704 15.0618 2.0797 14.8326 1.73257C14.5876 1.37296 14.2581 1.07894 13.873 0.876268C13.4879 0.673595 13.059 0.568459 12.6238 0.570073H7.01801C6.48818 0.557417 5.96727 0.708026 5.52594 1.00148C5.08461 1.29492 4.74422 1.71701 4.55093 2.21049L0.378842 12.5438C0.229441 12.9297 0.174925 13.3458 0.219882 13.7572C0.264838 14.1685 0.407951 14.5631 0.637175 14.9076C0.882212 15.2672 1.21171 15.5612 1.59678 15.7639C1.98186 15.9665 2.41077 16.0717 2.84593 16.0701H6.41093L4.07301 24.7759C3.99512 25.06 4.0167 25.3622 4.13417 25.6324C4.25163 25.9026 4.45793 26.1245 4.71884 26.2613C4.92026 26.3579 5.14132 26.4065 5.36468 26.4034C5.55124 26.4034 5.7356 26.363 5.90506 26.285C6.07453 26.2069 6.22507 26.0931 6.34634 25.9513L17.713 12.5567C18.017 12.1812 18.2097 11.728 18.269 11.2485C18.3284 10.7691 18.2521 10.2825 18.0488 9.84424Z" fill="#1695D4"/>
</svg>
