<svg width="30" height="26" viewBox="0 0 30 26" fill="none" xmlns="http://www.w3.org/2000/svg">
<path d="M27.5827 10.4772L27.1158 12.3139L21.1173 18.3124H19.7474L27.5827 10.4772ZM17.2423 18.3124L27.9053 7.64941L26.5287 7.6562L15.8724 18.3124H17.2423ZM23.6224 18.3124H24.9923L25.7973 17.5074L26.2623 15.6726L23.6224 18.3124ZM11.9974 18.3124H13.3673L24.0235 7.6562H22.6537L11.9974 18.3124ZM12.3985 7.6562H11.0287L7.43754 11.2474L7.73494 12.3198L12.3985 7.6562ZM16.2735 7.6562H14.9037L8.27938 14.2805L8.57679 15.3529L16.2735 7.6562ZM8.52351 7.6562H7.1537L6.59473 8.21516L6.89213 9.28757L8.52351 7.6562ZM18.7787 7.6562L9.1222 17.3127L9.39926 18.3124H9.49226L20.1485 7.6562H18.7787Z" fill="#FFC5BB"/>
<path d="M12.9062 22.6719C12.9062 23.4827 12.2552 24.125 11.4531 24.125C10.651 24.125 10 23.474 10 22.6719C10 21.8697 10.6462 21.2188 11.4531 21.2188C12.2601 21.2188 12.9062 21.861 12.9062 22.6719ZM9.03125 22.6719C9.03125 24.0078 10.1182 25.0938 11.4531 25.0938C12.7881 25.0938 13.875 24.0078 13.875 22.6719C13.875 21.336 12.7861 20.25 11.4531 20.25C10.1201 20.25 9.03125 21.336 9.03125 22.6719ZM29.375 7.27069C29.405 7.12828 29.467 6.97909 29.375 6.86672C29.283 6.75338 29.0369 6.6875 28.8906 6.6875H6.17053L4.65444 1.22956C4.59631 1.02031 4.40547 0.875 4.1875 0.875H0.796875C0.5295 0.875 0.3125 1.092 0.3125 1.35938C0.3125 1.62675 0.5295 1.84375 0.796875 1.84375H3.81937L8.56431 18.9267C8.62244 19.1359 8.81328 19.2812 9.03125 19.2812H25.9844C26.2178 19.2812 26.4029 19.1137 26.4494 18.8938L29.375 7.27069ZM6.43984 7.65625H28.2958L25.5911 18.3125H9.39937L6.43984 7.65625ZM24.5312 22.6719C24.5312 23.4827 23.8803 24.125 23.0781 24.125C22.276 24.125 21.625 23.474 21.625 22.6719C21.625 21.8697 22.2712 21.2188 23.0781 21.2188C23.8851 21.2188 24.5312 21.861 24.5312 22.6719ZM20.6562 22.6719C20.6562 24.0078 21.7432 25.0938 23.0781 25.0938C24.4131 25.0938 25.5 24.0078 25.5 22.6719C25.5 21.336 24.4111 20.25 23.0781 20.25C21.7451 20.25 20.6562 21.336 20.6562 22.6719Z" fill="#2675A6"/>
</svg>
