<svg width="19" height="19" viewBox="0 0 19 19" fill="none" xmlns="http://www.w3.org/2000/svg">
<path d="M6.33339 1.30938C6.33339 1.30938 8.4445 0.712158 8.97228 0.712158C9.50005 0.712158 11.6112 1.30938 11.6112 1.30938C11.6112 1.30938 13.7223 3.69716 14.2501 3.69716C14.2501 3.69716 15.3056 3.69716 16.3612 4.89105C17.4167 6.08494 17.4167 8.47271 17.4167 8.47271C17.4167 8.47271 18.4723 10.8605 18.4723 12.0544C18.4723 13.2483 17.9445 14.4422 17.4167 15.0394C16.8889 15.6366 14.7778 16.2333 14.7778 16.2333C14.7778 16.2333 14.2501 17.4272 13.1945 18.0244C10.0278 18.6216 7.91672 18.0244 7.91672 18.0244L6.86117 16.8305C6.86117 16.8305 3.16672 16.2333 2.63894 16.2333C2.11117 16.2333 0.527832 13.8455 0.527832 13.2483C0.527832 12.651 0.527832 10.8605 1.05561 9.06938C2.11117 7.27827 2.63894 6.6816 2.63894 6.6816C2.63894 6.6816 2.11117 5.48827 2.63894 4.29438C3.6945 3.10049 5.80561 2.50327 5.80561 2.50327L6.33339 1.30938Z" fill="#66757F"/>
<path d="M6.5493 1.49447C6.5493 1.49447 8.46672 0.927246 8.96336 0.927246C9.46 0.927246 11.597 1.56558 11.597 1.56558C11.597 1.56558 13.4832 3.80002 13.9799 3.80002C13.9799 3.80002 15.0555 3.77502 16.0493 4.89947C17.0431 6.02391 16.9507 8.02002 16.9507 8.02002C16.9507 8.02002 17.9446 10.2678 17.9446 11.3917C17.9446 12.5156 17.4479 13.64 16.9513 14.2022C16.4546 14.7645 14.4676 15.3261 14.4676 15.3261C14.4676 15.3261 13.9709 16.45 12.9771 17.0122C9.99675 17.5745 8.00966 17.0122 8.00966 17.0122L7.01639 15.8884C7.01639 15.8884 3.53939 15.3261 3.04275 15.3261C2.54611 15.3261 1.05566 13.0778 1.05566 12.5156C1.05566 11.9534 1.05566 10.2672 1.5523 8.58114C2.54611 6.89502 3.04275 6.33336 3.04275 6.33336C3.04275 6.33336 2.41575 5.42058 2.91239 4.29614C3.90566 3.17225 6.01625 2.59391 6.01625 2.59391L6.5493 1.49447Z" fill="#99AAB5"/>
<path d="M6.74025 1.95112C6.74025 1.95112 8.53364 1.45557 8.99808 1.45557C9.46253 1.45557 11.4612 2.01279 11.4612 2.01279C11.4612 2.01279 13.2251 3.96334 13.6895 3.96334C13.6895 3.96334 14.6954 3.94168 15.6249 4.92279C16.5538 5.9039 16.4683 7.64668 16.4683 7.64668C16.4683 7.64668 16.6134 10.005 16.9897 10.0761C17.945 10.2561 17.0778 12.1389 16.6134 12.6295C16.1489 13.12 12.9137 13.3389 12.9137 13.3389C12.9137 13.3389 13.0277 14.8695 12.0983 15.3606C9.31106 15.8511 8.10561 15.4972 8.10561 15.4972L7.17672 14.5161C7.17672 14.5161 4.91256 12.24 4.44811 12.24C3.98367 12.24 1.60181 12.0628 1.60181 11.5722C1.60181 11.0817 1.60181 9.60946 2.06625 8.13779C2.99514 6.66612 3.46011 6.17501 3.46011 6.17501C3.46011 6.17501 2.87375 5.37779 3.3382 4.39668C4.26708 3.41557 6.24097 2.91057 6.24097 2.91057L6.74025 1.95112Z" fill="#CCD6DD"/>
<path d="M3.3198 5.99829L5.42088 7.02662L4.32311 7.84218L2.06738 8.13774L3.3198 5.99829Z" fill="#99AAB5"/>
<path d="M0.843018 11.2117C0.843018 11.2117 1.43888 13.3039 1.59563 13.5522C1.75238 13.8006 3.75899 13.6233 4.00968 13.6233C4.26038 13.6233 5.48324 14.2972 5.48324 14.2972C5.48324 14.2972 3.85293 14.7583 3.28874 14.6872C2.72455 14.6161 1.25785 14.3389 1.12538 13.9422C0.992906 13.5456 0.843018 11.2117 0.843018 11.2117Z" fill="#66757F"/>
<path d="M3.85277 4.33166C4.11138 4.24555 5.89052 3.445 6.26682 3.48055C6.64313 3.51611 8.24229 4.47333 7.86599 4.79277C7.48968 5.11222 5.42027 4.86389 4.82493 4.86389C4.2296 4.86389 3.31971 4.50889 3.85277 4.33166ZM2.59877 8.62277C2.75868 8.30555 4.88774 8.19722 4.88774 8.19722C4.88774 8.19722 7.64696 9.36777 7.64696 9.545C7.64696 9.72222 5.13896 10.9283 4.88774 10.9633C4.63652 10.9983 2.47315 8.87111 2.59877 8.62277ZM8.77535 10.7861C8.72574 10.5056 9.84146 8.8 10.061 8.65833C10.2806 8.51666 13.2277 7.70055 13.7291 7.70055C14.2305 7.70055 15.8296 8.94166 15.8613 9.19C15.8924 9.43833 14.4505 11.1406 14.0742 11.2822C13.6979 11.4244 8.86929 11.3178 8.77535 10.7861ZM11.5974 6.10444C11.4786 6.40277 14.4194 6.81389 14.7329 6.67166C15.0464 6.53 15.6106 5.57222 15.5167 5.32389C15.4227 5.07555 14.5133 4.36611 14.0431 4.43722C13.5723 4.50889 11.8792 5.39555 11.5974 6.10444ZM9.27727 1.74277C9.5401 1.80222 11.2839 2.23944 11.5034 2.59389C11.723 2.94833 10.469 4.04777 10.1238 4.08333C9.77918 4.11889 7.4274 2.59389 7.17671 2.41666C6.92602 2.23944 8.80649 1.63611 9.27727 1.74277Z" fill="#E1E8ED"/>
<path d="M6.89439 16.4245C6.67484 16.07 7.02001 14.8995 7.20789 15.0411C7.39578 15.1828 7.96051 15.6083 7.99164 15.9633C8.02278 16.3178 8.58751 16.9917 8.99495 17.2045C9.40239 17.4172 11.6286 17.4172 12.0049 17.2756C12.3812 17.1339 13.2589 16.3533 13.4784 15.8922C13.698 15.4311 13.9513 15.3972 14.4675 15.3256C14.9836 15.2539 15.4819 15.7945 14.7778 16.2333C14.0743 16.6722 13.3217 17.4528 12.444 17.63C11.5663 17.8072 8.71312 17.9495 8.2112 17.7367C7.70928 17.5239 6.89439 16.4245 6.89439 16.4245Z" fill="#66757F"/>
<path d="M10.6613 13.8632C10.3968 13.7137 10.2981 12.477 10.4343 12.3743C10.5705 12.2715 11.8414 12.477 12.1364 12.5282C12.4314 12.5793 14.2243 12.4254 14.4058 12.6309C14.5874 12.8365 15.0249 13.5898 15.1774 14.0426C15.33 14.4959 14.3378 14.4276 13.9519 14.3248C13.5661 14.222 11.0244 14.0687 10.6613 13.8632ZM6.64328 5.67871C6.98792 5.67871 8.43033 5.64315 8.74383 5.67871C9.05733 5.71426 10.0606 6.70704 9.59039 6.81371C9.12014 6.92037 7.86614 7.27482 7.67772 7.31037C7.48931 7.34593 6.80003 6.67204 6.58047 6.49482C6.36145 6.31704 6.2675 5.67871 6.64328 5.67871ZM10.5942 4.68593C10.7684 4.39093 11.4408 4.29593 11.4719 4.61482C11.5031 4.93426 11.3152 5.64315 10.9389 5.6076C10.5626 5.5726 10.343 5.11148 10.5942 4.68593ZM8.7755 12.1687C9.08847 12.1293 9.68486 12.062 9.68486 12.3459C9.68486 12.6298 9.30856 12.7359 8.86945 12.7004C8.43086 12.6654 8.49314 12.2043 8.7755 12.1687Z" fill="#99AAB5"/>
<path d="M7.55244 8.23283C7.82636 7.98506 8.7753 7.94895 8.99486 8.05561C9.21441 8.16228 8.74416 8.90672 8.4618 8.94228C8.17944 8.97728 7.23894 8.51617 7.55244 8.23283Z" fill="#E1E8ED"/>
<path d="M13.8231 13.6582C14.1361 13.5698 14.8892 13.4809 14.8575 13.7293C14.8264 13.9776 14.5129 14.4387 14.2617 14.4032C14.0104 14.3676 13.5724 13.7293 13.8231 13.6582ZM11.7853 16.1409C12.1316 16.0804 12.663 15.7865 12.6319 16.1409C12.6007 16.4954 12.2244 16.9565 11.8165 16.8859C11.409 16.8148 11.3779 16.2115 11.7853 16.1409Z" fill="#66757F"/>
</svg>
