<svg width="23" height="25" viewBox="0 0 23 25" fill="none" xmlns="http://www.w3.org/2000/svg">
<path d="M12.0118 22.5413C9.51582 25.2543 5.53788 25.2543 3.0419 22.5413C0.545928 19.8283 0.545928 15.5044 3.0419 12.7914L7.40984 7.1958L12.0118 12.7914C14.7028 15.5044 14.7808 19.8707 12.0118 22.5413Z" fill="#63D3FD"/>
<path d="M11.2318 22.5413C8.73579 25.2543 4.75785 25.2543 2.26187 22.5413C-0.234101 19.8283 -0.234101 15.5044 2.26187 12.7914L6.62982 7.1958L11.2318 12.7914C13.9227 15.5044 14.0008 19.8707 11.2318 22.5413Z" fill="#63D3FD"/>
<path d="M11.2318 22.5413C8.73579 25.2543 4.75785 25.2543 2.26187 22.5413C-0.234101 19.8283 -0.234101 15.5044 2.26187 12.7914L6.62982 7.1958L11.2318 12.7914C13.9227 15.5044 14.0008 19.8707 11.2318 22.5413Z" fill="#3DB9F9"/>
<path d="M10.062 22.5413C7.56605 25.2543 4.75809 25.2543 2.26212 22.5413C-0.233857 19.8283 -0.233857 15.5044 2.26212 12.7914L6.63006 7.1958L10.062 12.7914C12.753 15.5044 12.831 19.8707 10.062 22.5413Z" fill="#63D3FD"/>
<path d="M20.9038 12.4947C19.0709 14.4871 16.0679 14.4871 14.2349 12.4947C12.4409 10.46 12.4409 7.11109 14.2349 5.03394L17.5499 0.41333L20.9038 4.99154C22.6588 6.94154 22.6588 10.2904 20.9038 12.4947Z" fill="#3DB9F9"/>
<path d="M21.6839 12.4947C19.8509 14.4871 16.8479 14.4871 15.0149 12.4947C13.2209 10.46 13.2209 7.11109 15.0149 5.03394L18.3299 0.41333L21.6839 4.99154C23.4388 6.94154 23.4388 10.2904 21.6839 12.4947Z" fill="#63D3FD"/>
<path d="M19.7338 12.4947C17.9009 14.4871 16.0679 14.4871 14.2349 12.4947C12.4409 10.46 12.4409 7.11109 14.2349 5.03394L17.5499 0.41333L18.8369 3.12635C19.2659 4.05897 19.7728 4.90674 20.3188 5.79696C21.4888 7.74696 21.2938 10.5447 19.7338 12.4947Z" fill="#63D3FD"/>
<path d="M17.5497 14.4023C16.2237 14.4023 14.9367 13.8512 13.9227 12.7914C12.0118 10.5871 12.0118 6.98388 13.9227 4.73718L17.2377 0.158966C17.3937 -0.0529888 17.7057 -0.0529888 17.8617 0.158966L21.1767 4.73718C23.0877 6.81433 23.0877 10.4176 21.1767 12.7914C20.1627 13.8512 18.8757 14.4023 17.5497 14.4023ZM17.5497 1.09154L14.5077 5.24584C12.8698 7.19584 12.8308 10.2904 14.5077 12.198C16.1847 14.0208 18.9147 14.0208 20.6307 12.198C22.2686 10.1632 22.2686 7.06868 20.6307 5.28824L20.5917 5.24584L17.5497 1.09154Z" fill="black"/>
<path d="M17.5498 12.7067C16.6138 12.7067 15.7169 12.3252 15.0538 11.6045C13.6889 10.0361 13.7279 7.45021 15.0538 5.88172L15.0929 5.83932C15.2488 5.66977 15.4829 5.66977 15.6388 5.83932C15.7948 6.00888 15.7948 6.26323 15.6388 6.43279L15.5998 6.47519C14.5079 7.74692 14.5079 9.78167 15.5608 11.0534C16.0678 11.6045 16.7698 11.9012 17.5108 11.9012C17.7448 11.9012 17.9008 12.0708 17.9008 12.3251C17.9009 12.5795 17.7838 12.7067 17.5498 12.7067Z" fill="black"/>
<path d="M6.74693 24.9999C4.95294 24.9999 3.27597 24.2369 1.989 22.838C0.701977 21.4815 0 19.6163 0 17.6663C0 15.7163 0.701977 13.8935 1.989 12.4946L6.35694 6.89905C6.43496 6.81424 6.55194 6.77189 6.66892 6.72949C6.7859 6.72949 6.90293 6.77189 6.9809 6.85665L11.5438 12.4522C12.9478 13.8511 13.7278 15.7163 13.7278 17.6663C13.7278 19.6163 12.9478 21.4391 11.5438 22.7956C10.2179 24.2369 8.54089 24.9999 6.74693 24.9999ZM6.62991 7.83162L2.53498 13.0881C1.404 14.3174 0.779995 15.9707 0.779995 17.6663C0.779995 19.3619 1.404 21.0152 2.53498 22.2445C3.66597 23.4738 5.14794 24.1521 6.74693 24.1521C8.34593 24.1521 9.8279 23.4738 10.9589 22.2445C12.2069 21.0576 12.8699 19.4467 12.9089 17.7511C12.9089 16.0131 12.2459 14.3598 10.9589 13.1305C10.9589 13.1305 10.9199 13.1305 10.9199 13.0881L6.62991 7.83162Z" fill="black"/>
<path d="M6.747 23.3043C5.38201 23.3043 4.05603 22.7108 3.08104 21.651C2.10605 20.5912 1.56006 19.1924 1.56006 17.6663C1.56006 16.1826 2.10605 14.7413 3.08104 13.6815L3.12005 13.6391C3.27604 13.4696 3.51005 13.4696 3.66604 13.6391C3.82203 13.8087 3.82203 14.063 3.66604 14.2326L3.62703 14.275C2.80802 15.1652 2.34005 16.3945 2.34005 17.6663C2.34005 18.938 2.80807 20.1249 3.62703 21.0576C4.44603 21.9478 5.57701 22.4564 6.747 22.4564C6.98101 22.4564 7.137 22.626 7.137 22.8804C7.137 23.1347 6.942 23.3043 6.747 23.3043Z" fill="black"/>
</svg>
