<svg width="402" height="253" viewBox="0 0 402 253" fill="none" xmlns="http://www.w3.org/2000/svg">
<g filter="url(#filter0_di_9_4)">
<path d="M94.3323 96.4452C94.0562 94.5976 95.6287 93.0011 97.4802 93.2493L204.872 107.643C206.358 107.842 207.425 109.174 207.295 110.668L205.028 136.582C204.888 138.18 203.439 139.336 201.85 139.118L100.673 125.222C99.439 125.052 98.4643 124.089 98.2801 122.857L94.3323 96.4452Z" fill="#FF7B01"/>
</g>
<g filter="url(#filter1_di_9_4)">
<path d="M73.0977 73.4132C72.8216 71.5656 74.3941 69.9691 76.2456 70.2173L183.638 84.6106C185.124 84.8098 186.191 86.1424 186.06 87.6363L183.793 113.55C183.653 115.148 182.205 116.304 180.616 116.086L79.4388 102.19C78.2044 102.02 77.2296 101.057 77.0454 99.8247L73.0977 73.4132Z" fill="#FFA001"/>
</g>
<g filter="url(#filter2_di_9_4)">
<path d="M52.4388 43.8152C52.1626 41.9676 53.7351 40.3712 55.5866 40.6193L162.979 55.0127C164.465 55.2119 165.532 56.5445 165.401 58.0383L163.134 83.9525C162.994 85.5503 161.546 86.706 159.957 86.4878L58.7798 72.5918C57.5455 72.4222 56.5707 71.459 56.3865 70.2267L52.4388 43.8152Z" fill="#FECC50"/>
</g>
<g filter="url(#filter3_di_9_4)">
<path d="M307.668 96.4452C307.944 94.5976 306.372 93.0011 304.52 93.2493L197.128 107.643C195.642 107.842 194.575 109.174 194.705 110.668L196.973 136.582C197.112 138.18 198.561 139.336 200.15 139.118L301.327 125.222C302.561 125.052 303.536 124.089 303.72 122.857L307.668 96.4452Z" fill="#FF7B01"/>
</g>
<g filter="url(#filter4_di_9_4)">
<path d="M328.902 73.4132C329.178 71.5657 327.606 69.9692 325.754 70.2173L218.362 84.6107C216.876 84.8099 215.809 86.1425 215.94 87.6363L218.207 113.55C218.347 115.148 219.795 116.304 221.384 116.086L322.561 102.19C323.795 102.02 324.77 101.057 324.954 99.8247L328.902 73.4132Z" fill="#FFA001"/>
</g>
<g filter="url(#filter5_di_9_4)">
<path d="M349.561 43.8152C349.837 41.9677 348.265 40.3712 346.413 40.6193L239.021 55.0127C237.535 55.2119 236.468 56.5445 236.599 58.0384L238.866 83.9525C239.006 85.5503 240.454 86.7061 242.043 86.4878L343.22 72.5918C344.454 72.4223 345.429 71.459 345.613 70.2267L349.561 43.8152Z" fill="#FECC50"/>
</g>
<g filter="url(#filter6_d_9_4)">
<mask id="mask0_9_4" style="mask-type:alpha" maskUnits="userSpaceOnUse" x="163" y="12" width="78" height="78">
<path d="M200.005 12.9841C201.101 11.8883 202.878 11.8883 203.973 12.9841L221.989 31L240.005 49.0159C241.101 50.1117 241.101 51.8883 240.005 52.9841L221.989 71L203.973 89.0159C202.878 90.1117 201.101 90.1117 200.005 89.0159L181.989 71L163.973 52.9841C162.878 51.8883 162.878 50.1117 163.973 49.0159L181.989 31L200.005 12.9841Z" fill="#C4C4C4"/>
</mask>
<g mask="url(#mask0_9_4)">
<path d="M201.989 91V11L161.989 51L201.989 91Z" fill="#FFD0F5"/>
<path d="M201.989 11V91L241.989 51L201.989 11Z" fill="#FF97F1"/>
<path d="M281.989 91L241.989 51L201.989 91H281.989Z" fill="#FFD0F5"/>
<path d="M121.989 91H201.989L161.989 51L121.989 91Z" fill="#FFD0F5"/>
</g>
</g>
<g filter="url(#filter7_d_9_4)">
<mask id="mask1_9_4" style="mask-type:alpha" maskUnits="userSpaceOnUse" x="203" y="52" width="78" height="78">
<path d="M280.079 88.9422C281.175 90.038 281.175 91.8147 280.079 92.9105L262.063 110.926L244.047 128.942C242.951 130.038 241.175 130.038 240.079 128.942L222.063 110.926L204.047 92.9105C202.951 91.8147 202.951 90.038 204.047 88.9422L222.063 70.9263L240.079 52.9105C241.175 51.8147 242.951 51.8147 244.047 52.9105L262.063 70.9263L280.079 88.9422Z" fill="#C4C4C4"/>
</mask>
<g mask="url(#mask1_9_4)">
<path d="M202.063 90.9259L282.063 90.9259L242.063 50.9259L202.063 90.9259Z" fill="#FFD0F5"/>
<path d="M282.063 90.9259L202.063 90.9259L242.063 130.926L282.063 90.9259Z" fill="#FF97F1"/>
<path d="M202.063 170.926L242.063 130.926L202.063 90.9259L202.063 170.926Z" fill="#FFD0F5"/>
<path d="M202.063 10.9259L202.063 90.9259L242.063 50.9259L202.063 10.9259Z" fill="#FFD0F5"/>
</g>
</g>
<g filter="url(#filter8_d_9_4)">
<mask id="mask2_9_4" style="mask-type:alpha" maskUnits="userSpaceOnUse" x="163" y="92" width="78" height="78">
<path d="M204.121 169.016C203.025 170.112 201.248 170.112 200.153 169.016L182.137 151L164.121 132.984C163.025 131.888 163.025 130.112 164.121 129.016L182.137 111L200.153 92.9841C201.248 91.8883 203.025 91.8883 204.121 92.9841L222.137 111L240.153 129.016C241.248 130.112 241.248 131.888 240.153 132.984L222.137 151L204.121 169.016Z" fill="#C4C4C4"/>
</mask>
<g mask="url(#mask2_9_4)">
<path d="M202.137 91L202.137 171L242.137 131L202.137 91Z" fill="#FFD0F5"/>
<path d="M202.137 171L202.137 91L162.137 131L202.137 171Z" fill="#FF97F1"/>
<path d="M122.137 91L162.137 131L202.137 91L122.137 91Z" fill="#FFD0F5"/>
<path d="M282.137 91L202.137 91L242.137 131L282.137 91Z" fill="#FFD0F5"/>
</g>
</g>
<g filter="url(#filter9_d_9_4)">
<mask id="mask3_9_4" style="mask-type:alpha" maskUnits="userSpaceOnUse" x="123" y="52" width="78" height="78">
<path d="M124.047 93.0578C122.951 91.962 122.951 90.1853 124.047 89.0895L142.063 71.0737L160.079 53.0578C161.175 51.962 162.951 51.962 164.047 53.0578L182.063 71.0737L200.079 89.0895C201.175 90.1853 201.175 91.962 200.079 93.0578L182.063 111.074L164.047 129.09C162.951 130.185 161.175 130.185 160.079 129.09L142.063 111.074L124.047 93.0578Z" fill="#C4C4C4"/>
</mask>
<g mask="url(#mask3_9_4)">
<path d="M202.063 91.0741L122.063 91.0741L162.063 131.074L202.063 91.0741Z" fill="#FFD0F5"/>
<path d="M122.063 91.0741L202.063 91.0741L162.063 51.0741L122.063 91.0741Z" fill="#FF97F1"/>
<path d="M202.063 11.0741L162.063 51.0741L202.063 91.0741L202.063 11.0741Z" fill="#FFD0F5"/>
<path d="M202.063 171.074L202.063 91.0741L162.063 131.074L202.063 171.074Z" fill="#FFD0F5"/>
</g>
</g>
<g filter="url(#filter10_d_9_4)">
<circle cx="202.063" cy="91" r="67.3431" fill="url(#paint0_linear_9_4)"/>
<circle cx="202.063" cy="90.9998" r="64.5372" fill="url(#paint1_linear_9_4)"/>
<circle cx="202.063" cy="91.0002" r="54.7163" fill="url(#paint2_linear_9_4)"/>
<g filter="url(#filter11_i_9_4)">
<circle cx="202.063" cy="91.0007" r="51.9103" fill="url(#paint3_radial_9_4)"/>
<circle cx="202.063" cy="91.0007" r="51.9103" fill="url(#paint4_radial_9_4)"/>
</g>
<path d="M201.234 57.6211C201.631 57.0341 202.495 57.0341 202.892 57.6211L225.058 90.4406C225.287 90.7788 225.287 91.2218 225.058 91.56L202.892 124.379C202.495 124.967 201.631 124.967 201.234 124.379L179.067 91.56C178.839 91.2218 178.839 90.7788 179.067 90.4406L201.234 57.6211Z" fill="#7B33D1" fill-opacity="0.49"/>
<path d="M202.062 62.1624L182.814 91.0008H193.813L202.062 78.0235V62.1624Z" fill="url(#paint5_linear_9_4)"/>
<path d="M221.311 91.0008L202.062 62.1624V78.0235L210.312 91.0008H221.311Z" fill="url(#paint6_linear_9_4)"/>
<path d="M202.062 119.839L221.311 91.0008H210.312L202.062 103.978V119.839Z" fill="url(#paint7_linear_9_4)"/>
<path d="M182.814 91.0008L202.062 119.839V103.978L193.813 91.0008H182.814Z" fill="url(#paint8_linear_9_4)"/>
<path d="M210.312 91.0008L202.062 78.0235L193.813 91.0008L202.062 103.978L210.312 91.0008Z" fill="white"/>
</g>
<ellipse cx="201" cy="171" rx="200.626" ry="24.5522" fill="url(#paint9_radial_9_4)"/>
<ellipse cx="201" cy="171" rx="129.074" ry="4.91044" fill="url(#paint10_radial_9_4)"/>
<g filter="url(#filter12_d_9_4)">
<mask id="path-39-outside-1_9_4" maskUnits="userSpaceOnUse" x="123.374" y="155" width="157" height="43" fill="black">
<rect fill="white" x="123.374" y="155" width="157" height="43"/>
<path d="M134.392 196L125.704 157.12H130.792L136.936 185.776L142.792 157.12H147.736L139.144 196H134.392ZM152.146 196V157.12H157.474V196H152.146ZM173.509 196.432C170.757 196.432 168.613 195.856 167.077 194.704C165.573 193.552 164.517 192 163.909 190.048C163.333 188.096 163.045 185.92 163.045 183.52V169.792C163.045 167.168 163.333 164.88 163.909 162.928C164.517 160.976 165.573 159.472 167.077 158.416C168.613 157.328 170.757 156.784 173.509 156.784C175.941 156.784 177.861 157.232 179.269 158.128C180.709 159.024 181.733 160.304 182.341 161.968C182.981 163.632 183.301 165.632 183.301 167.968V171.04H178.165V168.304C178.165 166.864 178.085 165.6 177.925 164.512C177.797 163.392 177.413 162.528 176.773 161.92C176.133 161.312 175.061 161.008 173.557 161.008C172.021 161.008 170.901 161.344 170.197 162.016C169.493 162.656 169.029 163.584 168.805 164.8C168.613 165.984 168.517 167.376 168.517 168.976V184.384C168.517 186.336 168.677 187.888 168.997 189.04C169.317 190.16 169.845 190.96 170.581 191.44C171.317 191.92 172.309 192.16 173.557 192.16C175.029 192.16 176.085 191.84 176.725 191.2C177.365 190.528 177.765 189.616 177.925 188.464C178.085 187.312 178.165 185.968 178.165 184.432V181.552H183.301V184.432C183.301 186.8 183.013 188.896 182.437 190.72C181.861 192.512 180.869 193.92 179.461 194.944C178.053 195.936 176.069 196.432 173.509 196.432ZM192.74 196V161.152H186.164V157.12H204.548V161.152H198.164V196H192.74ZM218.232 196.432C215.608 196.432 213.512 195.92 211.944 194.896C210.376 193.872 209.256 192.416 208.584 190.528C207.912 188.608 207.576 186.368 207.576 183.808V169.072C207.576 166.512 207.912 164.32 208.584 162.496C209.288 160.64 210.408 159.232 211.944 158.272C213.512 157.28 215.608 156.784 218.232 156.784C220.856 156.784 222.936 157.28 224.472 158.272C226.008 159.264 227.112 160.672 227.784 162.496C228.488 164.32 228.84 166.512 228.84 169.072V183.856C228.84 186.384 228.488 188.592 227.784 190.48C227.112 192.368 226.008 193.84 224.472 194.896C222.936 195.92 220.856 196.432 218.232 196.432ZM218.232 192.16C219.672 192.16 220.76 191.872 221.496 191.296C222.232 190.688 222.728 189.856 222.984 188.8C223.24 187.712 223.368 186.448 223.368 185.008V167.968C223.368 166.528 223.24 165.296 222.984 164.272C222.728 163.216 222.232 162.416 221.496 161.872C220.76 161.296 219.672 161.008 218.232 161.008C216.792 161.008 215.688 161.296 214.92 161.872C214.184 162.416 213.688 163.216 213.432 164.272C213.176 165.296 213.048 166.528 213.048 167.968V185.008C213.048 186.448 213.176 187.712 213.432 188.8C213.688 189.856 214.184 190.688 214.92 191.296C215.688 191.872 216.792 192.16 218.232 192.16ZM234.171 196V157.12H241.995C244.587 157.12 246.731 157.472 248.427 158.176C250.123 158.848 251.371 159.952 252.171 161.488C253.003 162.992 253.419 164.976 253.419 167.44C253.419 168.944 253.259 170.32 252.939 171.568C252.619 172.784 252.107 173.824 251.403 174.688C250.699 175.52 249.771 176.128 248.619 176.512L254.139 196H248.907L243.819 177.76H239.595V196H234.171ZM239.595 173.872H241.659C243.195 173.872 244.443 173.68 245.403 173.296C246.363 172.912 247.067 172.256 247.515 171.328C247.963 170.4 248.187 169.104 248.187 167.44C248.187 165.168 247.771 163.536 246.939 162.544C246.107 161.52 244.459 161.008 241.995 161.008H239.595V173.872ZM265.014 196V182.272L256.614 157.12H261.654L267.606 175.888L273.462 157.12H278.55L270.198 182.272V196H265.014Z"/>
</mask>
<path d="M134.392 196L125.704 157.12H130.792L136.936 185.776L142.792 157.12H147.736L139.144 196H134.392ZM152.146 196V157.12H157.474V196H152.146ZM173.509 196.432C170.757 196.432 168.613 195.856 167.077 194.704C165.573 193.552 164.517 192 163.909 190.048C163.333 188.096 163.045 185.92 163.045 183.52V169.792C163.045 167.168 163.333 164.88 163.909 162.928C164.517 160.976 165.573 159.472 167.077 158.416C168.613 157.328 170.757 156.784 173.509 156.784C175.941 156.784 177.861 157.232 179.269 158.128C180.709 159.024 181.733 160.304 182.341 161.968C182.981 163.632 183.301 165.632 183.301 167.968V171.04H178.165V168.304C178.165 166.864 178.085 165.6 177.925 164.512C177.797 163.392 177.413 162.528 176.773 161.92C176.133 161.312 175.061 161.008 173.557 161.008C172.021 161.008 170.901 161.344 170.197 162.016C169.493 162.656 169.029 163.584 168.805 164.8C168.613 165.984 168.517 167.376 168.517 168.976V184.384C168.517 186.336 168.677 187.888 168.997 189.04C169.317 190.16 169.845 190.96 170.581 191.44C171.317 191.92 172.309 192.16 173.557 192.16C175.029 192.16 176.085 191.84 176.725 191.2C177.365 190.528 177.765 189.616 177.925 188.464C178.085 187.312 178.165 185.968 178.165 184.432V181.552H183.301V184.432C183.301 186.8 183.013 188.896 182.437 190.72C181.861 192.512 180.869 193.92 179.461 194.944C178.053 195.936 176.069 196.432 173.509 196.432ZM192.74 196V161.152H186.164V157.12H204.548V161.152H198.164V196H192.74ZM218.232 196.432C215.608 196.432 213.512 195.92 211.944 194.896C210.376 193.872 209.256 192.416 208.584 190.528C207.912 188.608 207.576 186.368 207.576 183.808V169.072C207.576 166.512 207.912 164.32 208.584 162.496C209.288 160.64 210.408 159.232 211.944 158.272C213.512 157.28 215.608 156.784 218.232 156.784C220.856 156.784 222.936 157.28 224.472 158.272C226.008 159.264 227.112 160.672 227.784 162.496C228.488 164.32 228.84 166.512 228.84 169.072V183.856C228.84 186.384 228.488 188.592 227.784 190.48C227.112 192.368 226.008 193.84 224.472 194.896C222.936 195.92 220.856 196.432 218.232 196.432ZM218.232 192.16C219.672 192.16 220.76 191.872 221.496 191.296C222.232 190.688 222.728 189.856 222.984 188.8C223.24 187.712 223.368 186.448 223.368 185.008V167.968C223.368 166.528 223.24 165.296 222.984 164.272C222.728 163.216 222.232 162.416 221.496 161.872C220.76 161.296 219.672 161.008 218.232 161.008C216.792 161.008 215.688 161.296 214.92 161.872C214.184 162.416 213.688 163.216 213.432 164.272C213.176 165.296 213.048 166.528 213.048 167.968V185.008C213.048 186.448 213.176 187.712 213.432 188.8C213.688 189.856 214.184 190.688 214.92 191.296C215.688 191.872 216.792 192.16 218.232 192.16ZM234.171 196V157.12H241.995C244.587 157.12 246.731 157.472 248.427 158.176C250.123 158.848 251.371 159.952 252.171 161.488C253.003 162.992 253.419 164.976 253.419 167.44C253.419 168.944 253.259 170.32 252.939 171.568C252.619 172.784 252.107 173.824 251.403 174.688C250.699 175.52 249.771 176.128 248.619 176.512L254.139 196H248.907L243.819 177.76H239.595V196H234.171ZM239.595 173.872H241.659C243.195 173.872 244.443 173.68 245.403 173.296C246.363 172.912 247.067 172.256 247.515 171.328C247.963 170.4 248.187 169.104 248.187 167.44C248.187 165.168 247.771 163.536 246.939 162.544C246.107 161.52 244.459 161.008 241.995 161.008H239.595V173.872ZM265.014 196V182.272L256.614 157.12H261.654L267.606 175.888L273.462 157.12H278.55L270.198 182.272V196H265.014Z" fill="white"/>
<path d="M134.392 196L133.023 196.306C133.166 196.947 133.735 197.403 134.392 197.403V196ZM125.704 157.12V155.717C125.278 155.717 124.875 155.91 124.609 156.243C124.343 156.575 124.242 157.01 124.335 157.426L125.704 157.12ZM130.792 157.12L132.164 156.826C132.025 156.179 131.454 155.717 130.792 155.717V157.12ZM136.936 185.776L135.564 186.07C135.704 186.719 136.279 187.182 136.943 187.179C137.607 187.176 138.178 186.707 138.311 186.057L136.936 185.776ZM142.792 157.12V155.717C142.126 155.717 141.551 156.186 141.418 156.839L142.792 157.12ZM147.736 157.12L149.106 157.423C149.198 157.007 149.096 156.573 148.83 156.241C148.564 155.91 148.161 155.717 147.736 155.717V157.12ZM139.144 196V197.403C139.802 197.403 140.372 196.945 140.514 196.303L139.144 196ZM135.761 195.694L127.073 156.814L124.335 157.426L133.023 196.306L135.761 195.694ZM125.704 158.523H130.792V155.717H125.704V158.523ZM129.42 157.414L135.564 186.07L138.308 185.482L132.164 156.826L129.42 157.414ZM138.311 186.057L144.167 157.401L141.418 156.839L135.562 185.495L138.311 186.057ZM142.792 158.523H147.736V155.717H142.792V158.523ZM146.366 156.817L137.774 195.697L140.514 196.303L149.106 157.423L146.366 156.817ZM139.144 194.597H134.392V197.403H139.144V194.597ZM152.146 196H150.743C150.743 196.775 151.372 197.403 152.146 197.403V196ZM152.146 157.12V155.717C151.372 155.717 150.743 156.345 150.743 157.12H152.146ZM157.474 157.12H158.877C158.877 156.345 158.249 155.717 157.474 155.717V157.12ZM157.474 196V197.403C158.249 197.403 158.877 196.775 158.877 196H157.474ZM153.549 196V157.12H150.743V196H153.549ZM152.146 158.523H157.474V155.717H152.146V158.523ZM156.071 157.12V196H158.877V157.12H156.071ZM157.474 194.597H152.146V197.403H157.474V194.597ZM167.077 194.704L166.224 195.818C166.227 195.821 166.231 195.824 166.235 195.826L167.077 194.704ZM163.909 190.048L162.563 190.445C162.565 190.452 162.567 190.459 162.569 190.465L163.909 190.048ZM163.909 162.928L162.569 162.511C162.567 162.517 162.565 162.524 162.563 162.531L163.909 162.928ZM167.077 158.416L167.883 159.564L167.888 159.561L167.077 158.416ZM179.269 158.128L178.515 159.312C178.519 159.314 178.524 159.317 178.528 159.319L179.269 158.128ZM182.341 161.968L181.023 162.449C181.026 162.457 181.028 162.464 181.031 162.472L182.341 161.968ZM183.301 171.04V172.443C184.076 172.443 184.704 171.815 184.704 171.04H183.301ZM178.165 171.04H176.762C176.762 171.815 177.39 172.443 178.165 172.443V171.04ZM177.925 164.512L176.531 164.671C176.533 164.686 176.534 164.701 176.537 164.716L177.925 164.512ZM176.773 161.92L177.739 160.903L177.739 160.903L176.773 161.92ZM170.197 162.016L171.14 163.054C171.149 163.046 171.157 163.039 171.165 163.031L170.197 162.016ZM168.805 164.8L167.425 164.546C167.423 164.556 167.421 164.566 167.42 164.575L168.805 164.8ZM168.997 189.04L167.645 189.416L167.648 189.425L168.997 189.04ZM176.725 191.2L177.717 192.192C177.725 192.184 177.733 192.176 177.741 192.168L176.725 191.2ZM178.165 181.552V180.149C177.39 180.149 176.762 180.777 176.762 181.552H178.165ZM183.301 181.552H184.704C184.704 180.777 184.076 180.149 183.301 180.149V181.552ZM182.437 190.72L183.772 191.149L183.775 191.142L182.437 190.72ZM179.461 194.944L180.269 196.091C180.275 196.087 180.28 196.083 180.286 196.079L179.461 194.944ZM173.509 195.029C170.933 195.029 169.127 194.488 167.919 193.582L166.235 195.826C168.099 197.224 170.58 197.835 173.509 197.835V195.029ZM167.93 193.59C166.675 192.629 165.777 191.329 165.248 189.631L162.569 190.465C163.256 192.671 164.471 194.475 166.224 195.818L167.93 193.59ZM165.254 189.651C164.722 187.849 164.448 185.809 164.448 183.52H161.642C161.642 186.031 161.943 188.343 162.563 190.445L165.254 189.651ZM164.448 183.52V169.792H161.642V183.52H164.448ZM164.448 169.792C164.448 167.266 164.726 165.117 165.254 163.325L162.563 162.531C161.94 164.643 161.642 167.07 161.642 169.792H164.448ZM165.248 163.345C165.775 161.654 166.661 160.422 167.883 159.564L166.271 157.268C164.484 158.522 163.258 160.298 162.569 162.511L165.248 163.345ZM167.888 159.561C169.1 158.702 170.919 158.187 173.509 158.187V155.381C170.594 155.381 168.125 155.954 166.266 157.271L167.888 159.561ZM173.509 158.187C175.789 158.187 177.413 158.61 178.515 159.312L180.022 156.944C178.308 155.854 176.092 155.381 173.509 155.381V158.187ZM178.528 159.319C179.689 160.042 180.517 161.066 181.023 162.449L183.658 161.487C182.948 159.542 181.728 158.006 180.01 156.937L178.528 159.319ZM181.031 162.472C181.594 163.934 181.898 165.754 181.898 167.968H184.704C184.704 165.51 184.368 163.33 183.65 161.464L181.031 162.472ZM181.898 167.968V171.04H184.704V167.968H181.898ZM183.301 169.637H178.165V172.443H183.301V169.637ZM179.568 171.04V168.304H176.762V171.04H179.568ZM179.568 168.304C179.568 166.815 179.485 165.48 179.313 164.308L176.537 164.716C176.684 165.72 176.762 166.913 176.762 168.304H179.568ZM179.319 164.353C179.164 162.998 178.678 161.795 177.739 160.903L175.806 162.937C176.148 163.261 176.43 163.786 176.531 164.671L179.319 164.353ZM177.739 160.903C176.707 159.922 175.185 159.605 173.557 159.605V162.411C174.936 162.411 175.559 162.702 175.806 162.937L177.739 160.903ZM173.557 159.605C171.86 159.605 170.309 159.969 169.228 161.001L171.165 163.031C171.493 162.719 172.181 162.411 173.557 162.411V159.605ZM169.253 160.978C168.262 161.879 167.688 163.119 167.425 164.546L170.184 165.054C170.37 164.049 170.724 163.433 171.14 163.054L169.253 160.978ZM167.42 164.575C167.213 165.853 167.114 167.324 167.114 168.976H169.92C169.92 167.428 170.013 166.115 170.19 165.025L167.42 164.575ZM167.114 168.976V184.384H169.92V168.976H167.114ZM167.114 184.384C167.114 186.394 167.276 188.089 167.645 189.415L170.349 188.664C170.077 187.687 169.92 186.278 169.92 184.384H167.114ZM167.648 189.425C168.03 190.763 168.714 191.898 169.814 192.615L171.347 190.265C170.975 190.022 170.604 189.557 170.346 188.655L167.648 189.425ZM169.814 192.615C170.855 193.294 172.146 193.563 173.557 193.563V190.757C172.472 190.757 171.778 190.546 171.347 190.265L169.814 192.615ZM173.557 193.563C175.178 193.563 176.69 193.219 177.717 192.192L175.733 190.208C175.48 190.461 174.879 190.757 173.557 190.757V193.563ZM177.741 192.168C178.63 191.234 179.124 190.026 179.314 188.657L176.535 188.271C176.405 189.206 176.1 189.822 175.709 190.232L177.741 192.168ZM179.314 188.657C179.486 187.425 179.568 186.013 179.568 184.432H176.762C176.762 185.923 176.684 187.199 176.535 188.271L179.314 188.657ZM179.568 184.432V181.552H176.762V184.432H179.568ZM178.165 182.955H183.301V180.149H178.165V182.955ZM181.898 181.552V184.432H184.704V181.552H181.898ZM181.898 184.432C181.898 186.689 181.623 188.638 181.099 190.298L183.775 191.142C184.403 189.154 184.704 186.911 184.704 184.432H181.898ZM181.101 190.291C180.608 191.824 179.783 192.975 178.636 193.809L180.286 196.079C181.954 194.865 183.113 193.2 183.772 191.149L181.101 190.291ZM178.653 193.797C177.571 194.559 175.913 195.029 173.509 195.029V197.835C176.225 197.835 178.535 197.313 180.269 196.091L178.653 193.797ZM192.74 196H191.337C191.337 196.775 191.965 197.403 192.74 197.403V196ZM192.74 161.152H194.143C194.143 160.377 193.515 159.749 192.74 159.749V161.152ZM186.164 161.152H184.761C184.761 161.927 185.389 162.555 186.164 162.555V161.152ZM186.164 157.12V155.717C185.389 155.717 184.761 156.345 184.761 157.12H186.164ZM204.548 157.12H205.951C205.951 156.345 205.323 155.717 204.548 155.717V157.12ZM204.548 161.152V162.555C205.323 162.555 205.951 161.927 205.951 161.152H204.548ZM198.164 161.152V159.749C197.389 159.749 196.761 160.377 196.761 161.152H198.164ZM198.164 196V197.403C198.939 197.403 199.567 196.775 199.567 196H198.164ZM194.143 196V161.152H191.337V196H194.143ZM192.74 159.749H186.164V162.555H192.74V159.749ZM187.567 161.152V157.12H184.761V161.152H187.567ZM186.164 158.523H204.548V155.717H186.164V158.523ZM203.145 157.12V161.152H205.951V157.12H203.145ZM204.548 159.749H198.164V162.555H204.548V159.749ZM196.761 161.152V196H199.567V161.152H196.761ZM198.164 194.597H192.74V197.403H198.164V194.597ZM211.944 194.896L212.711 193.721L212.711 193.721L211.944 194.896ZM208.584 190.528L207.26 190.991L207.262 190.998L208.584 190.528ZM208.584 162.496L207.272 161.998L207.267 162.011L208.584 162.496ZM211.944 158.272L212.688 159.462L212.694 159.458L211.944 158.272ZM224.472 158.272L223.711 159.451L223.711 159.451L224.472 158.272ZM227.784 162.496L226.467 162.981C226.47 162.988 226.473 162.994 226.475 163.001L227.784 162.496ZM227.784 190.48L226.469 189.99C226.467 189.996 226.465 190.003 226.462 190.01L227.784 190.48ZM224.472 194.896L225.25 196.063C225.256 196.06 225.261 196.056 225.267 196.052L224.472 194.896ZM221.496 191.296L222.361 192.401C222.37 192.393 222.38 192.386 222.39 192.378L221.496 191.296ZM222.984 188.8L224.347 189.131L224.35 189.121L222.984 188.8ZM222.984 164.272L221.62 164.603L221.623 164.612L222.984 164.272ZM221.496 161.872L220.631 162.977C220.641 162.985 220.652 162.993 220.662 163L221.496 161.872ZM214.92 161.872L215.754 163L215.762 162.994L214.92 161.872ZM213.432 164.272L214.793 164.612L214.795 164.603L213.432 164.272ZM213.432 188.8L212.066 189.121L212.068 189.131L213.432 188.8ZM214.92 191.296L214.026 192.378C214.043 192.392 214.061 192.405 214.078 192.418L214.92 191.296ZM218.232 195.029C215.775 195.029 213.977 194.548 212.711 193.721L211.177 196.071C213.047 197.292 215.441 197.835 218.232 197.835V195.029ZM212.711 193.721C211.419 192.877 210.483 191.678 209.906 190.058L207.262 190.998C208.029 193.154 209.333 194.867 211.177 196.071L212.711 193.721ZM209.908 190.065C209.3 188.326 208.979 186.249 208.979 183.808H206.173C206.173 186.487 206.524 188.89 207.26 190.991L209.908 190.065ZM208.979 183.808V169.072H206.173V183.808H208.979ZM208.979 169.072C208.979 166.628 209.301 164.609 209.9 162.981L207.267 162.011C206.523 164.031 206.173 166.396 206.173 169.072H208.979ZM209.896 162.994C210.502 161.395 211.437 160.244 212.688 159.462L211.2 157.082C209.379 158.22 208.074 159.885 207.272 161.998L209.896 162.994ZM212.694 159.458C213.963 158.655 215.769 158.187 218.232 158.187V155.381C215.447 155.381 213.061 155.905 211.194 157.086L212.694 159.458ZM218.232 158.187C220.698 158.187 222.48 158.656 223.711 159.451L225.233 157.093C223.392 155.904 221.014 155.381 218.232 155.381V158.187ZM223.711 159.451C224.975 160.267 225.894 161.423 226.467 162.981L229.1 162.011C228.33 159.921 227.041 158.261 225.233 157.093L223.711 159.451ZM226.475 163.001C227.101 164.623 227.437 166.634 227.437 169.072H230.243C230.243 166.39 229.875 164.017 229.093 161.991L226.475 163.001ZM227.437 169.072V183.856H230.243V169.072H227.437ZM227.437 183.856C227.437 186.258 227.102 188.293 226.469 189.99L229.099 190.97C229.874 188.891 230.243 186.51 230.243 183.856H227.437ZM226.462 190.01C225.881 191.641 224.951 192.864 223.677 193.74L225.267 196.052C227.065 194.816 228.343 193.095 229.106 190.95L226.462 190.01ZM223.694 193.729C222.466 194.547 220.691 195.029 218.232 195.029V197.835C221.021 197.835 223.406 197.293 225.25 196.063L223.694 193.729ZM218.232 193.563C219.825 193.563 221.276 193.25 222.361 192.401L220.631 190.191C220.244 190.494 219.519 190.757 218.232 190.757V193.563ZM222.39 192.378C223.391 191.55 224.03 190.439 224.347 189.131L221.62 188.469C221.426 189.273 221.073 189.826 220.602 190.214L222.39 192.378ZM224.35 189.121C224.636 187.903 224.771 186.527 224.771 185.008H221.965C221.965 186.369 221.844 187.521 221.618 188.479L224.35 189.121ZM224.771 185.008V167.968H221.965V185.008H224.771ZM224.771 167.968C224.771 166.452 224.637 165.099 224.345 163.932L221.623 164.612C221.843 165.493 221.965 166.604 221.965 167.968H224.771ZM224.347 163.941C224.029 162.628 223.378 161.519 222.33 160.744L220.662 163C221.086 163.313 221.427 163.804 221.62 164.603L224.347 163.941ZM222.361 160.767C221.276 159.918 219.825 159.605 218.232 159.605V162.411C219.519 162.411 220.244 162.674 220.631 162.977L222.361 160.767ZM218.232 159.605C216.633 159.605 215.183 159.921 214.078 160.75L215.762 162.994C216.192 162.671 216.951 162.411 218.232 162.411V159.605ZM214.086 160.744C213.038 161.519 212.387 162.628 212.068 163.941L214.795 164.603C214.989 163.804 215.33 163.313 215.754 163L214.086 160.744ZM212.071 163.932C211.779 165.099 211.645 166.452 211.645 167.968H214.451C214.451 166.604 214.573 165.493 214.793 164.612L212.071 163.932ZM211.645 167.968V185.008H214.451V167.968H211.645ZM211.645 185.008C211.645 186.527 211.78 187.903 212.066 189.121L214.798 188.479C214.572 187.521 214.451 186.369 214.451 185.008H211.645ZM212.068 189.131C212.386 190.439 213.025 191.55 214.026 192.378L215.814 190.214C215.343 189.826 214.99 189.273 214.795 188.469L212.068 189.131ZM214.078 192.418C215.183 193.247 216.633 193.563 218.232 193.563V190.757C216.951 190.757 216.192 190.497 215.762 190.174L214.078 192.418ZM234.171 196H232.768C232.768 196.775 233.396 197.403 234.171 197.403V196ZM234.171 157.12V155.717C233.396 155.717 232.768 156.345 232.768 157.12H234.171ZM248.427 158.176L247.889 159.472C247.896 159.475 247.903 159.478 247.91 159.48L248.427 158.176ZM252.171 161.488L250.927 162.136C250.932 162.147 250.938 162.157 250.943 162.167L252.171 161.488ZM252.939 171.568L254.296 171.925L254.298 171.916L252.939 171.568ZM251.403 174.688L252.474 175.594C252.48 175.588 252.485 175.581 252.491 175.574L251.403 174.688ZM248.619 176.512L248.175 175.181C247.464 175.418 247.065 176.173 247.269 176.894L248.619 176.512ZM254.139 196V197.403C254.579 197.403 254.993 197.197 255.258 196.846C255.523 196.495 255.609 196.041 255.489 195.618L254.139 196ZM248.907 196L247.556 196.377C247.725 196.983 248.277 197.403 248.907 197.403V196ZM243.819 177.76L245.17 177.383C245.001 176.777 244.449 176.357 243.819 176.357V177.76ZM239.595 177.76V176.357C238.82 176.357 238.192 176.985 238.192 177.76H239.595ZM239.595 196V197.403C240.37 197.403 240.998 196.775 240.998 196H239.595ZM239.595 173.872H238.192C238.192 174.647 238.82 175.275 239.595 175.275V173.872ZM247.515 171.328L248.778 171.938L248.778 171.938L247.515 171.328ZM246.939 162.544L245.85 163.429C245.855 163.434 245.859 163.44 245.864 163.446L246.939 162.544ZM239.595 161.008V159.605C238.82 159.605 238.192 160.233 238.192 161.008H239.595ZM235.574 196V157.12H232.768V196H235.574ZM234.171 158.523H241.995V155.717H234.171V158.523ZM241.995 158.523C244.473 158.523 246.418 158.861 247.889 159.472L248.965 156.88C247.044 156.083 244.701 155.717 241.995 155.717V158.523ZM247.91 159.48C249.311 160.035 250.291 160.916 250.927 162.136L253.415 160.84C252.451 158.988 250.935 157.661 248.944 156.872L247.91 159.48ZM250.943 162.167C251.621 163.392 252.016 165.117 252.016 167.44H254.822C254.822 164.835 254.385 162.592 253.399 160.809L250.943 162.167ZM252.016 167.44C252.016 168.846 251.866 170.102 251.58 171.22L254.298 171.916C254.652 170.538 254.822 169.042 254.822 167.44H252.016ZM251.582 171.211C251.307 172.258 250.878 173.112 250.315 173.802L252.491 175.574C253.336 174.536 253.931 173.31 254.296 171.925L251.582 171.211ZM250.332 173.782C249.813 174.395 249.112 174.869 248.175 175.181L249.063 177.843C250.43 177.387 251.585 176.645 252.474 175.594L250.332 173.782ZM247.269 176.894L252.789 196.382L255.489 195.618L249.969 176.13L247.269 176.894ZM254.139 194.597H248.907V197.403H254.139V194.597ZM250.258 195.623L245.17 177.383L242.468 178.137L247.556 196.377L250.258 195.623ZM243.819 176.357H239.595V179.163H243.819V176.357ZM238.192 177.76V196H240.998V177.76H238.192ZM239.595 194.597H234.171V197.403H239.595V194.597ZM239.595 175.275H241.659V172.469H239.595V175.275ZM241.659 175.275C243.295 175.275 244.738 175.073 245.924 174.599L244.882 171.993C244.148 172.287 243.095 172.469 241.659 172.469V175.275ZM245.924 174.599C247.208 174.085 248.178 173.183 248.778 171.938L246.252 170.718C245.956 171.329 245.518 171.739 244.882 171.993L245.924 174.599ZM248.778 171.938C249.358 170.738 249.59 169.2 249.59 167.44H246.784C246.784 169.008 246.568 170.062 246.252 170.718L248.778 171.938ZM249.59 167.44C249.59 165.063 249.167 163.018 248.014 161.642L245.864 163.446C246.375 164.054 246.784 165.273 246.784 167.44H249.59ZM248.028 161.659C246.771 160.113 244.542 159.605 241.995 159.605V162.411C244.376 162.411 245.443 162.927 245.85 163.429L248.028 161.659ZM241.995 159.605H239.595V162.411H241.995V159.605ZM238.192 161.008V173.872H240.998V161.008H238.192ZM265.014 196H263.611C263.611 196.775 264.239 197.403 265.014 197.403V196ZM265.014 182.272H266.417C266.417 182.121 266.392 181.971 266.344 181.828L265.014 182.272ZM256.614 157.12V155.717C256.162 155.717 255.739 155.934 255.475 156.3C255.212 156.666 255.14 157.137 255.283 157.564L256.614 157.12ZM261.654 157.12L262.991 156.696C262.806 156.113 262.265 155.717 261.654 155.717V157.12ZM267.606 175.888L266.268 176.312C266.453 176.896 266.996 177.292 267.609 177.291C268.222 177.29 268.762 176.891 268.945 176.306L267.606 175.888ZM273.462 157.12V155.717C272.848 155.717 272.305 156.116 272.122 156.702L273.462 157.12ZM278.55 157.12L279.881 157.562C280.023 157.134 279.951 156.664 279.687 156.299C279.424 155.934 279 155.717 278.55 155.717V157.12ZM270.198 182.272L268.866 181.83C268.819 181.972 268.795 182.122 268.795 182.272H270.198ZM270.198 196V197.403C270.972 197.403 271.601 196.775 271.601 196H270.198ZM266.417 196V182.272H263.611V196H266.417ZM266.344 181.828L257.944 156.676L255.283 157.564L263.683 182.716L266.344 181.828ZM256.614 158.523H261.654V155.717H256.614V158.523ZM260.316 157.544L266.268 176.312L268.943 175.464L262.991 156.696L260.316 157.544ZM268.945 176.306L274.801 157.538L272.122 156.702L266.266 175.47L268.945 176.306ZM273.462 158.523H278.55V155.717H273.462V158.523ZM277.218 156.678L268.866 181.83L271.529 182.714L279.881 157.562L277.218 156.678ZM268.795 182.272V196H271.601V182.272H268.795ZM270.198 194.597H265.014V197.403H270.198V194.597Z" fill="#EC78FF" fill-opacity="0.6" mask="url(#path-39-outside-1_9_4)"/>
</g>
<defs>
<filter id="filter0_di_9_4" x="88.6889" y="91.8207" width="124.229" height="58.5473" filterUnits="userSpaceOnUse" color-interpolation-filters="sRGB">
<feFlood flood-opacity="0" result="BackgroundImageFix"/>
<feColorMatrix in="SourceAlpha" type="matrix" values="0 0 0 0 0 0 0 0 0 0 0 0 0 0 0 0 0 0 127 0" result="hardAlpha"/>
<feOffset dy="5.61193"/>
<feGaussianBlur stdDeviation="2.80596"/>
<feColorMatrix type="matrix" values="0 0 0 0 0 0 0 0 0 0 0 0 0 0 0 0 0 0 0.08 0"/>
<feBlend mode="normal" in2="BackgroundImageFix" result="effect1_dropShadow_9_4"/>
<feBlend mode="normal" in="SourceGraphic" in2="effect1_dropShadow_9_4" result="shape"/>
<feColorMatrix in="SourceAlpha" type="matrix" values="0 0 0 0 0 0 0 0 0 0 0 0 0 0 0 0 0 0 127 0" result="hardAlpha"/>
<feOffset dx="5.61193" dy="-11.2239"/>
<feGaussianBlur stdDeviation="0.701491"/>
<feComposite in2="hardAlpha" operator="arithmetic" k2="-1" k3="1"/>
<feColorMatrix type="matrix" values="0 0 0 0 0 0 0 0 0 0 0 0 0 0 0 0 0 0 0.11 0"/>
<feBlend mode="overlay" in2="shape" result="effect2_innerShadow_9_4"/>
</filter>
<filter id="filter1_di_9_4" x="67.4542" y="68.7887" width="124.229" height="58.5473" filterUnits="userSpaceOnUse" color-interpolation-filters="sRGB">
<feFlood flood-opacity="0" result="BackgroundImageFix"/>
<feColorMatrix in="SourceAlpha" type="matrix" values="0 0 0 0 0 0 0 0 0 0 0 0 0 0 0 0 0 0 127 0" result="hardAlpha"/>
<feOffset dy="5.61193"/>
<feGaussianBlur stdDeviation="2.80596"/>
<feColorMatrix type="matrix" values="0 0 0 0 0 0 0 0 0 0 0 0 0 0 0 0 0 0 0.08 0"/>
<feBlend mode="normal" in2="BackgroundImageFix" result="effect1_dropShadow_9_4"/>
<feBlend mode="normal" in="SourceGraphic" in2="effect1_dropShadow_9_4" result="shape"/>
<feColorMatrix in="SourceAlpha" type="matrix" values="0 0 0 0 0 0 0 0 0 0 0 0 0 0 0 0 0 0 127 0" result="hardAlpha"/>
<feOffset dx="5.61193" dy="-11.2239"/>
<feGaussianBlur stdDeviation="0.701491"/>
<feComposite in2="hardAlpha" operator="arithmetic" k2="-1" k3="1"/>
<feColorMatrix type="matrix" values="0 0 0 0 0 0 0 0 0 0 0 0 0 0 0 0 0 0 0.19 0"/>
<feBlend mode="overlay" in2="shape" result="effect2_innerShadow_9_4"/>
</filter>
<filter id="filter2_di_9_4" x="46.7953" y="39.1908" width="124.229" height="58.5473" filterUnits="userSpaceOnUse" color-interpolation-filters="sRGB">
<feFlood flood-opacity="0" result="BackgroundImageFix"/>
<feColorMatrix in="SourceAlpha" type="matrix" values="0 0 0 0 0 0 0 0 0 0 0 0 0 0 0 0 0 0 127 0" result="hardAlpha"/>
<feOffset dy="5.61193"/>
<feGaussianBlur stdDeviation="2.80596"/>
<feColorMatrix type="matrix" values="0 0 0 0 0 0 0 0 0 0 0 0 0 0 0 0 0 0 0.08 0"/>
<feBlend mode="normal" in2="BackgroundImageFix" result="effect1_dropShadow_9_4"/>
<feBlend mode="normal" in="SourceGraphic" in2="effect1_dropShadow_9_4" result="shape"/>
<feColorMatrix in="SourceAlpha" type="matrix" values="0 0 0 0 0 0 0 0 0 0 0 0 0 0 0 0 0 0 127 0" result="hardAlpha"/>
<feOffset dx="5.61193" dy="-11.2239"/>
<feGaussianBlur stdDeviation="0.701491"/>
<feComposite in2="hardAlpha" operator="arithmetic" k2="-1" k3="1"/>
<feColorMatrix type="matrix" values="0 0 0 0 0 0 0 0 0 0 0 0 0 0 0 0 0 0 0.42 0"/>
<feBlend mode="overlay" in2="shape" result="effect2_innerShadow_9_4"/>
</filter>
<filter id="filter3_di_9_4" x="189.083" y="91.8207" width="124.229" height="58.5473" filterUnits="userSpaceOnUse" color-interpolation-filters="sRGB">
<feFlood flood-opacity="0" result="BackgroundImageFix"/>
<feColorMatrix in="SourceAlpha" type="matrix" values="0 0 0 0 0 0 0 0 0 0 0 0 0 0 0 0 0 0 127 0" result="hardAlpha"/>
<feOffset dy="5.61193"/>
<feGaussianBlur stdDeviation="2.80596"/>
<feColorMatrix type="matrix" values="0 0 0 0 0 0 0 0 0 0 0 0 0 0 0 0 0 0 0.08 0"/>
<feBlend mode="normal" in2="BackgroundImageFix" result="effect1_dropShadow_9_4"/>
<feBlend mode="normal" in="SourceGraphic" in2="effect1_dropShadow_9_4" result="shape"/>
<feColorMatrix in="SourceAlpha" type="matrix" values="0 0 0 0 0 0 0 0 0 0 0 0 0 0 0 0 0 0 127 0" result="hardAlpha"/>
<feOffset dx="-5.61193" dy="-11.2239"/>
<feGaussianBlur stdDeviation="0.701491"/>
<feComposite in2="hardAlpha" operator="arithmetic" k2="-1" k3="1"/>
<feColorMatrix type="matrix" values="0 0 0 0 0 0 0 0 0 0 0 0 0 0 0 0 0 0 0.11 0"/>
<feBlend mode="overlay" in2="shape" result="effect2_innerShadow_9_4"/>
</filter>
<filter id="filter4_di_9_4" x="210.317" y="68.7888" width="124.229" height="58.5473" filterUnits="userSpaceOnUse" color-interpolation-filters="sRGB">
<feFlood flood-opacity="0" result="BackgroundImageFix"/>
<feColorMatrix in="SourceAlpha" type="matrix" values="0 0 0 0 0 0 0 0 0 0 0 0 0 0 0 0 0 0 127 0" result="hardAlpha"/>
<feOffset dy="5.61193"/>
<feGaussianBlur stdDeviation="2.80596"/>
<feColorMatrix type="matrix" values="0 0 0 0 0 0 0 0 0 0 0 0 0 0 0 0 0 0 0.08 0"/>
<feBlend mode="normal" in2="BackgroundImageFix" result="effect1_dropShadow_9_4"/>
<feBlend mode="normal" in="SourceGraphic" in2="effect1_dropShadow_9_4" result="shape"/>
<feColorMatrix in="SourceAlpha" type="matrix" values="0 0 0 0 0 0 0 0 0 0 0 0 0 0 0 0 0 0 127 0" result="hardAlpha"/>
<feOffset dx="-5.61193" dy="-11.2239"/>
<feGaussianBlur stdDeviation="0.701491"/>
<feComposite in2="hardAlpha" operator="arithmetic" k2="-1" k3="1"/>
<feColorMatrix type="matrix" values="0 0 0 0 0 0 0 0 0 0 0 0 0 0 0 0 0 0 0.19 0"/>
<feBlend mode="overlay" in2="shape" result="effect2_innerShadow_9_4"/>
</filter>
<filter id="filter5_di_9_4" x="230.976" y="39.1908" width="124.229" height="58.5473" filterUnits="userSpaceOnUse" color-interpolation-filters="sRGB">
<feFlood flood-opacity="0" result="BackgroundImageFix"/>
<feColorMatrix in="SourceAlpha" type="matrix" values="0 0 0 0 0 0 0 0 0 0 0 0 0 0 0 0 0 0 127 0" result="hardAlpha"/>
<feOffset dy="5.61193"/>
<feGaussianBlur stdDeviation="2.80596"/>
<feColorMatrix type="matrix" values="0 0 0 0 0 0 0 0 0 0 0 0 0 0 0 0 0 0 0.08 0"/>
<feBlend mode="normal" in2="BackgroundImageFix" result="effect1_dropShadow_9_4"/>
<feBlend mode="normal" in="SourceGraphic" in2="effect1_dropShadow_9_4" result="shape"/>
<feColorMatrix in="SourceAlpha" type="matrix" values="0 0 0 0 0 0 0 0 0 0 0 0 0 0 0 0 0 0 127 0" result="hardAlpha"/>
<feOffset dx="-5.61193" dy="-11.2239"/>
<feGaussianBlur stdDeviation="0.701491"/>
<feComposite in2="hardAlpha" operator="arithmetic" k2="-1" k3="1"/>
<feColorMatrix type="matrix" values="0 0 0 0 0 0 0 0 0 0 0 0 0 0 0 0 0 0 0.42 0"/>
<feBlend mode="overlay" in2="shape" result="effect2_innerShadow_9_4"/>
</filter>
<filter id="filter6_d_9_4" x="151.928" y="0.938411" width="100.123" height="100.123" filterUnits="userSpaceOnUse" color-interpolation-filters="sRGB">
<feFlood flood-opacity="0" result="BackgroundImageFix"/>
<feColorMatrix in="SourceAlpha" type="matrix" values="0 0 0 0 0 0 0 0 0 0 0 0 0 0 0 0 0 0 127 0" result="hardAlpha"/>
<feOffset/>
<feGaussianBlur stdDeviation="5.61193"/>
<feColorMatrix type="matrix" values="0 0 0 0 0 0 0 0 0 0 0 0 0 0 0 0 0 0 0.2 0"/>
<feBlend mode="normal" in2="BackgroundImageFix" result="effect1_dropShadow_9_4"/>
<feBlend mode="normal" in="SourceGraphic" in2="effect1_dropShadow_9_4" result="shape"/>
</filter>
<filter id="filter7_d_9_4" x="192.001" y="40.8648" width="100.123" height="100.123" filterUnits="userSpaceOnUse" color-interpolation-filters="sRGB">
<feFlood flood-opacity="0" result="BackgroundImageFix"/>
<feColorMatrix in="SourceAlpha" type="matrix" values="0 0 0 0 0 0 0 0 0 0 0 0 0 0 0 0 0 0 127 0" result="hardAlpha"/>
<feOffset/>
<feGaussianBlur stdDeviation="5.61193"/>
<feColorMatrix type="matrix" values="0 0 0 0 0 0 0 0 0 0 0 0 0 0 0 0 0 0 0.2 0"/>
<feBlend mode="normal" in2="BackgroundImageFix" result="effect1_dropShadow_9_4"/>
<feBlend mode="normal" in="SourceGraphic" in2="effect1_dropShadow_9_4" result="shape"/>
</filter>
<filter id="filter8_d_9_4" x="152.075" y="80.9384" width="100.123" height="100.123" filterUnits="userSpaceOnUse" color-interpolation-filters="sRGB">
<feFlood flood-opacity="0" result="BackgroundImageFix"/>
<feColorMatrix in="SourceAlpha" type="matrix" values="0 0 0 0 0 0 0 0 0 0 0 0 0 0 0 0 0 0 127 0" result="hardAlpha"/>
<feOffset/>
<feGaussianBlur stdDeviation="5.61193"/>
<feColorMatrix type="matrix" values="0 0 0 0 0 0 0 0 0 0 0 0 0 0 0 0 0 0 0.2 0"/>
<feBlend mode="normal" in2="BackgroundImageFix" result="effect1_dropShadow_9_4"/>
<feBlend mode="normal" in="SourceGraphic" in2="effect1_dropShadow_9_4" result="shape"/>
</filter>
<filter id="filter9_d_9_4" x="112.001" y="41.0121" width="100.123" height="100.123" filterUnits="userSpaceOnUse" color-interpolation-filters="sRGB">
<feFlood flood-opacity="0" result="BackgroundImageFix"/>
<feColorMatrix in="SourceAlpha" type="matrix" values="0 0 0 0 0 0 0 0 0 0 0 0 0 0 0 0 0 0 127 0" result="hardAlpha"/>
<feOffset/>
<feGaussianBlur stdDeviation="5.61193"/>
<feColorMatrix type="matrix" values="0 0 0 0 0 0 0 0 0 0 0 0 0 0 0 0 0 0 0.2 0"/>
<feBlend mode="normal" in2="BackgroundImageFix" result="effect1_dropShadow_9_4"/>
<feBlend mode="normal" in="SourceGraphic" in2="effect1_dropShadow_9_4" result="shape"/>
</filter>
<filter id="filter10_d_9_4" x="118.72" y="7.65687" width="166.686" height="166.686" filterUnits="userSpaceOnUse" color-interpolation-filters="sRGB">
<feFlood flood-opacity="0" result="BackgroundImageFix"/>
<feColorMatrix in="SourceAlpha" type="matrix" values="0 0 0 0 0 0 0 0 0 0 0 0 0 0 0 0 0 0 127 0" result="hardAlpha"/>
<feOffset/>
<feGaussianBlur stdDeviation="8"/>
<feColorMatrix type="matrix" values="0 0 0 0 0 0 0 0 0 0 0 0 0 0 0 0 0 0 0.15 0"/>
<feBlend mode="normal" in2="BackgroundImageFix" result="effect1_dropShadow_9_4"/>
<feBlend mode="normal" in="SourceGraphic" in2="effect1_dropShadow_9_4" result="shape"/>
</filter>
<filter id="filter11_i_9_4" x="150.153" y="39.0904" width="103.821" height="105.821" filterUnits="userSpaceOnUse" color-interpolation-filters="sRGB">
<feFlood flood-opacity="0" result="BackgroundImageFix"/>
<feBlend mode="normal" in="SourceGraphic" in2="BackgroundImageFix" result="shape"/>
<feColorMatrix in="SourceAlpha" type="matrix" values="0 0 0 0 0 0 0 0 0 0 0 0 0 0 0 0 0 0 127 0" result="hardAlpha"/>
<feOffset dy="2"/>
<feGaussianBlur stdDeviation="5"/>
<feComposite in2="hardAlpha" operator="arithmetic" k2="-1" k3="1"/>
<feColorMatrix type="matrix" values="0 0 0 0 0 0 0 0 0 0 0 0 0 0 0 0 0 0 0.8 0"/>
<feBlend mode="overlay" in2="shape" result="effect1_innerShadow_9_4"/>
</filter>
<filter id="filter12_d_9_4" x="69.5848" y="100.665" width="265.084" height="151.887" filterUnits="userSpaceOnUse" color-interpolation-filters="sRGB">
<feFlood flood-opacity="0" result="BackgroundImageFix"/>
<feColorMatrix in="SourceAlpha" type="matrix" values="0 0 0 0 0 0 0 0 0 0 0 0 0 0 0 0 0 0 127 0" result="hardAlpha"/>
<feOffset/>
<feGaussianBlur stdDeviation="28.0596"/>
<feColorMatrix type="matrix" values="0 0 0 0 0.806667 0 0 0 0 0.395833 0 0 0 0 1 0 0 0 1 0"/>
<feBlend mode="normal" in2="BackgroundImageFix" result="effect1_dropShadow_9_4"/>
<feBlend mode="normal" in="SourceGraphic" in2="effect1_dropShadow_9_4" result="shape"/>
</filter>
<linearGradient id="paint0_linear_9_4" x1="202.063" y1="23.6569" x2="202.063" y2="158.343" gradientUnits="userSpaceOnUse">
<stop stop-color="#FFEB3A"/>
<stop offset="1" stop-color="#FA7002"/>
</linearGradient>
<linearGradient id="paint1_linear_9_4" x1="202.063" y1="26.4627" x2="202.063" y2="155.537" gradientUnits="userSpaceOnUse">
<stop stop-color="#FFDE66"/>
<stop offset="1" stop-color="#FB9811"/>
</linearGradient>
<linearGradient id="paint2_linear_9_4" x1="202.063" y1="36.2839" x2="202.063" y2="145.716" gradientUnits="userSpaceOnUse">
<stop stop-color="#FFAD31"/>
<stop offset="1" stop-color="#FFD446"/>
</linearGradient>
<radialGradient id="paint3_radial_9_4" cx="0" cy="0" r="1" gradientUnits="userSpaceOnUse" gradientTransform="translate(185.685 66.4915) rotate(53.514) scale(78.2229 99.5459)">
<stop stop-color="#ED7CFF"/>
<stop offset="1" stop-color="#6E31E2"/>
</radialGradient>
<radialGradient id="paint4_radial_9_4" cx="0" cy="0" r="1" gradientUnits="userSpaceOnUse" gradientTransform="translate(181.099 61.9056) rotate(51.3402) scale(12.5844 25.1951)">
<stop stop-color="white" stop-opacity="0.6"/>
<stop offset="1" stop-color="white" stop-opacity="0"/>
</radialGradient>
<linearGradient id="paint5_linear_9_4" x1="189.51" y1="80.4465" x2="196.63" y2="85.6019" gradientUnits="userSpaceOnUse">
<stop stop-color="#FFD2F6"/>
<stop offset="1" stop-color="#FFEEFC"/>
</linearGradient>
<linearGradient id="paint6_linear_9_4" x1="206.092" y1="81.7585" x2="217.901" y2="76.9747" gradientUnits="userSpaceOnUse">
<stop stop-color="#FFC2F1"/>
<stop offset="1" stop-color="#FFCDF4"/>
</linearGradient>
<linearGradient id="paint7_linear_9_4" x1="204.71" y1="97.5016" x2="210.259" y2="106.943" gradientUnits="userSpaceOnUse">
<stop stop-color="#FF88EF"/>
<stop offset="1" stop-color="#E962D6"/>
</linearGradient>
<linearGradient id="paint8_linear_9_4" x1="197.34" y1="94.8777" x2="197.756" y2="110.622" gradientUnits="userSpaceOnUse">
<stop stop-color="#FFCDF4"/>
<stop offset="1" stop-color="#FF97E8"/>
</linearGradient>
<radialGradient id="paint9_radial_9_4" cx="0" cy="0" r="1" gradientUnits="userSpaceOnUse" gradientTransform="translate(201 171) rotate(90) scale(24.5522 200.626)">
<stop stop-color="#EC78FF" stop-opacity="0.25"/>
<stop offset="1" stop-color="#EC78FF" stop-opacity="0"/>
</radialGradient>
<radialGradient id="paint10_radial_9_4" cx="0" cy="0" r="1" gradientUnits="userSpaceOnUse" gradientTransform="translate(201 171) rotate(90) scale(4.91044 129.074)">
<stop stop-color="#EC78FF" stop-opacity="0.25"/>
<stop offset="1" stop-color="#EC78FF" stop-opacity="0"/>
</radialGradient>
</defs>
</svg>
